<svg width="26" height="25" viewBox="0 0 26 25" fill="none" xmlns="http://www.w3.org/2000/svg">
<path d="M18.5133 19.1667V17.9167M6.84668 19.1667V17.9167" stroke="black" stroke-width="1.5" stroke-linecap="round"/>
<path d="M4.34668 15C4.34668 14.2234 4.34668 13.8351 4.47355 13.5289C4.6427 13.1205 4.96716 12.796 5.37554 12.6269C5.68183 12.5 6.07011 12.5 6.84668 12.5H18.5133C19.2899 12.5 19.6782 12.5 19.9845 12.6269C20.3929 12.796 20.7173 13.1205 20.8865 13.5289C21.0133 13.8351 21.0133 14.2234 21.0133 15C21.0133 15.7766 21.0133 16.1649 20.8865 16.4711C20.7173 16.8795 20.3929 17.204 19.9845 17.3731C19.6782 17.5 19.2899 17.5 18.5133 17.5H6.84668C6.07011 17.5 5.68183 17.5 5.37554 17.3731C4.96716 17.204 4.6427 16.8795 4.47355 16.4711C4.34668 16.1649 4.34668 15.7766 4.34668 15Z" stroke="black" stroke-width="1.5"/>
<path d="M20.1797 12.4999C20.1797 9.35722 20.1797 7.78587 19.2034 6.80956C18.2271 5.83325 16.6557 5.83325 13.513 5.83325H11.8464C8.70366 5.83325 7.13231 5.83325 6.156 6.80956C5.17969 7.78587 5.17969 9.35722 5.17969 12.4999" stroke="black" stroke-width="1.5"/>
<path d="M18.096 12.5001V11.2501C18.096 9.67873 18.096 8.89306 17.6079 8.4049C17.1197 7.91675 16.334 7.91675 14.7627 7.91675H10.596C9.02468 7.91675 8.23901 7.91675 7.75085 8.4049C7.2627 8.89306 7.2627 9.67873 7.2627 11.2501V12.5001" stroke="black" stroke-width="1.5"/>
<path d="M12.6797 8.33325V12.4999" stroke="black" stroke-width="1.5"/>
</svg>
