<svg width="26" height="25" viewBox="0 0 26 25" fill="none" xmlns="http://www.w3.org/2000/svg">
<path fill-rule="evenodd" clip-rule="evenodd" d="M15.1367 3.54175H16.89C17.6387 3.54172 18.2631 3.5417 18.7587 3.60834C19.2819 3.67868 19.7542 3.83341 20.1338 4.21296C20.5134 4.59252 20.6681 5.06486 20.7384 5.58802C20.8051 6.08367 20.805 6.70802 20.805 7.45676V20.2084H21.0133C21.3585 20.2084 21.6383 20.4882 21.6383 20.8334C21.6383 21.1786 21.3585 21.4584 21.0133 21.4584H4.34668C4.0015 21.4584 3.72168 21.1786 3.72168 20.8334C3.72168 20.4882 4.0015 20.2084 4.34668 20.2084H4.55501L4.55501 9.95675C4.55499 9.20802 4.55497 8.58367 4.62161 8.08802C4.69194 7.56486 4.84667 7.09252 5.22623 6.71296C5.60578 6.33341 6.07812 6.17868 6.60128 6.10834C7.09693 6.0417 7.72128 6.04172 8.47001 6.04175L11.245 6.04175C11.2879 5.31327 11.4222 4.68368 11.8929 4.21296C12.2725 3.83341 12.7448 3.67868 13.2679 3.60834C13.7636 3.5417 14.3879 3.54172 15.1367 3.54175ZM11.8524 7.29175C11.8513 7.29175 11.8502 7.29175 11.8492 7.29175C11.8483 7.29175 11.8475 7.29175 11.8467 7.29175H8.51335C7.71 7.29175 7.17037 7.29308 6.76784 7.3472C6.38329 7.3989 6.21871 7.48825 6.11011 7.59685C6.00151 7.70544 5.91216 7.87003 5.86046 8.25458C5.80634 8.65711 5.80501 9.19674 5.80501 10.0001V20.2084H9.55501V18.3334C9.55501 17.9882 9.83483 17.7084 10.18 17.7084C10.5252 17.7084 10.805 17.9882 10.805 18.3334V20.2084H14.555V10.0001C14.555 9.19674 14.5537 8.65711 14.4996 8.25458C14.4479 7.87003 14.3585 7.70544 14.2499 7.59685C14.1413 7.48825 13.9767 7.3989 13.5922 7.3472C13.1906 7.29321 12.6526 7.29176 11.8524 7.29175ZM15.805 20.2084L15.805 9.95675C15.805 9.20802 15.8051 8.58367 15.7384 8.08802C15.6681 7.56486 15.5134 7.09252 15.1338 6.71296C14.7542 6.33341 14.2819 6.17868 13.7587 6.10834C13.4043 6.06069 12.984 6.04712 12.4995 6.04327C12.5413 5.46024 12.633 5.24061 12.7768 5.09685C12.8854 4.98825 13.05 4.8989 13.4345 4.8472C13.837 4.79308 14.3767 4.79175 15.18 4.79175H16.8467C17.65 4.79175 18.1897 4.79308 18.5922 4.8472C18.9767 4.8989 19.1413 4.98825 19.2499 5.09685C19.3585 5.20544 19.4479 5.37003 19.4996 5.75458C19.5537 6.15711 19.555 6.69674 19.555 7.50008V20.2084H15.805ZM7.05501 9.16675C7.05501 8.82157 7.33483 8.54175 7.68001 8.54175H12.68C13.0252 8.54175 13.305 8.82157 13.305 9.16675C13.305 9.51193 13.0252 9.79175 12.68 9.79175H7.68001C7.33483 9.79175 7.05501 9.51193 7.05501 9.16675ZM7.05501 11.6667C7.05501 11.3216 7.33483 11.0417 7.68001 11.0417H12.68C13.0252 11.0417 13.305 11.3216 13.305 11.6667C13.305 12.0119 13.0252 12.2917 12.68 12.2917H7.68001C7.33483 12.2917 7.05501 12.0119 7.05501 11.6667ZM7.05501 14.1667C7.05501 13.8216 7.33483 13.5417 7.68001 13.5417H12.68C13.0252 13.5417 13.305 13.8216 13.305 14.1667C13.305 14.5119 13.0252 14.7917 12.68 14.7917H7.68001C7.33483 14.7917 7.05501 14.5119 7.05501 14.1667Z" fill="black"/>
</svg>
