<svg width="26" height="25" viewBox="0 0 26 25" fill="none" xmlns="http://www.w3.org/2000/svg">
<path d="M21.0124 20.834L4.3457 20.834" stroke="black" stroke-width="1.5" stroke-linecap="round"/>
<path d="M20.1793 20.8327V7.49935C20.1793 5.928 20.1793 5.14233 19.6912 4.65417C19.203 4.16602 18.4173 4.16602 16.846 4.16602H15.1793C13.608 4.16602 12.8223 4.16602 12.3341 4.65417C11.9412 5.04712 11.8646 5.63286 11.8496 6.66602" stroke="black" stroke-width="1.5"/>
<path d="M15.1797 20.8337V10.0003C15.1797 8.42898 15.1797 7.6433 14.6915 7.15515C14.2034 6.66699 13.4177 6.66699 11.8464 6.66699H8.51302C6.94167 6.66699 6.156 6.66699 5.66784 7.15515C5.17969 7.6433 5.17969 8.42898 5.17969 10.0003V20.8337" stroke="black" stroke-width="1.5"/>
<path d="M10.1797 20.833V18.333" stroke="black" stroke-width="1.5" stroke-linecap="round"/>
<path d="M7.67969 9.16797H12.6797" stroke="black" stroke-width="1.5" stroke-linecap="round"/>
<path d="M7.67969 11.667H12.6797" stroke="black" stroke-width="1.5" stroke-linecap="round"/>
<path d="M7.67969 14.166H12.6797" stroke="black" stroke-width="1.5" stroke-linecap="round"/>
</svg>
