<svg width="26" height="25" viewBox="0 0 26 25" fill="none" xmlns="http://www.w3.org/2000/svg">
<path d="M4.34766 12.5002C4.34766 9.35747 4.34766 7.78612 5.32397 6.80981C6.30028 5.8335 7.87163 5.8335 11.0143 5.8335H14.3477C17.4904 5.8335 19.0617 5.8335 20.038 6.80981C21.0143 7.78612 21.0143 9.35747 21.0143 12.5002V14.1668C21.0143 17.3095 21.0143 18.8809 20.038 19.8572C19.0617 20.8335 17.4904 20.8335 14.3477 20.8335H11.0143C7.87163 20.8335 6.30028 20.8335 5.32397 19.8572C4.34766 18.8809 4.34766 17.3095 4.34766 14.1668V12.5002Z" stroke="black" stroke-width="1.80201"/>
<path d="M8.51562 5.83325V4.58325" stroke="black" stroke-width="1.80201" stroke-linecap="round"/>
<path d="M16.8477 5.83325V4.58325" stroke="black" stroke-width="1.80201" stroke-linecap="round"/>
<circle cx="16.4277" cy="16.2502" r="1.25" stroke="black" stroke-width="1.80201"/>
<path d="M4.76172 9.99951H20.595" stroke="black" stroke-width="1.80201" stroke-linecap="round"/>
</svg>
