<svg width="26" height="25" viewBox="0 0 26 25" fill="none" xmlns="http://www.w3.org/2000/svg">
<path d="M4.75684 12.4999C4.75684 9.35722 4.75684 7.78587 5.73315 6.80956C6.70946 5.83325 8.28081 5.83325 11.4235 5.83325H14.7568C17.8995 5.83325 19.4709 5.83325 20.4472 6.80956C21.4235 7.78587 21.4235 9.35722 21.4235 12.4999V14.1666C21.4235 17.3093 21.4235 18.8806 20.4472 19.8569C19.4709 20.8333 17.8995 20.8333 14.7568 20.8333H11.4235C8.28081 20.8333 6.70946 20.8333 5.73315 19.8569C4.75684 18.8806 4.75684 17.3093 4.75684 14.1666V12.4999Z" stroke="black" stroke-width="1.5"/>
<path d="M8.92285 5.83325V4.58325" stroke="black" stroke-width="1.5" stroke-linecap="round"/>
<path d="M17.2568 5.83325V4.58325" stroke="black" stroke-width="1.5" stroke-linecap="round"/>
<circle cx="16.8398" cy="16.25" r="1.25" stroke="black" stroke-width="1.5"/>
<path d="M5.17285 10H21.0062" stroke="black" stroke-width="1.5" stroke-linecap="round"/>
</svg>
