<svg width="26" height="25" viewBox="0 0 26 25" fill="none" xmlns="http://www.w3.org/2000/svg">
<path d="M4.34668 12.4999C4.34668 9.35722 4.34668 7.78587 5.32299 6.80956C6.2993 5.83325 7.87065 5.83325 11.0133 5.83325H14.3467C17.4894 5.83325 19.0607 5.83325 20.037 6.80956C21.0133 7.78587 21.0133 9.35722 21.0133 12.4999C21.0133 15.6426 21.0133 17.214 20.037 18.1903C19.0607 19.1666 17.4894 19.1666 14.3467 19.1666H11.0133C7.87065 19.1666 6.2993 19.1666 5.32299 18.1903C4.34668 17.214 4.34668 15.6426 4.34668 12.4999Z" stroke="black" stroke-width="1.8"/>
<path d="M11.013 16.25H7.67969" stroke="black" stroke-width="1.8" stroke-linecap="round"/>
<path d="M9.34635 13.75H7.67969" stroke="black" stroke-width="1.8" stroke-linecap="round"/>
<path d="M4.34668 10.8333L21.0133 10.8333" stroke="black" stroke-width="1.8" stroke-linecap="round"/>
<path d="M14.3467 14.9999C14.3467 14.2142 14.3467 13.8214 14.5908 13.5773C14.8348 13.3333 15.2277 13.3333 16.0133 13.3333C16.799 13.3333 17.1919 13.3333 17.4359 13.5773C17.68 13.8214 17.68 14.2142 17.68 14.9999C17.68 15.7856 17.68 16.1784 17.4359 16.4225C17.1919 16.6666 16.799 16.6666 16.0133 16.6666C15.2277 16.6666 14.8348 16.6666 14.5908 16.4225C14.3467 16.1784 14.3467 15.7856 14.3467 14.9999Z" stroke="black" stroke-width="1.8"/>
</svg>
