<svg width="26" height="25" viewBox="0 0 26 25" fill="none" xmlns="http://www.w3.org/2000/svg">
<path d="M4.3457 12.5002C4.3457 9.35747 4.3457 7.78612 5.32201 6.80981C6.29832 5.8335 7.86967 5.8335 11.0124 5.8335H14.3457C17.4884 5.8335 19.0597 5.8335 20.0361 6.80981C21.0124 7.78612 21.0124 9.35747 21.0124 12.5002C21.0124 15.6429 21.0124 17.2142 20.0361 18.1905C19.0597 19.1668 17.4884 19.1668 14.3457 19.1668H11.0124C7.86967 19.1668 6.29832 19.1668 5.32201 18.1905C4.3457 17.2142 4.3457 15.6429 4.3457 12.5002Z" stroke="black" stroke-width="1.80201"/>
<path d="M11.014 15.833H7.68066" stroke="black" stroke-width="1.80201" stroke-linecap="round"/>
<path d="M14.3477 15.833H13.0977" stroke="black" stroke-width="1.80201" stroke-linecap="round"/>
<path d="M4.3457 10.8333L21.0124 10.8333" stroke="black" stroke-width="1.80201" stroke-linecap="round"/>
</svg>
