<svg width="26" height="25" viewBox="0 0 26 25" fill="none" xmlns="http://www.w3.org/2000/svg">
<path d="M8.08984 11.6667C8.08984 9.30973 8.08984 8.13121 8.82208 7.39898C9.55431 6.66675 10.7328 6.66675 13.0898 6.66675H15.5898C17.9469 6.66675 19.1254 6.66675 19.8576 7.39898C20.5898 8.13121 20.5898 9.30973 20.5898 11.6667V15.8334C20.5898 18.1904 20.5898 19.3689 19.8576 20.1012C19.1254 20.8334 17.9469 20.8334 15.5898 20.8334H13.0898C10.7328 20.8334 9.55431 20.8334 8.82208 20.1012C8.08984 19.3689 8.08984 18.1904 8.08984 15.8334V11.6667Z" stroke="black" stroke-width="1.5"/>
<path d="M8.08984 18.3334C6.70913 18.3334 5.58984 17.2141 5.58984 15.8334V10.8334C5.58984 7.69072 5.58984 6.11937 6.56615 5.14306C7.54247 4.16675 9.11381 4.16675 12.2565 4.16675H15.5898C16.9706 4.16675 18.0898 5.28604 18.0898 6.66675" stroke="black" stroke-width="1.5"/>
</svg>
