<svg width="25" height="25" viewBox="0 0 25 25" fill="none" xmlns="http://www.w3.org/2000/svg">
<path d="M24.4726 3.22496C24.8631 2.83444 24.8631 2.20127 24.4726 1.81075L23.3689 0.707106C22.9784 0.316582 22.3452 0.316582 21.9547 0.707107L13.3868 9.27504C12.9963 9.66556 12.3631 9.66556 11.9726 9.27504L3.40465 0.707106C3.01413 0.316582 2.38096 0.316582 1.99044 0.707107L0.886794 1.81075C0.496269 2.20128 0.49627 2.83444 0.886794 3.22496L9.45472 11.7929C9.84525 12.1834 9.84525 12.8166 9.45472 13.2071L0.886794 21.775C0.49627 22.1656 0.49627 22.7987 0.886794 23.1892L1.99044 24.2929C2.38096 24.6834 3.01413 24.6834 3.40465 24.2929L11.9726 15.725C12.3631 15.3344 12.9963 15.3344 13.3868 15.725L21.9547 24.2929C22.3452 24.6834 22.9784 24.6834 23.3689 24.2929L24.4726 23.1892C24.8631 22.7987 24.8631 22.1656 24.4726 21.775L15.9047 13.2071C15.5141 12.8166 15.5141 12.1834 15.9047 11.7929L24.4726 3.22496Z" fill="black"/>
</svg>
