<svg width="26" height="25" viewBox="0 0 26 25" fill="none" xmlns="http://www.w3.org/2000/svg">
<path d="M19.2391 12.8237L18.4934 12.7435L18.4934 12.7435L19.2391 12.8237ZM19.0863 14.2442L19.832 14.3244L19.832 14.3244L19.0863 14.2442ZM6.27434 14.2442L5.52864 14.3244L6.27434 14.2442ZM6.12154 12.8237L6.86724 12.7435L6.12154 12.8237ZM9.98039 11.6116L10.6354 11.977L10.6354 11.9769L9.98039 11.6116ZM11.4716 8.93783L10.8166 8.57252L10.8166 8.57252L11.4716 8.93783ZM13.889 8.93783L13.234 9.30315L13.234 9.30315L13.889 8.93783ZM15.3803 11.6116L16.0353 11.2463L16.0353 11.2463L15.3803 11.6116ZM16.0168 12.466L15.7146 13.1524L15.7146 13.1524L16.0168 12.466ZM17.2391 11.871L16.7098 11.3396L16.7098 11.3396L17.2391 11.871ZM16.3914 12.5182L16.2887 11.7753L16.2887 11.7753L16.3914 12.5182ZM8.12158 11.871L7.59229 12.4023L8.12158 11.871ZM8.96925 12.5182L9.07199 11.7753L9.07198 11.7753L8.96925 12.5182ZM9.34384 12.466L9.6461 13.1524L9.6461 13.1524L9.34384 12.466ZM7.4404 19.2943L7.94061 18.7355L7.94061 18.7355L7.4404 19.2943ZM17.9203 19.2943L17.4201 18.7355L17.4201 18.7355L17.9203 19.2943ZM18.4007 10.8168L18.9683 10.3265L18.9683 10.3265L18.4007 10.8168ZM13.4367 8.15221L13.0959 7.48413L13.4367 8.15221ZM11.9239 8.15221L12.2648 7.48413L12.2648 7.48413L11.9239 8.15221ZM18.4934 12.7435L18.3406 14.164L19.832 14.3244L19.9848 12.9039L18.4934 12.7435ZM13.587 19.25H11.7737V20.75H13.587V19.25ZM7.02004 14.164L6.86724 12.7435L5.37584 12.9039L5.52864 14.3244L7.02004 14.164ZM10.6354 11.9769L12.1266 9.30315L10.8166 8.57252L9.32537 11.2463L10.6354 11.9769ZM13.234 9.30315L14.7253 11.9769L16.0353 11.2463L14.5441 8.57251L13.234 9.30315ZM14.7253 11.9769C14.8588 12.2163 14.9864 12.4472 15.1113 12.625C15.2404 12.8088 15.4254 13.025 15.7146 13.1524L16.3191 11.7796C16.3961 11.8135 16.4043 11.8561 16.3389 11.763C16.2693 11.6638 16.1847 11.5142 16.0353 11.2463L14.7253 11.9769ZM16.7098 11.3396C16.4923 11.5563 16.3696 11.6771 16.2752 11.7535C16.1865 11.8253 16.2057 11.7868 16.2887 11.7753L16.4942 13.2612C16.8069 13.2179 17.044 13.0609 17.2187 12.9196C17.3877 12.7829 17.574 12.596 17.7684 12.4023L16.7098 11.3396ZM15.7146 13.1524C15.9594 13.2602 16.2293 13.2978 16.4942 13.2612L16.2887 11.7753C16.2989 11.7739 16.3094 11.7753 16.3191 11.7796L15.7146 13.1524ZM7.59229 12.4023C7.78668 12.596 7.973 12.7829 8.142 12.9196C8.31665 13.0609 8.55377 13.2179 8.86652 13.2612L9.07198 11.7753C9.15497 11.7868 9.17422 11.8253 9.08546 11.7535C8.99104 11.6771 8.86842 11.5563 8.65088 11.3396L7.59229 12.4023ZM9.32537 11.2463C9.17594 11.5143 9.09142 11.6638 9.02179 11.763C8.95638 11.8561 8.96456 11.8135 9.04159 11.7796L9.6461 13.1524C9.93529 13.025 10.1203 12.8088 10.2494 12.625C10.3743 12.4472 10.5019 12.2163 10.6354 11.977L9.32537 11.2463ZM8.86652 13.2612C9.13138 13.2978 9.40131 13.2602 9.6461 13.1524L9.04159 11.7796C9.05126 11.7753 9.06175 11.7739 9.07199 11.7753L8.86652 13.2612ZM11.7737 19.25C10.5722 19.25 9.74243 19.2486 9.11168 19.1679C8.50188 19.0898 8.178 18.948 7.94061 18.7355L6.9402 19.8531C7.49122 20.3463 8.15236 20.5573 8.92129 20.6557C9.66929 20.7514 10.612 20.75 11.7737 20.75V19.25ZM5.52864 14.3244C5.65162 15.4678 5.7503 16.5997 5.9184 17.5175C6.00334 17.9812 6.1113 18.4233 6.26253 18.8099C6.41227 19.1927 6.62265 19.5689 6.9402 19.8531L7.94061 18.7355C7.86395 18.6669 7.76293 18.528 7.65946 18.2635C7.55748 18.0028 7.47042 17.6653 7.39386 17.2473C7.23897 16.4016 7.14883 15.3614 7.02004 14.164L5.52864 14.3244ZM18.3406 14.164C18.2118 15.3614 18.1217 16.4016 17.9668 17.2473C17.8903 17.6653 17.8032 18.0028 17.7012 18.2635C17.5977 18.528 17.4967 18.6669 17.4201 18.7355L18.4205 19.8531C18.738 19.5689 18.9484 19.1927 19.0981 18.8099C19.2494 18.4233 19.3573 17.9812 19.4423 17.5175C19.6104 16.5997 19.7091 15.4678 19.832 14.3244L18.3406 14.164ZM13.587 20.75C14.7487 20.75 15.6914 20.7514 16.4394 20.6557C17.2083 20.5573 17.8695 20.3463 18.4205 19.8531L17.4201 18.7355C17.1827 18.948 16.8588 19.0898 16.249 19.1679C15.6183 19.2486 14.7885 19.25 13.587 19.25V20.75ZM11.7637 6.66667C11.7637 6.16041 12.1741 5.75 12.6803 5.75V4.25C11.3457 4.25 10.2637 5.33198 10.2637 6.66667H11.7637ZM12.6803 5.75C13.1866 5.75 13.597 6.16041 13.597 6.66667H15.097C15.097 5.33198 14.015 4.25 12.6803 4.25V5.75ZM19.847 10C19.847 10.2761 19.6231 10.5 19.347 10.5V12C20.4516 12 21.347 11.1046 21.347 10H19.847ZM18.847 10C18.847 9.72386 19.0709 9.5 19.347 9.5V8C18.2424 8 17.347 8.89543 17.347 10H18.847ZM19.347 9.5C19.6231 9.5 19.847 9.72386 19.847 10H21.347C21.347 8.89543 20.4516 8 19.347 8V9.5ZM6.01367 10.5C5.73753 10.5 5.51367 10.2761 5.51367 10H4.01367C4.01367 11.1046 4.9091 12 6.01367 12V10.5ZM5.51367 10C5.51367 9.72386 5.73753 9.5 6.01367 9.5V8C4.9091 8 4.01367 8.89543 4.01367 10H5.51367ZM6.01367 9.5C6.28981 9.5 6.51367 9.72386 6.51367 10H8.01367C8.01367 8.89543 7.11824 8 6.01367 8V9.5ZM19.347 10.5C19.345 10.5 19.3429 10.5 19.3409 10.5L19.3236 11.9999C19.3314 12 19.3392 12 19.347 12V10.5ZM19.9848 12.9039C20.0251 12.5298 20.0607 12.1998 20.0802 11.9238C20.0993 11.6546 20.1074 11.3874 20.0756 11.1503L18.5889 11.3495C18.5994 11.4278 18.6016 11.5685 18.584 11.8178C18.5668 12.0604 18.5347 12.3597 18.4934 12.7435L19.9848 12.9039ZM19.3409 10.5C19.1925 10.4982 19.0599 10.4325 18.9683 10.3265L17.8332 11.3071C18.194 11.7247 18.7276 11.993 19.3236 11.9999L19.3409 10.5ZM18.9683 10.3265C18.8922 10.2385 18.847 10.1255 18.847 10H17.347C17.347 10.499 17.5307 10.9569 17.8332 11.3071L18.9683 10.3265ZM17.7684 12.4023C18.3389 11.834 18.6168 11.5648 18.7947 11.455L18.0068 10.1786C17.6412 10.4042 17.2087 10.8426 16.7098 11.3396L17.7684 12.4023ZM6.51367 10C6.51367 10.1254 6.46844 10.2385 6.39241 10.3265L7.52749 11.3071C7.82997 10.9569 8.01367 10.499 8.01367 10H6.51367ZM8.65088 11.3396C8.15199 10.8426 7.71944 10.4042 7.35388 10.1786L6.56601 11.455C6.74385 11.5648 7.02176 11.834 7.59229 12.4023L8.65088 11.3396ZM6.39241 10.3265C6.30077 10.4325 6.1682 10.4982 6.01975 10.5L6.03711 11.9999C6.63304 11.993 7.16667 11.7247 7.52749 11.3071L6.39241 10.3265ZM6.01975 10.5C6.01773 10.5 6.0157 10.5 6.01367 10.5V12C6.0215 12 6.02931 12 6.03711 11.9999L6.01975 10.5ZM6.86724 12.7435C6.82596 12.3597 6.79389 12.0604 6.7767 11.8178C6.75903 11.5685 6.76131 11.4278 6.77179 11.3495L5.28507 11.1503C5.25331 11.3874 5.26138 11.6546 5.28045 11.9238C5.3 12.1998 5.3356 12.5298 5.37584 12.9039L6.86724 12.7435ZM13.597 6.66667C13.597 7.02207 13.3949 7.33158 13.0959 7.48413L13.7776 8.82028C14.5591 8.42154 15.097 7.60757 15.097 6.66667H13.597ZM13.0959 7.48413C12.972 7.54734 12.8315 7.58333 12.6803 7.58333V9.08333C13.0739 9.08333 13.4475 8.9887 13.7776 8.82028L13.0959 7.48413ZM14.5441 8.57251C14.3727 8.26523 14.2165 7.98486 14.0728 7.75476L12.8007 8.54966C12.9203 8.74113 13.0563 8.98451 13.234 9.30315L14.5441 8.57251ZM12.6803 7.58333C12.5292 7.58333 12.3887 7.54734 12.2648 7.48413L11.5831 8.82028C11.9132 8.9887 12.2868 9.08333 12.6803 9.08333V7.58333ZM12.2648 7.48413C11.9658 7.33158 11.7637 7.02207 11.7637 6.66667H10.2637C10.2637 7.60757 10.8015 8.42154 11.5831 8.82028L12.2648 7.48413ZM12.1266 9.30315C12.3044 8.98451 12.4403 8.74113 12.56 8.54966L11.2879 7.75476C11.1441 7.98486 10.988 8.26523 10.8166 8.57252L12.1266 9.30315Z" fill="black"/>
<path d="M6.84668 17.0833H18.5133" stroke="black" stroke-width="1.5" stroke-linecap="round"/>
</svg>
