<svg width="26" height="25" viewBox="0 0 26 25" fill="none" xmlns="http://www.w3.org/2000/svg">
<path d="M19.2372 12.8239L18.4915 12.7437L18.4915 12.7437L19.2372 12.8239ZM19.0844 14.2445L19.8301 14.3247L19.8301 14.3247L19.0844 14.2445ZM6.27239 14.2445L5.52669 14.3247L6.27239 14.2445ZM6.11959 12.8239L6.86529 12.7437L6.11959 12.8239ZM9.97843 11.6119L10.6334 11.9772L10.6334 11.9772L9.97843 11.6119ZM11.4697 8.93808L10.8147 8.57276L10.8147 8.57276L11.4697 8.93808ZM13.8871 8.93808L13.2321 9.30339L13.2321 9.30339L13.8871 8.93808ZM15.3783 11.6119L16.0334 11.2466L16.0334 11.2466L15.3783 11.6119ZM16.0149 12.4662L15.7126 13.1526L15.7126 13.1526L16.0149 12.4662ZM17.2371 11.8712L16.7078 11.3398L16.7078 11.3398L17.2371 11.8712ZM16.3895 12.5185L16.2867 11.7755L16.2867 11.7755L16.3895 12.5185ZM8.11963 11.8712L7.59034 12.4026L8.11963 11.8712ZM8.9673 12.5185L9.07003 11.7755L9.07003 11.7755L8.9673 12.5185ZM9.34189 12.4662L9.64414 13.1526L9.64414 13.1526L9.34189 12.4662ZM7.43845 19.2945L7.93865 18.7357L7.93865 18.7357L7.43845 19.2945ZM17.9183 19.2945L17.4181 18.7357L17.4181 18.7357L17.9183 19.2945ZM18.3988 10.817L18.9663 10.3267L18.3988 10.817ZM13.4348 8.15245L13.0939 7.48438L13.4348 8.15245ZM11.922 8.15245L12.2628 7.48438L12.2628 7.48438L11.922 8.15245ZM18.4915 12.7437L18.3387 14.1643L19.8301 14.3247L19.9829 12.9041L18.4915 12.7437ZM13.585 19.2502H11.7718V20.7502H13.585V19.2502ZM7.01809 14.1643L6.86529 12.7437L5.37389 12.9041L5.52669 14.3247L7.01809 14.1643ZM10.6334 11.9772L12.1247 9.30339L10.8147 8.57276L9.32342 11.2466L10.6334 11.9772ZM13.2321 9.30339L14.7233 11.9772L16.0334 11.2466L14.5421 8.57276L13.2321 9.30339ZM14.7233 11.9772C14.8568 12.2165 14.9845 12.4474 15.1093 12.6252C15.2384 12.8091 15.4234 13.0253 15.7126 13.1526L16.3171 11.7798C16.3942 11.8137 16.4023 11.8564 16.3369 11.7632C16.2673 11.6641 16.1828 11.5145 16.0334 11.2466L14.7233 11.9772ZM16.7078 11.3398C16.4903 11.5565 16.3677 11.6773 16.2733 11.7537C16.1845 11.8255 16.2038 11.787 16.2867 11.7755L16.4922 13.2614C16.805 13.2182 17.0421 13.0612 17.2167 12.9199C17.3857 12.7831 17.572 12.5962 17.7664 12.4026L16.7078 11.3398ZM15.7126 13.1526C15.9574 13.2604 16.2273 13.298 16.4922 13.2614L16.2867 11.7755C16.297 11.7741 16.3075 11.7756 16.3171 11.7798L15.7126 13.1526ZM7.59034 12.4026C7.78473 12.5962 7.97105 12.7831 8.14005 12.9199C8.3147 13.0612 8.55181 13.2182 8.86457 13.2614L9.07003 11.7755C9.15302 11.787 9.17226 11.8255 9.0835 11.7537C8.98909 11.6773 8.86647 11.5565 8.64893 11.3398L7.59034 12.4026ZM9.32342 11.2466C9.17399 11.5145 9.08947 11.6641 9.01984 11.7632C8.95443 11.8564 8.96261 11.8137 9.03964 11.7798L9.64414 13.1526C9.93334 13.0253 10.1183 12.8091 10.2474 12.6252C10.3723 12.4474 10.5 12.2165 10.6334 11.9772L9.32342 11.2466ZM8.86457 13.2614C9.12943 13.298 9.39936 13.2604 9.64414 13.1526L9.03964 11.7798C9.04931 11.7756 9.0598 11.7741 9.07003 11.7755L8.86457 13.2614ZM11.7718 19.2502C10.5702 19.2502 9.74047 19.2488 9.10973 19.1681C8.49993 19.0901 8.17604 18.9482 7.93865 18.7357L6.93824 19.8534C7.48927 20.3466 8.1504 20.5576 8.91934 20.656C9.66734 20.7517 10.61 20.7502 11.7718 20.7502V19.2502ZM5.52669 14.3247C5.64967 15.468 5.74835 16.6 5.91645 17.5178C6.00138 17.9815 6.10935 18.4235 6.26058 18.8101C6.41032 19.1929 6.62069 19.5691 6.93824 19.8534L7.93865 18.7357C7.862 18.6671 7.76098 18.5282 7.65751 18.2637C7.55553 18.003 7.46846 17.6655 7.3919 17.2475C7.23702 16.4019 7.14687 15.3616 7.01809 14.1643L5.52669 14.3247ZM18.3387 14.1643C18.2099 15.3616 18.1198 16.4019 17.9649 17.2475C17.8883 17.6655 17.8012 18.003 17.6993 18.2637C17.5958 18.5282 17.4948 18.6671 17.4181 18.7357L18.4185 19.8534C18.7361 19.5691 18.9464 19.1929 19.0962 18.8101C19.2474 18.4235 19.3554 17.9815 19.4403 17.5178C19.6084 16.6 19.7071 15.468 19.8301 14.3247L18.3387 14.1643ZM13.585 20.7502C14.7467 20.7502 15.6894 20.7517 16.4374 20.656C17.2064 20.5576 17.8675 20.3466 18.4185 19.8534L17.4181 18.7357C17.1807 18.9482 16.8568 19.0901 16.247 19.1681C15.6163 19.2488 14.7865 19.2502 13.585 19.2502V20.7502ZM11.7617 6.66691C11.7617 6.16065 12.1721 5.75024 12.6784 5.75024V4.25024C11.3437 4.25024 10.2617 5.33222 10.2617 6.66691H11.7617ZM12.6784 5.75024C13.1846 5.75024 13.5951 6.16065 13.5951 6.66691H15.0951C15.0951 5.33222 14.0131 4.25024 12.6784 4.25024V5.75024ZM19.8451 10.0002C19.8451 10.2764 19.6212 10.5002 19.3451 10.5002V12.0002C20.4496 12.0002 21.3451 11.1048 21.3451 10.0002H19.8451ZM18.8451 10.0002C18.8451 9.7241 19.0689 9.50024 19.3451 9.50024V8.00024C18.2405 8.00024 17.3451 8.89567 17.3451 10.0002H18.8451ZM19.3451 9.50024C19.6212 9.50024 19.8451 9.7241 19.8451 10.0002H21.3451C21.3451 8.89567 20.4496 8.00024 19.3451 8.00024V9.50024ZM6.01172 10.5002C5.73558 10.5002 5.51172 10.2764 5.51172 10.0002H4.01172C4.01172 11.1048 4.90715 12.0002 6.01172 12.0002V10.5002ZM5.51172 10.0002C5.51172 9.7241 5.73558 9.50024 6.01172 9.50024V8.00024C4.90715 8.00024 4.01172 8.89567 4.01172 10.0002H5.51172ZM6.01172 9.50024C6.28786 9.50024 6.51172 9.7241 6.51172 10.0002H8.01172C8.01172 8.89567 7.11629 8.00024 6.01172 8.00024V9.50024ZM19.3451 10.5002C19.343 10.5002 19.341 10.5002 19.339 10.5002L19.3216 12.0001C19.3294 12.0002 19.3372 12.0002 19.3451 12.0002V10.5002ZM19.9829 12.9041C20.0231 12.53 20.0587 12.2 20.0783 11.9241C20.0973 11.6549 20.1054 11.3876 20.0736 11.1506L18.5869 11.3497C18.5974 11.428 18.5997 11.5687 18.582 11.8181C18.5648 12.0607 18.5328 12.3599 18.4915 12.7437L19.9829 12.9041ZM19.339 10.5002C19.1905 10.4985 19.058 10.4328 18.9663 10.3267L17.8312 11.3073C18.1921 11.725 18.7257 11.9932 19.3216 12.0001L19.339 10.5002ZM18.9663 10.3267C18.8903 10.2387 18.8451 10.1257 18.8451 10.0002H17.3451C17.3451 10.4992 17.5288 10.9572 17.8312 11.3073L18.9663 10.3267ZM17.7664 12.4026C18.337 11.8343 18.6149 11.565 18.7927 11.4552L18.0048 10.1788C17.6393 10.4044 17.2067 10.8429 16.7078 11.3398L17.7664 12.4026ZM6.51172 10.0002C6.51172 10.1257 6.46649 10.2387 6.39045 10.3267L7.52553 11.3073C7.82801 10.9572 8.01172 10.4992 8.01172 10.0002H6.51172ZM8.64893 11.3398C8.15004 10.8429 7.71748 10.4044 7.35193 10.1788L6.56406 11.4552C6.7419 11.565 7.01981 11.8343 7.59034 12.4026L8.64893 11.3398ZM6.39045 10.3267C6.29881 10.4328 6.16625 10.4985 6.0178 10.5002L6.03516 12.0001C6.63109 11.9932 7.16472 11.725 7.52553 11.3073L6.39045 10.3267ZM6.0178 10.5002C6.01577 10.5002 6.01375 10.5002 6.01172 10.5002V12.0002C6.01955 12.0002 6.02736 12.0002 6.03516 12.0001L6.0178 10.5002ZM6.86529 12.7437C6.82401 12.3599 6.79193 12.0607 6.77475 11.8181C6.75708 11.5687 6.75935 11.428 6.76984 11.3497L5.28312 11.1506C5.25136 11.3876 5.25942 11.6549 5.2785 11.9241C5.29804 12.2 5.33365 12.53 5.37389 12.9041L6.86529 12.7437ZM13.5951 6.66691C13.5951 7.02232 13.393 7.33182 13.0939 7.48438L13.7756 8.82053C14.5572 8.42178 15.0951 7.60781 15.0951 6.66691H13.5951ZM13.0939 7.48438C12.97 7.54759 12.8295 7.58358 12.6784 7.58358V9.08358C13.0719 9.08358 13.4455 8.98894 13.7756 8.82053L13.0939 7.48438ZM14.5421 8.57276C14.3707 8.26547 14.2146 7.9851 14.0708 7.755L12.7987 8.5499C12.9184 8.74137 13.0544 8.98475 13.2321 9.30339L14.5421 8.57276ZM12.6784 7.58358C12.5273 7.58358 12.3867 7.54759 12.2628 7.48438L11.5812 8.82053C11.9113 8.98894 12.2849 9.08358 12.6784 9.08358V7.58358ZM12.2628 7.48438C11.9638 7.33182 11.7617 7.02232 11.7617 6.66691H10.2617C10.2617 7.60781 10.7996 8.42179 11.5812 8.82053L12.2628 7.48438ZM12.1247 9.30339C12.3024 8.98475 12.4384 8.74137 12.558 8.5499L11.286 7.755C11.1422 7.9851 10.986 8.26547 10.8147 8.57276L12.1247 9.30339Z" fill="black"/>
<path d="M6.84668 17.0833H18.5133" stroke="black" stroke-width="1.5" stroke-linecap="round"/>
</svg>
