<svg width="29" height="27" viewBox="0 0 29 27" fill="none" xmlns="http://www.w3.org/2000/svg">
<path fill-rule="evenodd" clip-rule="evenodd" d="M12.7299 0.0806043C9.98882 0.415672 7.44879 1.63855 5.50995 3.55656C3.44631 5.59802 2.17216 8.32651 1.93818 11.2052L1.89931 11.6839L1.57667 11.8809C0.928526 12.2767 0.421245 12.9894 0.263322 13.7263C0.150959 14.2509 0.15213 17.5787 0.264939 18.1051C0.492287 19.1666 1.40921 20.0855 2.45533 20.3004C3.4535 20.5053 4.31337 20.1421 4.74738 19.3322L4.89515 19.0563V15.912V12.7676L4.74677 12.4896C4.58979 12.1953 4.2096 11.8128 3.93407 11.6719C3.84323 11.6254 3.65107 11.558 3.50714 11.5222L3.24545 11.457L3.27863 11.2021C3.50519 9.46074 3.76265 8.57839 4.4273 7.26564C5.98098 4.19685 8.95156 2.03943 12.4265 1.45607C13.1448 1.33548 14.5361 1.29438 15.2672 1.37217C18.6232 1.72908 21.5192 3.47243 23.3379 6.23065C24.2122 7.55636 24.8038 9.11138 24.9962 10.5886C25.1243 11.5728 25.1437 11.4496 24.8497 11.5228C24.7073 11.5584 24.5163 11.6254 24.4255 11.6719C24.15 11.8128 23.7698 12.1953 23.6128 12.4896L23.4644 12.7676V15.912V19.0563L23.6128 19.3344C23.7698 19.6286 24.15 20.0111 24.4255 20.1521C24.5163 20.1986 24.7074 20.2657 24.8501 20.3012L25.1094 20.3658V21.2027C25.1094 22.1263 25.0409 22.5011 24.787 22.9667C24.5693 23.3657 24.0785 23.8395 23.6732 24.0419C23.1085 24.3239 22.7617 24.378 21.5127 24.3788L20.3974 24.3794L20.2357 24.0731C20.0365 23.696 19.606 23.3142 19.1985 23.153C18.9101 23.0389 18.8053 23.0317 17.442 23.0317C16.0457 23.0317 15.9797 23.0366 15.6575 23.163C15.1918 23.3458 14.6899 23.8453 14.5182 24.297C14.3382 24.7701 14.3707 25.4911 14.5912 25.9154C14.794 26.3054 15.1424 26.6415 15.549 26.839L15.8806 27H17.442H19.0033L19.3211 26.8456C19.6889 26.667 20.0782 26.2985 20.2627 25.9545L20.3913 25.7147L21.7327 25.6895C23.2377 25.6613 23.449 25.6248 24.1893 25.2652C24.998 24.8725 25.6427 24.2362 26.0357 23.4428C26.3732 22.7616 26.407 22.5805 26.4339 21.3088L26.4587 20.141L26.7762 19.9472C27.4376 19.5433 27.9362 18.8449 28.0963 18.0977C28.2075 17.5784 28.2075 14.2456 28.0963 13.7263C27.9386 12.9907 27.4311 12.2767 26.7859 11.8827L26.4661 11.6874L26.3996 11.0139C26.1473 8.45758 25.203 6.24896 23.5053 4.24413C21.8211 2.25529 19.2712 0.76409 16.6707 0.2472C15.3838 -0.00859635 13.9542 -0.0690012 12.7299 0.0806043ZM9.46715 6.45219C8.35489 6.60053 7.45504 7.37101 7.11661 8.4648C7.02209 8.77014 7.01417 9.04999 7.01417 12.0781C7.01417 15.3235 7.01556 15.3648 7.13902 15.7531C7.46976 16.7934 8.36549 17.5497 9.45706 17.7103L9.88599 17.7734V18.5566C9.88599 19.4797 9.96423 19.8135 10.2551 20.1321C10.6599 20.5753 11.3148 20.717 11.8377 20.4745C12.0083 20.3953 12.5171 19.9426 13.427 19.0604L14.7653 17.7626L16.6891 17.7609C17.7473 17.7599 18.7761 17.734 18.9755 17.7032C19.4121 17.6359 20.0231 17.3488 20.3795 17.0437C20.7355 16.7389 21.0706 16.2247 21.2205 15.7531C21.344 15.3648 21.3454 15.3235 21.3454 12.0781C21.3454 9.04999 21.3375 8.77014 21.243 8.4648C20.9593 7.54803 20.2791 6.85097 19.3742 6.54944L19.0033 6.42593L14.4028 6.41672C11.8726 6.41164 9.65151 6.42759 9.46715 6.45219ZM19.087 7.86307C19.461 8.03507 19.6768 8.24089 19.8509 8.59146L20.0071 8.90612V12.0781C20.0071 15.1806 20.0045 15.2555 19.8904 15.4982C19.7226 15.8553 19.5035 16.0892 19.1773 16.2595L18.8918 16.4085L16.5442 16.436L14.1965 16.4636L12.7598 17.8565C11.9696 18.6226 11.3008 19.2494 11.2737 19.2494C11.2465 19.2494 11.2243 18.7269 11.2243 18.0882C11.2243 16.4859 11.2118 16.4672 10.109 16.4248C9.59792 16.4051 9.4212 16.3763 9.23824 16.2828C8.87333 16.0963 8.67637 15.9024 8.50869 15.5647L8.3525 15.25V12.1056C8.3525 9.66429 8.36872 8.91599 8.42504 8.75877C8.60098 8.26787 9.05054 7.8794 9.55961 7.77845C9.69311 7.75197 11.8349 7.73421 14.3192 7.73901C18.7757 7.74756 18.8394 7.74921 19.087 7.86307ZM10.655 11.2499C10.2534 11.3698 9.94421 11.7779 9.94421 12.1884C9.94421 12.6326 10.3054 13.0595 10.7596 13.1521C11.1291 13.2274 11.6278 12.9781 11.8118 12.6259C11.9168 12.425 11.9168 11.9517 11.8118 11.7509C11.6989 11.5348 11.4277 11.3209 11.1808 11.253C10.9431 11.1877 10.8653 11.1873 10.655 11.2499ZM13.856 11.2699C13.5817 11.3683 13.3115 11.6586 13.2315 11.9411C13.0365 12.6302 13.7309 13.3318 14.409 13.1309C14.947 12.9714 15.2689 12.4389 15.128 11.9411C15.0145 11.5398 14.5823 11.2038 14.1798 11.2038C14.1031 11.2038 13.9574 11.2336 13.856 11.2699ZM17.116 11.2734C16.8699 11.3631 16.6575 11.5432 16.5444 11.7581C16.4423 11.9523 16.4441 12.4276 16.5477 12.6259C16.7318 12.9781 17.2305 13.2274 17.6 13.1521C18.0425 13.0619 18.4194 12.6154 18.4166 12.1848C18.4124 11.5365 17.7219 11.0526 17.116 11.2734ZM3.41313 12.938L3.58471 13.0808V15.9094V18.7379L3.43772 18.8833C3.12249 19.1951 2.37046 19.007 1.92335 18.5046C1.54187 18.0759 1.52146 17.9442 1.52146 15.912C1.52146 13.8853 1.54259 13.7473 1.91794 13.3255C2.37386 12.8131 3.05195 12.6373 3.41313 12.938ZM25.9826 12.951C26.303 13.1127 26.6544 13.527 26.7547 13.8614C26.8212 14.0827 26.8381 14.4992 26.8381 15.912C26.8381 17.9442 26.8177 18.0759 26.4362 18.5046C25.9891 19.007 25.2371 19.1951 24.9219 18.8833L24.7749 18.7379V15.912V13.0861L24.9282 12.9343C25.0696 12.7942 25.1077 12.7845 25.4178 12.809C25.6027 12.8237 25.8568 12.8876 25.9826 12.951ZM18.9531 24.5673C19.1078 24.7203 19.1427 24.797 19.1427 24.9837C19.1427 25.2755 19.0183 25.5134 18.81 25.62C18.5764 25.7394 16.3136 25.7426 16.0813 25.6237C15.8544 25.5076 15.7412 25.3036 15.7412 25.0105C15.7412 24.7933 15.7697 24.7266 15.9308 24.5673L16.1204 24.3797H17.442H18.7636L18.9531 24.5673Z" fill="black"/>
</svg>
