<svg width="26" height="25" viewBox="0 0 26 25" fill="none" xmlns="http://www.w3.org/2000/svg">
<path d="M8.81442 15.254C8.92472 15.6533 9.3378 15.8875 9.73706 15.7772C10.1363 15.6669 10.3706 15.2538 10.2603 14.8546L8.81442 15.254ZM7.74379 8.56218L8.46671 8.36246L8.46671 8.36246L7.74379 8.56218ZM6.59944 7.43346L6.39892 8.15616L6.39892 8.15616L6.59944 7.43346ZM5.3802 6.31685C4.98106 6.20611 4.56773 6.4399 4.45699 6.83904C4.34625 7.23818 4.58004 7.65151 4.97918 7.76225L5.3802 6.31685ZM19.535 15.7257C19.9359 15.6215 20.1764 15.212 20.0722 14.8111C19.9681 14.4103 19.5586 14.1697 19.1577 14.2739L19.535 15.7257ZM11.0573 17.1658C11.2959 18.0294 10.7736 18.9475 9.83482 19.1914L10.2121 20.6432C11.9241 20.1983 12.9749 18.4738 12.5032 16.7664L11.0573 17.1658ZM9.83482 19.1914C8.88817 19.4375 7.9447 18.8867 7.70351 18.0137L6.25768 18.4131C6.72676 20.1111 8.50797 21.0861 10.2121 20.6432L9.83482 19.1914ZM7.70351 18.0137C7.46494 17.1501 7.98723 16.232 8.92604 15.9881L8.54875 14.5363C6.83678 14.9812 5.78598 16.7057 6.25768 18.4131L7.70351 18.0137ZM8.92604 15.9881C9.87269 15.742 10.8162 16.2928 11.0573 17.1658L12.5032 16.7664C12.0341 15.0684 10.2529 14.0934 8.54875 14.5363L8.92604 15.9881ZM10.2603 14.8546L8.46671 8.36246L7.02087 8.7619L8.81442 15.254L10.2603 14.8546ZM6.79995 6.71076L5.3802 6.31685L4.97918 7.76225L6.39892 8.15616L6.79995 6.71076ZM8.46671 8.36246C8.2437 7.55524 7.60496 6.93411 6.79995 6.71076L6.39892 8.15616C6.71265 8.2432 6.94271 8.479 7.02087 8.7619L8.46671 8.36246ZM11.9689 17.692L19.535 15.7257L19.1577 14.2739L11.5916 16.2402L11.9689 17.692Z" fill="black"/>
<path d="M10.6507 9.77541C10.2465 8.31244 10.0444 7.58095 10.3875 7.00468C10.7305 6.42841 11.4847 6.23241 12.9931 5.84041L14.593 5.42462C16.1014 5.03262 16.8556 4.83662 17.4497 5.16933C18.0439 5.50204 18.246 6.23352 18.6501 7.6965L19.0788 9.24822C19.483 10.7112 19.6851 11.4427 19.3421 12.019C18.999 12.5952 18.2448 12.7912 16.7364 13.1832L15.1365 13.599C13.6282 13.991 12.874 14.187 12.2798 13.8543C11.6856 13.5216 11.4836 12.7901 11.0794 11.3271L10.6507 9.77541Z" stroke="black" stroke-width="1.5"/>
</svg>
