<svg width="26" height="25" viewBox="0 0 26 25" fill="none" xmlns="http://www.w3.org/2000/svg">
<path d="M12.5659 13.8176C14.8648 13.8176 16.7284 11.9498 16.7284 9.64569C16.7284 7.35965 15.3999 4.69206 13.3271 3.73811C13.0855 3.62692 12.8257 3.57132 12.5659 3.57132M12.5659 13.8176C10.267 13.8176 8.40332 11.9498 8.40332 9.64569C8.40332 7.35965 9.73187 4.69206 11.8047 3.73811C12.0463 3.62692 12.3061 3.57132 12.5659 3.57132M12.5659 13.8176V3.57132" stroke="black" stroke-width="1.5"/>
<path d="M14.0209 18.9736C15.3387 20.6464 17.8426 20.8716 19.6136 19.4766C21.3706 18.0924 22.6594 15.5105 22.2044 13.4246C22.1514 13.1814 22.0452 12.9587 21.8963 12.7697M14.0209 18.9736C12.7031 17.3007 13.0704 14.8136 14.8413 13.4186C16.5984 12.0344 19.4103 11.386 21.3317 12.3168C21.5557 12.4253 21.7473 12.5806 21.8963 12.7697M14.0209 18.9736L21.8963 12.7697" stroke="black" stroke-width="1.5"/>
<path d="M11.4238 19.4163C12.9297 17.9104 12.8581 15.3974 11.264 13.8033C9.68234 12.2216 6.9665 11.2462 4.94875 11.944C4.71357 12.0253 4.50493 12.157 4.33476 12.3272M11.4238 19.4163C9.91799 20.9221 7.40497 20.8505 5.81085 19.2564C4.22921 17.6748 3.25382 14.9589 3.95156 12.9412C4.03288 12.706 4.16459 12.4974 4.33476 12.3272M11.4238 19.4163L4.33476 12.3272" stroke="black" stroke-width="1.5"/>
</svg>
