<svg width="26" height="25" viewBox="0 0 26 25" fill="none" xmlns="http://www.w3.org/2000/svg">
<path d="M4.3457 12.5003C4.3457 8.57195 4.3457 6.60777 5.56609 5.38738C6.78648 4.16699 8.75067 4.16699 12.679 4.16699C16.6074 4.16699 18.5716 4.16699 19.792 5.38738C21.0124 6.60777 21.0124 8.57195 21.0124 12.5003C21.0124 16.4287 21.0124 18.3929 19.792 19.6133C18.5716 20.8337 16.6074 20.8337 12.679 20.8337C8.75067 20.8337 6.78648 20.8337 5.56609 19.6133C4.3457 18.3929 4.3457 16.4287 4.3457 12.5003Z" stroke="black" stroke-width="1.5"/>
<circle cx="16.0124" cy="9.16667" r="1.66667" stroke="black" stroke-width="1.5"/>
<path d="M4.3457 12.9165L5.80536 11.6393C6.56475 10.9748 7.70927 11.0129 8.42277 11.7264L11.9975 15.3012C12.5702 15.8739 13.4717 15.952 14.1344 15.4863L14.3829 15.3116C15.3364 14.6415 16.6265 14.7192 17.4928 15.4988L20.179 17.9165" stroke="black" stroke-width="1.5" stroke-linecap="round"/>
</svg>
