<svg width="27" height="29" viewBox="0 0 27 29" fill="none" xmlns="http://www.w3.org/2000/svg">
<path d="M24.1679 11.5232H3.11523V22.0495C3.11523 25.9969 4.43102 27.3127 8.37839 27.3127H18.9047C22.8521 27.3127 24.1679 25.9969 24.1679 22.0495V11.5232Z" stroke="black" stroke-width="1.5" stroke-linecap="round" stroke-linejoin="round"/>
<path d="M26.1797 7.57591V8.8917C26.1797 10.3391 25.4823 11.5233 23.5481 11.5233H3.81127C1.79811 11.5233 1.17969 10.3391 1.17969 8.8917V7.57591C1.17969 6.12855 1.79811 4.94434 3.81127 4.94434H23.5481C25.4823 4.94434 26.1797 6.12855 26.1797 7.57591Z" stroke="black" stroke-width="1.5" stroke-linecap="round" stroke-linejoin="round"/>
<path d="M13.2063 4.94408H5.94313C5.49576 4.45724 5.50892 3.70724 5.9826 3.23355L7.85102 1.36513C8.33786 0.878289 9.1405 0.878289 9.62734 1.36513L13.2063 4.94408Z" stroke="black" stroke-width="1.5" stroke-linecap="round" stroke-linejoin="round"/>
<path d="M21.4018 4.94408H14.1387L17.7176 1.36513C18.2045 0.878289 19.0071 0.878289 19.4939 1.36513L21.3624 3.23355C21.836 3.70724 21.8492 4.45724 21.4018 4.94408Z" stroke="black" stroke-width="1.5" stroke-linecap="round" stroke-linejoin="round"/>
<path d="M9.65332 11.5232V18.2864C9.65332 19.339 10.8112 19.9574 11.6928 19.3916L12.9296 18.5758C13.377 18.2864 13.9428 18.2864 14.377 18.5758L15.5481 19.3653C16.4165 19.9442 17.5875 19.3258 17.5875 18.2732V11.5232H9.65332Z" stroke="black" stroke-width="1.5" stroke-linecap="round" stroke-linejoin="round"/>
</svg>
