<svg width="41" height="40" viewBox="0 0 41 40" fill="none" xmlns="http://www.w3.org/2000/svg">
<path d="M18.6617 8.48455C19.3372 7.27268 19.675 6.66675 20.18 6.66675C20.685 6.66675 21.0228 7.27268 21.6983 8.48455L21.8731 8.79807C22.0651 9.14245 22.1611 9.31463 22.3107 9.42825C22.4604 9.54186 22.6468 9.58403 23.0195 9.66837L23.3589 9.74516C24.6708 10.042 25.3267 10.1904 25.4827 10.6922C25.6388 11.194 25.1916 11.7169 24.2973 12.7627L24.0659 13.0333C23.8118 13.3304 23.6847 13.479 23.6276 13.6629C23.5704 13.8467 23.5896 14.0449 23.628 14.4414L23.663 14.8024C23.7982 16.1977 23.8658 16.8954 23.4573 17.2055C23.0487 17.5157 22.4346 17.2329 21.2063 16.6674L20.8886 16.5211C20.5395 16.3604 20.365 16.28 20.18 16.28C19.995 16.28 19.8205 16.3604 19.4715 16.5211L19.1537 16.6674C17.9254 17.2329 17.3113 17.5157 16.9028 17.2055C16.4942 16.8954 16.5618 16.1977 16.697 14.8024L16.732 14.4414C16.7704 14.0449 16.7896 13.8467 16.7325 13.6629C16.6753 13.479 16.5482 13.3304 16.2941 13.0333L16.0627 12.7627C15.1684 11.7169 14.7213 11.194 14.8773 10.6922C15.0334 10.1904 15.6893 10.042 17.0011 9.74516L17.3405 9.66837C17.7133 9.58403 17.8997 9.54186 18.0493 9.42825C18.199 9.31463 18.295 9.14245 18.4869 8.79807L18.6617 8.48455Z" stroke="black" stroke-width="1.8"/>
<path d="M30.0872 14.2422C30.425 13.6362 30.5939 13.3333 30.8464 13.3333C31.0989 13.3333 31.2677 13.6362 31.6055 14.2422L31.6929 14.3989C31.7889 14.5711 31.8369 14.6572 31.9117 14.714C31.9865 14.7708 32.0797 14.7919 32.2661 14.8341L32.4358 14.8725C33.0917 15.0209 33.4197 15.0951 33.4977 15.346C33.5757 15.5969 33.3522 15.8583 32.905 16.3812L32.7893 16.5165C32.6622 16.6651 32.5987 16.7394 32.5701 16.8313C32.5415 16.9232 32.5511 17.0223 32.5704 17.2206L32.5878 17.4011C32.6555 18.0987 32.6893 18.4476 32.485 18.6026C32.2807 18.7577 31.9736 18.6163 31.3595 18.3336L31.2006 18.2604C31.0261 18.1801 30.9388 18.1399 30.8464 18.1399C30.7539 18.1399 30.6666 18.1801 30.4921 18.2604L30.3332 18.3336C29.7191 18.6163 29.412 18.7577 29.2077 18.6026C29.0035 18.4476 29.0373 18.0987 29.1049 17.4011L29.1223 17.2206C29.1416 17.0223 29.1512 16.9232 29.1226 16.8313C29.094 16.7394 29.0305 16.6651 28.9034 16.5165L28.7877 16.3812C28.3406 15.8583 28.117 15.5969 28.195 15.346C28.273 15.0951 28.601 15.0209 29.2569 14.8725L29.4266 14.8341C29.613 14.7919 29.7062 14.7708 29.781 14.714C29.8558 14.6572 29.9038 14.5711 29.9998 14.3989L30.0872 14.2422Z" stroke="black" stroke-width="1.8"/>
<path d="M8.75419 14.2422C9.09196 13.6362 9.26085 13.3333 9.51335 13.3333C9.76584 13.3333 9.93473 13.6362 10.2725 14.2422L10.3599 14.3989C10.4559 14.5711 10.5039 14.6572 10.5787 14.714C10.6535 14.7708 10.7467 14.7919 10.9331 14.8341L11.1028 14.8725C11.7587 15.0209 12.0867 15.0951 12.1647 15.346C12.2427 15.5969 12.0191 15.8583 11.572 16.3812L11.4563 16.5165C11.3292 16.6651 11.2657 16.7394 11.2371 16.8313C11.2085 16.9232 11.2181 17.0223 11.2374 17.2206L11.2548 17.4011C11.3224 18.0987 11.3562 18.4476 11.152 18.6026C10.9477 18.7577 10.6406 18.6163 10.0265 18.3336L9.86762 18.2604C9.6931 18.1801 9.60584 18.1399 9.51335 18.1399C9.42085 18.1399 9.33359 18.1801 9.15908 18.2604L9.00019 18.3336C8.38606 18.6163 8.07899 18.7577 7.87472 18.6026C7.67045 18.4476 7.70425 18.0987 7.77185 17.4011L7.78934 17.2206C7.80855 17.0223 7.81816 16.9232 7.78958 16.8313C7.76099 16.7394 7.69746 16.6651 7.57039 16.5165L7.45471 16.3812C7.00755 15.8583 6.78397 15.5969 6.86199 15.346C6.94002 15.0951 7.26797 15.0209 7.92389 14.8725L8.09358 14.8341C8.27997 14.7919 8.37317 14.7708 8.448 14.714C8.52283 14.6572 8.57082 14.5711 8.6668 14.3989L8.75419 14.2422Z" stroke="black" stroke-width="1.8"/>
<path d="M9.5127 32.5178H12.5259C13.8738 32.5178 15.2361 32.6583 16.5478 32.9285C18.8681 33.4065 21.3112 33.4645 23.6553 33.085C24.8111 32.8979 25.9474 32.6118 26.976 32.1154C27.9045 31.6672 29.0419 31.0355 29.8059 30.3279C30.5688 29.6213 31.3633 28.4649 31.9273 27.561C32.4108 26.7859 32.1769 25.8349 31.4121 25.2574C30.5624 24.6159 29.3017 24.616 28.4522 25.2577L26.0426 27.0779C25.1087 27.7833 24.0887 28.4327 22.8735 28.6265C22.7274 28.6499 22.5743 28.6711 22.4145 28.6896M22.4145 28.6896C22.3664 28.6952 22.3177 28.7005 22.2684 28.7055M22.4145 28.6896C22.6089 28.6479 22.8019 28.5281 22.983 28.37C23.8406 27.6215 23.8949 26.36 23.1508 25.5242C22.9781 25.3302 22.7761 25.1685 22.5514 25.0345C18.8217 22.8099 13.0186 24.5043 9.5127 26.9906M22.4145 28.6896C22.3658 28.7 22.3171 28.7055 22.2684 28.7055M22.2684 28.7055C21.5706 28.7772 20.7542 28.7957 19.8484 28.7102" stroke="black" stroke-width="1.8" stroke-linecap="round"/>
</svg>
