<svg width="26" height="22" viewBox="0 0 26 22" fill="none" xmlns="http://www.w3.org/2000/svg">
<path fill-rule="evenodd" clip-rule="evenodd" d="M5.26615 2.19759C3.33709 3.07936 1.92387 5.1767 1.92387 7.67771C1.92387 10.2328 2.96947 12.2023 4.46839 13.8901C5.70379 15.2812 7.19926 16.4341 8.65774 17.5585C9.00415 17.8256 9.34847 18.091 9.68672 18.3577C10.2984 18.8399 10.844 19.2631 11.3699 19.5704C11.8961 19.8779 12.3197 20.0183 12.6797 20.0183C13.0397 20.0183 13.4632 19.8779 13.9894 19.5704C14.5154 19.2631 15.061 18.8399 15.6727 18.3577C16.0109 18.091 16.3552 17.8256 16.7016 17.5585C18.1601 16.4341 19.6556 15.2812 20.891 13.8901C22.3899 12.2023 23.4355 10.2328 23.4355 7.67771C23.4355 5.1767 22.0223 3.07936 20.0932 2.19759C18.2191 1.34094 15.701 1.5678 13.308 4.05403C13.1436 4.22484 12.9168 4.32135 12.6797 4.32135C12.4426 4.32135 12.2158 4.22484 12.0514 4.05403C9.65836 1.5678 7.14023 1.34094 5.26615 2.19759ZM12.6797 2.23784C9.99125 -0.167473 6.98081 -0.503952 4.54104 0.611271C1.96424 1.78913 0.179688 4.52414 0.179688 7.67771C0.179688 10.7772 1.47096 13.1416 3.16424 15.0483C4.52024 16.5752 6.17995 17.8531 7.64576 18.9818C7.97804 19.2376 8.30036 19.4858 8.60692 19.7274C9.20254 20.197 9.84195 20.6977 10.4899 21.0763C11.1377 21.4548 11.8769 21.7625 12.6797 21.7625C13.4825 21.7625 14.2217 21.4548 14.8694 21.0763C15.5174 20.6977 16.1568 20.197 16.7525 19.7274C17.059 19.4858 17.3813 19.2376 17.7136 18.9818C19.1794 17.8531 20.8391 16.5752 22.1951 15.0483C23.8884 13.1416 25.1797 10.7772 25.1797 7.67771C25.1797 4.52414 23.3951 1.78913 20.8183 0.611271C18.3786 -0.503952 15.3681 -0.167473 12.6797 2.23784Z" fill="black"/>
</svg>
