<svg width="26" height="21" viewBox="0 0 26 21" fill="none" xmlns="http://www.w3.org/2000/svg">
<path fill-rule="evenodd" clip-rule="evenodd" d="M5.26615 2.12059C3.33709 2.97147 1.92387 4.99533 1.92387 7.40871C1.92387 9.8743 2.96947 11.7748 4.46839 13.4035C5.70379 14.7458 7.19926 15.8583 8.65774 16.9433C9.00415 17.2011 9.34847 17.4572 9.68672 17.7145C10.2984 18.1798 10.844 18.5882 11.3699 18.8847C11.8961 19.1814 12.3197 19.3169 12.6797 19.3169C13.0397 19.3169 13.4632 19.1814 13.9894 18.8847C14.5154 18.5882 15.061 18.1798 15.6727 17.7145C16.0109 17.4572 16.3552 17.2011 16.7016 16.9433C18.1601 15.8583 19.6556 14.7458 20.891 13.4035C22.3899 11.7748 23.4355 9.8743 23.4355 7.40871C23.4355 4.99533 22.0223 2.97147 20.0932 2.12059C18.2191 1.29396 15.701 1.51287 13.308 3.91199C13.1436 4.07682 12.9168 4.16995 12.6797 4.16995C12.4426 4.16995 12.2158 4.07682 12.0514 3.91199C9.65836 1.51287 7.14023 1.29396 5.26615 2.12059ZM12.6797 2.15944C9.99125 -0.161605 6.98081 -0.486296 4.54104 0.589854C1.96424 1.72645 0.179688 4.36563 0.179688 7.40871C0.179688 10.3996 1.47096 12.6812 3.16424 14.5211C4.52024 15.9945 6.17995 17.2276 7.64576 18.3167C7.97804 18.5636 8.30036 18.8031 8.60692 19.0363C9.20254 19.4894 9.84195 19.9725 10.4899 20.3379C11.1377 20.7031 11.8769 21 12.6797 21C13.4825 21 14.2217 20.7031 14.8694 20.3379C15.5174 19.9725 16.1568 19.4894 16.7525 19.0363C17.059 18.8031 17.3813 18.5636 17.7136 18.3167C19.1794 17.2276 20.8391 15.9945 22.1951 14.5211C23.8884 12.6812 25.1797 10.3996 25.1797 7.40871C25.1797 4.36563 23.3951 1.72645 20.8183 0.589854C18.3786 -0.486296 15.3681 -0.161605 12.6797 2.15944Z" fill="black"/>
</svg>
