<svg width="26" height="25" viewBox="0 0 26 25" fill="none" xmlns="http://www.w3.org/2000/svg">
<path d="M11.8076 19.4767C11.8076 19.9584 12.198 20.3488 12.6797 20.3488C13.1613 20.3488 13.5518 19.9584 13.5518 19.4767V15.9884C13.5518 15.5067 13.1613 15.1163 12.6797 15.1163C12.198 15.1163 11.8076 15.5067 11.8076 15.9884V19.4767Z" fill="black"/>
<path fill-rule="evenodd" clip-rule="evenodd" d="M12.6797 0C11.8563 0 11.1082 0.235837 10.2966 0.630512C9.51207 1.01203 8.60576 1.57452 7.47371 2.27712L5.07072 3.76849C3.99955 4.43327 3.14183 4.96558 2.48073 5.47187C1.79614 5.99615 1.27032 6.53011 0.890513 7.22399C0.511495 7.91642 0.340812 8.65319 0.258978 9.52407C0.179671 10.3681 0.179678 11.4001 0.179688 12.6945V14.5696C0.179672 16.7834 0.179659 18.5309 0.35725 19.8972C0.539423 21.2988 0.922202 22.4303 1.78708 23.3249C2.65595 24.2237 3.76161 24.6252 5.13039 24.8155C6.457 25 8.15127 25 10.2865 25H15.0728C17.208 25 18.9024 25 20.229 24.8155C21.5978 24.6252 22.7034 24.2237 23.5723 23.3249C24.4372 22.4303 24.82 21.2988 25.0021 19.8972C25.1797 18.5309 25.1797 16.7834 25.1797 14.5696V12.6944C25.1797 11.4002 25.1797 10.368 25.1004 9.52407C25.0186 8.65319 24.8479 7.91642 24.4689 7.22399C24.089 6.53011 23.5632 5.99615 22.8786 5.47187C22.2175 4.96559 21.3598 4.43328 20.2887 3.7685L17.8857 2.27711C16.7536 1.57452 15.8473 1.01203 15.0628 0.630511C14.2512 0.235837 13.5031 0 12.6797 0ZM8.35356 3.78386C9.53467 3.05082 10.3652 2.53667 11.0594 2.19906C11.7358 1.87015 12.2148 1.74419 12.6797 1.74419C13.1446 1.74419 13.6236 1.87015 14.3 2.19906C14.9942 2.53667 15.8247 3.05082 17.0058 3.78386L19.3314 5.22718C20.4486 5.92057 21.2331 6.40855 21.8182 6.85663C22.3874 7.29261 22.715 7.65239 22.9389 8.06146C23.1636 8.47197 23.2948 8.95192 23.3639 9.68725C23.4346 10.4402 23.4355 11.3905 23.4355 12.7371V14.5058C23.4355 16.7976 23.4338 18.4316 23.2725 19.6724C23.1141 20.8911 22.8157 21.5981 22.3183 22.1126C21.8249 22.623 21.1531 22.9261 19.9887 23.088C18.7962 23.2538 17.2233 23.2558 15.0053 23.2558H10.3541C8.13605 23.2558 6.56321 23.2538 5.37064 23.088C4.20627 22.9261 3.5345 22.623 3.04107 22.1126C2.54365 21.5981 2.24529 20.8911 2.08689 19.6724C1.92561 18.4316 1.92387 16.7976 1.92387 14.5058V12.7371C1.92387 11.3905 1.92476 10.4402 1.99551 9.68725C2.06461 8.95192 2.19579 8.47197 2.42049 8.06146C2.6444 7.65239 2.97193 7.29261 3.54122 6.85663C4.12631 6.40855 4.91073 5.92058 6.02798 5.22718L8.35356 3.78386Z" fill="black"/>
</svg>
