<svg width="26" height="25" viewBox="0 0 26 25" fill="none" xmlns="http://www.w3.org/2000/svg">
<path d="M4.3457 12.67C4.3457 10.763 4.3457 9.80948 4.77837 9.01903C5.21104 8.22859 6.00149 7.73801 7.5824 6.75685L9.24906 5.72247C10.9202 4.68532 11.7558 4.16675 12.679 4.16675C13.6023 4.16675 14.4379 4.68532 16.109 5.72247L17.7757 6.75685C19.3566 7.73801 20.147 8.22859 20.5797 9.01903C21.0124 9.80948 21.0124 10.763 21.0124 12.67V13.9375C21.0124 17.1883 21.0124 18.8137 20.0361 19.8235C19.0597 20.8334 17.4884 20.8334 14.3457 20.8334H11.0124C7.86967 20.8334 6.29832 20.8334 5.32201 19.8235C4.3457 18.8137 4.3457 17.1883 4.3457 13.9375V12.67Z" stroke="black" stroke-width="1.5"/>
<path d="M7.67969 12.2354C10.4411 9.25486 14.9183 9.25486 17.6797 12.2354M9.34637 14.0342C11.1873 12.0471 14.1721 12.0471 16.013 14.0342M11.013 15.8333C11.9335 14.8398 13.4259 14.8398 14.3464 15.8333" stroke="black" stroke-width="1.5" stroke-linecap="round"/>
</svg>
