<svg width="26" height="26" viewBox="0 0 26 26" fill="none" xmlns="http://www.w3.org/2000/svg">
<path d="M25.0992 7.39116C25.0852 6.33971 24.8883 5.29872 24.5175 4.31475C24.1959 3.48477 23.7047 2.73101 23.0753 2.10161C22.4459 1.47221 21.6921 0.981023 20.8622 0.659429C19.8908 0.294809 18.8647 0.0976528 17.8274 0.076355C16.4919 0.0166594 16.0685 0 12.6783 0C9.28814 0 8.85361 9.30909e-08 7.52781 0.076355C6.49099 0.0978094 5.46532 0.294963 4.49444 0.659429C3.66433 0.980799 2.91045 1.47191 2.28102 2.10133C1.6516 2.73076 1.16049 3.48464 0.839117 4.31475C0.473767 5.28534 0.277038 6.31124 0.257431 7.34812C0.197735 8.68503 0.179688 9.10845 0.179688 12.4986C0.179688 15.8888 0.179687 16.3219 0.257431 17.6491C0.278255 18.6875 0.474001 19.7121 0.839117 20.6853C1.16103 21.5151 1.6525 22.2687 2.28214 22.8978C2.91177 23.527 3.66573 24.0179 4.49582 24.3392C5.46405 24.7185 6.4899 24.9297 7.5292 24.9639C8.86611 25.0236 9.28953 25.0416 12.6797 25.0416C16.0698 25.0416 16.5044 25.0416 17.8302 24.9639C18.8674 24.9435 19.8936 24.7468 20.8649 24.3822C21.6947 24.0603 22.4483 23.5689 23.0776 22.9396C23.707 22.3102 24.1983 21.5567 24.5203 20.7269C24.8854 19.7551 25.0811 18.7306 25.1019 17.6907C25.1616 16.3552 25.1797 15.9318 25.1797 12.5403C25.1769 9.1501 25.1769 8.71974 25.0992 7.39116V7.39116ZM12.67 18.9097C9.12432 18.9097 6.25199 16.0373 6.25199 12.4917C6.25199 8.94602 9.12432 6.07369 12.67 6.07369C14.3721 6.07369 16.0046 6.74987 17.2082 7.95347C18.4118 9.15708 19.088 10.7895 19.088 12.4917C19.088 14.1938 18.4118 15.8263 17.2082 17.0299C16.0046 18.2335 14.3721 18.9097 12.67 18.9097V18.9097ZM19.3434 7.33285C19.1468 7.33303 18.9521 7.29445 18.7705 7.21931C18.5888 7.14416 18.4238 7.03393 18.2848 6.89493C18.1458 6.75592 18.0355 6.59087 17.9604 6.40922C17.8852 6.22757 17.8467 6.03288 17.8468 5.8363C17.8468 5.63986 17.8855 5.44534 17.9607 5.26385C18.0359 5.08237 18.1461 4.91746 18.285 4.77856C18.4239 4.63966 18.5888 4.52947 18.7703 4.4543C18.9517 4.37912 19.1463 4.34043 19.3427 4.34043C19.5391 4.34043 19.7337 4.37912 19.9151 4.4543C20.0966 4.52947 20.2615 4.63966 20.4004 4.77856C20.5393 4.91746 20.6495 5.08237 20.7247 5.26385C20.7999 5.44534 20.8386 5.63986 20.8386 5.8363C20.8386 6.66371 20.1694 7.33285 19.3434 7.33285Z" fill="black"/>
<path d="M12.6729 16.66C14.9754 16.66 16.8419 14.7935 16.8419 12.491C16.8419 10.1885 14.9754 8.32202 12.6729 8.32202C10.3704 8.32202 8.50391 10.1885 8.50391 12.491C8.50391 14.7935 10.3704 16.66 12.6729 16.66Z" fill="black"/>
</svg>
