<svg width="26" height="43" viewBox="0 0 26 43" fill="none" xmlns="http://www.w3.org/2000/svg">
<path d="M24.426 1.33105C25.1714 2.09304 25.5898 3.12381 25.5898 4.19824C25.5898 5.27266 25.1714 6.30343 24.426 7.06542L10.2583 21.6657L24.426 36.0626C25.1714 36.8246 25.5898 37.8554 25.5898 38.9298C25.5898 40.0042 25.1714 41.035 24.426 41.797C24.054 42.1782 23.6113 42.4808 23.1236 42.6872C22.6359 42.8937 22.1128 43 21.5845 43C21.0562 43 20.533 42.8937 20.0453 42.6872C19.5576 42.4808 19.115 42.1782 18.7429 41.797L1.77368 24.5532C1.39856 24.1752 1.10082 23.7253 0.897639 23.2298C0.694453 22.7342 0.589842 22.2026 0.589842 21.6657C0.589842 21.1288 0.694453 20.5973 0.897638 20.1017C1.10082 19.6061 1.39856 19.1563 1.77368 18.7782L18.7429 1.33105C19.115 0.949866 19.5576 0.647311 20.0453 0.440839C20.533 0.234366 21.0561 0.128059 21.5845 0.128059C22.1128 0.128059 22.6359 0.234366 23.1236 0.440838C23.6113 0.647311 24.054 0.949865 24.426 1.33105Z" fill="black"/>
</svg>
