<svg width="26" height="27" viewBox="0 0 26 27" fill="none" xmlns="http://www.w3.org/2000/svg">
<path d="M9.06231 16.177C8.18857 16.1771 7.33444 15.9181 6.60794 15.4327C5.88143 14.9473 5.31518 14.2574 4.98081 13.4502C4.64643 12.643 4.55896 11.7547 4.72943 10.8978C4.89991 10.0408 5.32069 9.2537 5.93856 8.63592L10.497 4.0793C11.3254 3.25083 12.4491 2.7854 13.6207 2.7854C14.7923 2.7854 15.916 3.25083 16.7445 4.0793C17.5729 4.90777 18.0384 6.03142 18.0384 7.20305C18.0384 8.37468 17.5729 9.49833 16.7445 10.3268L16.2508 10.8196L14.9875 9.55814L15.4848 9.06087C15.9766 8.56672 16.2524 7.89771 16.2517 7.20053C16.2511 6.50334 15.974 5.83487 15.4812 5.34166C14.9797 4.86303 14.3131 4.59599 13.6198 4.59599C12.9266 4.59599 12.2599 4.86303 11.7584 5.34166L7.2018 9.89828C6.95719 10.1426 6.76313 10.4328 6.63073 10.7522C6.49833 11.0716 6.43018 11.4139 6.43018 11.7597C6.43018 12.1054 6.49833 12.4478 6.63073 12.7672C6.76313 13.0866 6.95719 13.3767 7.2018 13.6211C7.70333 14.0997 8.36994 14.3667 9.0632 14.3667C9.75645 14.3667 10.4231 14.0997 10.9246 13.6211L12.1869 14.8834C11.7775 15.2949 11.2905 15.6211 10.7542 15.8431C10.2178 16.0652 9.64279 16.1787 9.06231 16.177V16.177Z" fill="black" stroke="black" stroke-width="0.3"/>
<path d="M16.2039 14.3916C15.3302 14.3917 14.476 14.1327 13.7495 13.6473C13.023 13.1619 12.4568 12.472 12.1224 11.6648C11.788 10.8576 11.7006 9.96931 11.871 9.11237C12.0415 8.25543 12.4623 7.4683 13.0802 6.85052L13.5739 6.35772L14.8362 7.62097L14.3434 8.11377C13.8499 8.60733 13.5726 9.27673 13.5726 9.97472C13.5726 10.6727 13.8499 11.3421 14.3434 11.8357C14.8449 12.3143 15.5115 12.5813 16.2048 12.5813C16.8981 12.5813 17.5647 12.3143 18.0662 11.8357L22.6237 7.27815C23.1163 6.78428 23.393 6.1152 23.393 5.41765C23.393 4.7201 23.1163 4.05102 22.6237 3.55715C22.1222 3.07853 21.4556 2.81148 20.7623 2.81148C20.0691 2.81148 19.4024 3.07853 18.9009 3.55715L17.6386 2.2939C18.467 1.46543 19.5907 1 20.7623 1C21.9339 1 23.0576 1.46543 23.8861 2.2939C24.7145 3.12237 25.18 4.24602 25.18 5.41765C25.18 6.58928 24.7145 7.71293 23.8861 8.5414L19.3294 13.0971C18.92 13.5087 18.433 13.835 17.8967 14.0572C17.3604 14.2794 16.7853 14.393 16.2048 14.3916H16.2039Z" fill="black" stroke="black" stroke-width="0.3"/>
<path d="M19.8203 25.9972H1.9652C1.4918 25.9967 1.03792 25.8084 0.703173 25.4737C0.368428 25.1389 0.18016 24.6851 0.179688 24.2117V6.35655C0.18016 5.88315 0.368428 5.42928 0.703173 5.09453C1.03792 4.75979 1.4918 4.57152 1.9652 4.57104H5.53622V6.35655H1.9652V24.2117H19.8203V15.2841H21.6058V24.2117C21.6053 24.6851 21.4171 25.1389 21.0823 25.4737C20.7476 25.8084 20.2937 25.9967 19.8203 25.9972V25.9972Z" fill="black" stroke="black" stroke-width="0.3"/>
</svg>
