<svg width="32" height="25" viewBox="0 0 32 25" fill="none" xmlns="http://www.w3.org/2000/svg">
<path fill-rule="evenodd" clip-rule="evenodd" d="M12.0945 0.0521575C7.82129 0.363397 3.9437 3.02335 1.99013 6.9835C-0.843704 12.7282 1.1574 19.7444 6.60405 23.1605C11.0045 25.9205 16.7472 25.5452 20.7976 22.2331C21.0545 22.0231 21.2647 21.8242 21.2647 21.7913C21.2647 21.7444 20.8342 21.2159 20.3582 20.6785C20.3327 20.6498 20.1266 20.7856 19.9001 20.9805C18.6582 22.0486 16.9528 22.8712 15.2127 23.2414C14.2213 23.4524 12.6212 23.5072 11.6231 23.3644C9.12471 23.0071 7.05744 21.9452 5.28731 20.1098C1.16608 15.8366 1.22827 8.95529 5.42585 4.77287C6.10359 4.0976 6.49275 3.77536 7.16687 3.33141C8.93032 2.1701 10.9123 1.57848 13.0392 1.57848C15.8217 1.57848 18.3295 2.58252 20.4729 4.5548C20.7377 4.79847 20.9699 4.99777 20.989 4.99777C21.008 4.99777 21.0236 4.54625 21.0236 3.9944V2.99103L20.7675 2.76643C20.3137 2.36855 19.2663 1.69805 18.486 1.30597C17.0952 0.607183 15.5188 0.174478 13.913 0.0506299C13.0338 -0.0171291 13.0462 -0.017129 12.0945 0.0521575ZM22.0222 0.144723C21.937 0.231056 21.9275 1.06818 21.9275 8.44603C21.9275 16.6381 21.9273 16.6515 21.8034 16.8112L21.6792 16.9713L20.0804 16.9875L18.4816 17.0038L21.7261 20.8178C23.5106 22.9155 24.9977 24.639 25.0309 24.6477C25.064 24.6564 26.5532 22.9402 28.3402 20.8337L31.5894 17.0038L29.9859 16.9875L28.3825 16.9713L28.2584 16.8112C28.1345 16.6515 28.1343 16.6381 28.1343 8.44603C28.1343 1.06818 28.1247 0.231056 28.0396 0.144723C27.9561 0.0601003 27.5996 0.0487359 25.0309 0.0487359C22.4621 0.0487359 22.1057 0.0601003 22.0222 0.144723ZM12.075 2.55997C9.74075 2.80688 7.57067 3.88748 5.92088 5.62447C4.62855 6.98508 3.76695 8.64374 3.35827 10.5578C3.23962 11.1133 3.22124 11.3756 3.22124 12.513C3.22124 13.9602 3.30277 14.5243 3.67602 15.6596C4.37148 17.775 5.9104 19.7634 7.78255 20.9657C8.68229 21.5435 10.0453 22.1 11.0807 22.3125C13.993 22.9099 17.1993 22.0893 19.3628 20.1927L19.6978 19.899L18.6227 18.6347C18.0314 17.9393 17.5162 17.3103 17.4778 17.2369C17.3169 16.9293 17.4561 16.3922 17.7466 16.199C17.8947 16.1004 18.096 16.0837 19.454 16.0567L20.9935 16.0262L21.0089 11.3168L21.0243 6.60731L20.5494 6.03169C18.5358 3.59121 15.2093 2.22845 12.075 2.55997ZM13.6035 5.22592C13.8315 5.39724 13.9057 5.67719 13.9096 6.38075L13.913 6.99999L14.2293 7.10411C14.7858 7.28728 15.2573 7.58105 15.7013 8.02114C16.1919 8.50749 16.2779 8.72983 16.1219 9.10847C15.9696 9.47793 15.3867 9.69441 15.0389 9.51068C14.9665 9.47249 14.7697 9.31052 14.6015 9.15087C14.2124 8.78134 13.8872 8.61405 13.4362 8.55155C12.1283 8.37014 10.9602 9.15527 10.9602 10.2158C10.9602 10.6317 11.0348 10.8373 11.2803 11.0978C11.6587 11.4993 12.0719 11.6397 13.1085 11.7186C14.4521 11.8208 15.1461 12.0746 15.8136 12.7077C17.0398 13.8707 17.0148 15.733 15.7559 17.0085C15.2862 17.4844 14.6985 17.8257 14.1248 17.9559L13.7924 18.0313L13.7923 18.6784C13.7923 19.4359 13.7016 19.6904 13.3706 19.8635C12.9963 20.0592 12.4487 19.9077 12.2952 19.5662C12.2558 19.4785 12.2257 19.1131 12.2257 18.7229V18.0342L11.8792 17.925C11.3024 17.7433 10.8318 17.4537 10.3819 17.0038C9.88899 16.5108 9.8077 16.2961 9.98058 15.9441C10.1421 15.6153 10.37 15.4763 10.7476 15.4763C11.0561 15.4763 11.0824 15.4898 11.4344 15.8303C11.6357 16.025 11.9238 16.2396 12.0746 16.3072C12.9742 16.7107 14.081 16.5057 14.7154 15.818C15.3473 15.133 15.2892 14.1806 14.588 13.7296C14.1792 13.4667 13.8009 13.3686 12.9488 13.3046C12.0683 13.2385 11.631 13.1352 11.0506 12.8564C10.0055 12.3542 9.39136 11.392 9.39492 10.2621C9.39679 9.68017 9.46476 9.37455 9.70206 8.88105C10.0836 8.0875 10.8785 7.41278 11.7487 7.14364C11.9945 7.06763 12.2295 6.99449 12.2709 6.98111C12.3252 6.96358 12.3462 6.76769 12.3462 6.27975C12.3462 5.50856 12.4097 5.31793 12.7197 5.15767C12.9689 5.02887 13.3839 5.06089 13.6035 5.22592Z" fill="black"/>
</svg>
