<svg width="26" height="25" viewBox="0 0 26 25" fill="none" xmlns="http://www.w3.org/2000/svg">
<path fill-rule="evenodd" clip-rule="evenodd" d="M1.85539 0.120259C1.10928 0.427942 0.70954 1.03321 0.70954 1.85546V2.2472H13.2083H25.707L25.688 1.7895C25.6731 1.43233 25.6386 1.26688 25.5312 1.03635C25.3563 0.660613 25.0354 0.339225 24.6589 0.162577L24.3636 0.0240622L13.2554 0.0120311L2.14708 0L1.85539 0.120259ZM0.70954 4.02572V4.91497H13.2031H25.6966V4.02572V3.13646H13.2031H0.70954V4.02572ZM0.721354 9.84512L0.735678 13.886L0.914978 14.2169C1.11179 14.5801 1.38341 14.8422 1.75105 15.0235C1.96642 15.1297 2.08101 15.1431 2.89983 15.158C3.84934 15.1752 3.8955 15.1655 3.89749 14.9473C3.89947 14.7235 4.13204 14.2597 4.37653 13.992C4.84945 13.4743 4.97522 13.4366 7.34837 13.1008C8.48403 12.9402 9.45492 12.7963 9.50583 12.7812C9.56532 12.7634 9.94358 12.0645 10.5625 10.8288C11.6411 8.67517 11.7347 8.54037 12.3549 8.24634C12.6733 8.09537 12.7533 8.07968 13.2031 8.07968C13.6525 8.07968 13.7329 8.09548 14.05 8.24571C14.6764 8.54272 14.7563 8.65759 15.8389 10.8193C16.6235 12.3859 16.8332 12.7645 16.9279 12.7853C16.9924 12.7995 17.9627 12.9415 19.0839 13.1007C21.4263 13.4334 21.555 13.4723 22.0296 13.992C22.2741 14.2597 22.5067 14.7235 22.5087 14.9473C22.5107 15.1655 22.5568 15.1752 23.5063 15.158C24.3252 15.1431 24.4397 15.1297 24.6551 15.0235C25.0228 14.8422 25.2944 14.5801 25.4912 14.2169L25.6705 13.886L25.6848 9.84512L25.6991 5.80423H13.2031H0.707031L0.721354 9.84512ZM8.05172 8.08601C8.1546 8.1255 8.28931 8.37392 8.28931 8.5241C8.28931 8.58436 8.23154 8.69144 8.16097 8.76205L8.03269 8.89047H5.15902H2.28535L2.17704 8.75264C2.03035 8.5661 2.03825 8.34076 2.197 8.18195L2.32528 8.05353H5.14621C6.69771 8.05353 8.0052 8.06817 8.05172 8.08601ZM12.994 8.94221C12.734 8.99075 12.506 9.12173 12.3422 9.31658C12.2643 9.40912 11.7688 10.3488 11.2411 11.4047C10.2628 13.362 10.185 13.4836 9.84122 13.5931C9.74953 13.6222 8.7454 13.7779 7.60974 13.939C5.29634 14.2673 5.2034 14.2933 4.93084 14.6889C4.70115 15.0223 4.66639 15.5034 4.84825 15.8319C4.92007 15.9616 5.60539 16.6639 6.52134 17.5465C7.81225 18.7905 8.0881 19.0818 8.16416 19.281L8.25554 19.5205L7.87597 21.7291C7.54618 23.648 7.50383 23.9655 7.55323 24.1491C7.73102 24.8097 8.46861 25.17 9.10552 24.9073C9.22381 24.8585 10.1295 24.3949 11.1181 23.8771C12.8141 22.9886 12.9318 22.9355 13.2031 22.9355C13.4744 22.9355 13.595 22.99 15.3448 23.9032C16.3645 24.4355 17.2702 24.8986 17.3573 24.9323C17.9521 25.1629 18.6831 24.78 18.8529 24.1491C18.9023 23.9655 18.86 23.6475 18.5306 21.728L18.1515 19.5183L18.2423 19.2804C18.3176 19.0829 18.5987 18.7869 19.8981 17.5366C21.6514 15.8494 21.6967 15.7905 21.662 15.2453C21.6447 14.9734 21.61 14.8673 21.4788 14.6856C21.194 14.2911 21.0857 14.2607 18.8226 13.9391C16.597 13.623 16.4725 13.5985 16.2653 13.4353C16.1715 13.3614 15.8052 12.6855 15.1651 11.4047C14.6373 10.3488 14.1417 9.40896 14.0636 9.31616C13.8134 9.01858 13.3857 8.86908 12.994 8.94221ZM5.38573 10.3353C5.51009 10.3831 5.63461 10.6547 5.59389 10.7893C5.5747 10.8526 5.51056 10.9573 5.45139 11.0221C5.34449 11.1389 5.33288 11.1398 3.83449 11.1398H2.32528L2.197 11.0114C2.03825 10.8525 2.03035 10.6272 2.17704 10.4407L2.28535 10.3028H3.79325C4.62258 10.3028 5.33921 10.3175 5.38573 10.3353Z" fill="black"/>
</svg>
