<svg width="26" height="26" viewBox="0 0 26 26" fill="none" xmlns="http://www.w3.org/2000/svg">
<path fill-rule="evenodd" clip-rule="evenodd" d="M21.1381 0.102145C20.9098 0.220601 20.7184 0.534145 20.7184 0.78971C20.7184 1.19407 21.1181 1.58686 21.5296 1.58686C21.941 1.58686 22.3407 1.19407 22.3407 0.78971C22.3407 0.526014 22.1494 0.219857 21.9095 0.0995409C21.6431 -0.0340075 21.399 -0.0332103 21.1381 0.102145ZM4.77206 0.598182C4.30328 0.853534 4.49941 1.58686 5.03649 1.58686C5.31049 1.58686 5.57725 1.32725 5.57725 1.06058C5.57725 0.661582 5.12858 0.403944 4.77206 0.598182ZM13.8779 1.00446C12.7948 1.19562 11.9125 1.48748 11.0074 1.95402C8.36534 3.31581 6.54212 5.71304 5.94474 8.61056C5.83659 9.13513 5.82059 9.37061 5.82059 10.4352C5.82059 11.4997 5.83659 11.7352 5.94474 12.2598C6.10573 13.0407 6.3807 13.8593 6.70851 14.5337L6.97072 15.0731L6.71327 15.1067C6.07382 15.19 5.32823 15.7827 5.08797 16.3986C4.90909 16.8571 4.88811 17.4192 5.03395 17.8429C5.0983 18.0297 5.13128 18.1996 5.10722 18.2206C5.08321 18.2415 4.19967 18.8056 3.14384 19.4742C1.98759 20.2064 1.11492 20.7961 0.949555 20.9572C0.602335 21.2953 0.301512 21.8869 0.213369 22.4049C0.0271862 23.499 0.629049 24.686 1.61901 25.177C2.46481 25.5967 3.25264 25.6071 4.10531 25.21C4.7229 24.9224 4.92964 24.6748 6.30332 22.5784C6.98321 21.5407 7.5569 20.6724 7.57815 20.6488C7.59941 20.6252 7.77234 20.6576 7.96242 20.7208C8.39351 20.8642 8.96547 20.8436 9.43203 20.6678C10.0634 20.4299 10.6441 19.7187 10.7421 19.0634L10.7791 18.8167L11.3288 19.0747C12.0159 19.3973 12.8486 19.6675 13.6435 19.8258C14.1773 19.932 14.4169 19.9478 15.5001 19.9478C16.5834 19.9478 16.823 19.932 17.3568 19.8258C21.2826 19.0441 24.2601 16.1179 25.0555 12.2598C25.1637 11.7352 25.1797 11.4997 25.1797 10.4352C25.1797 9.37061 25.1637 9.13513 25.0555 8.61056C24.2624 4.76343 21.2909 1.83408 17.3862 1.05006C16.5294 0.878033 14.7271 0.854597 13.8779 1.00446ZM17.3657 2.13455C18.1174 2.31034 18.5235 2.44915 19.1913 2.75861C21.6515 3.89847 23.3603 6.02759 23.9729 8.71631C24.0831 9.20002 24.0982 9.40643 24.0982 10.4352C24.0982 11.4639 24.0831 11.6703 23.9729 12.154C23.2031 15.5324 20.6868 18.0053 17.2492 18.7618C16.757 18.8701 16.5469 18.8849 15.5001 18.8849C14.4533 18.8849 14.2433 18.8701 13.7511 18.7618C10.309 18.0043 7.79819 15.5368 7.02734 12.154C6.91713 11.6703 6.9021 11.4639 6.9021 10.4352C6.9021 9.40728 6.91719 9.19981 7.02702 8.7178C7.36061 7.25413 7.98908 6.00177 8.94962 4.88677C10.1282 3.51866 11.8955 2.49571 13.7241 2.12317C14.4967 1.96576 14.4806 1.96693 15.6894 1.98511C16.6461 1.99951 16.8757 2.01997 17.3657 2.13455ZM14.5809 3.24221C12.9086 3.45255 11.4354 4.18008 10.2189 5.39641C9.20475 6.41033 8.55136 7.5976 8.25005 8.97374C8.13135 9.5159 8.08955 10.6945 8.16839 11.2758C8.59391 14.413 10.9192 16.9206 13.9697 17.532C17.2521 18.1899 20.5644 16.6368 22.0679 13.7348C22.635 12.6401 22.8541 11.7189 22.8528 10.4352C22.8515 9.14661 22.6699 8.34947 22.1264 7.24659C20.7692 4.49288 17.6784 2.85262 14.5809 3.24221ZM24.2393 3.25533C23.7705 3.51069 23.9667 4.24401 24.5037 4.24401C24.7777 4.24401 25.0445 3.9844 25.0445 3.71773C25.0445 3.31873 24.5958 3.0611 24.2393 3.25533ZM16.7622 4.3724C17.6527 4.56244 18.5154 4.93226 19.1714 5.40524C22.6213 7.89259 22.6731 12.8701 19.2752 15.3833C16.8368 17.1868 13.3949 16.9924 11.1789 14.9261C10.2024 14.0156 9.56971 12.8776 9.30236 11.5512C9.19237 11.0055 9.20713 9.74867 9.33015 9.18631C9.89341 6.61158 11.9562 4.7114 14.6349 4.29975C15.0879 4.23014 16.2874 4.27111 16.7622 4.3724ZM1.13011 5.94788C0.901807 6.06633 0.710433 6.37988 0.710433 6.63544C0.710433 7.03981 1.11011 7.43259 1.52157 7.43259C1.93303 7.43259 2.3327 7.03981 2.3327 6.63544C2.3327 6.37175 2.14144 6.06559 1.9015 5.94527C1.63507 5.81173 1.39103 5.81252 1.13011 5.94788ZM12.2502 7.08184C12.0562 7.27247 12.0179 7.45177 12.1261 7.66195C12.159 7.72578 12.7733 8.35792 13.4911 9.06674L14.7963 10.3555L13.4911 11.6442C12.7733 12.353 12.159 12.9851 12.1261 13.049C12.0179 13.2591 12.0562 13.4384 12.2502 13.6291C12.4704 13.8455 12.6825 13.8651 12.9107 13.6902C12.9965 13.6244 13.6118 13.0265 14.2779 12.3616C14.9441 11.6967 15.5161 11.1526 15.5491 11.1526C15.5821 11.1526 16.1808 11.7162 16.8795 12.405C17.5782 13.0938 18.2155 13.6917 18.2959 13.7336C18.5339 13.8577 18.71 13.8279 18.9123 13.6291C19.1446 13.4008 19.152 13.2087 18.9395 12.9276C18.8533 12.8136 18.233 12.1826 17.561 11.5255L16.3392 10.3306L17.7177 8.97225C18.9629 7.74523 19.0962 7.59691 19.0962 7.43822C19.0962 7.3093 19.0472 7.21444 18.9123 7.08184C18.7183 6.89122 18.5359 6.85354 18.322 6.95993C18.2571 6.99225 17.6138 7.5959 16.8926 8.30137L15.5813 9.58408L14.297 8.32954C13.5906 7.63958 12.9525 7.03593 12.8789 6.9881C12.6629 6.84759 12.4574 6.8782 12.2502 7.08184ZM2.06827 12.2896C1.59949 12.545 1.79562 13.2783 2.3327 13.2783C2.60671 13.2783 2.87346 13.0187 2.87346 12.752C2.87346 12.353 2.42479 12.0954 2.06827 12.2896ZM7.51083 16.23C7.7765 16.3391 9.43766 17.9605 9.58015 18.2499C9.77974 18.655 9.68343 19.1778 9.35357 19.4802C9.07876 19.7321 8.58813 19.832 8.24399 19.7061C8.16028 19.6754 7.64721 19.2151 7.10391 18.6831C6.08464 17.685 6.01088 17.5829 6.01018 17.1693C6.00893 16.4533 6.81926 15.946 7.51083 16.23ZM6.32652 19.4618L6.776 19.9058L5.503 21.8421C4.80283 22.907 4.14116 23.8656 4.03263 23.9723C3.70915 24.2902 3.40286 24.4085 2.9005 24.4094C2.38191 24.4104 2.09769 24.3005 1.74609 23.9631C1.40163 23.6326 1.28001 23.3343 1.27904 22.8175C1.27807 22.318 1.40082 22.0164 1.73468 21.698C1.90275 21.5377 5.74996 19.0349 5.84881 19.0216C5.86433 19.0195 6.07934 19.2176 6.32652 19.4618ZM14.649 22.4222C14.4207 22.5407 14.2294 22.8542 14.2294 23.1098C14.2294 23.1998 14.2784 23.3678 14.3382 23.4832C14.4606 23.719 14.7722 23.9069 15.0405 23.9069C15.3088 23.9069 15.6203 23.719 15.7428 23.4832C15.8026 23.3678 15.8516 23.1998 15.8516 23.1098C15.8516 22.8461 15.6604 22.5399 15.4204 22.4196C15.154 22.2861 14.91 22.2869 14.649 22.4222ZM24.2393 22.3868C23.7705 22.6422 23.9667 23.3755 24.5037 23.3755C24.7777 23.3755 25.0445 23.1159 25.0445 22.8492C25.0445 22.4502 24.5958 22.1926 24.2393 22.3868Z" fill="black"/>
</svg>
