<svg width="26" height="25" viewBox="0 0 26 25" fill="none" xmlns="http://www.w3.org/2000/svg">
<path d="M4.34668 12.4999C4.34668 9.35722 4.34668 7.78587 5.32299 6.80956C6.2993 5.83325 7.87065 5.83325 11.0133 5.83325H14.3467C17.4894 5.83325 19.0607 5.83325 20.037 6.80956C21.0133 7.78587 21.0133 9.35722 21.0133 12.4999C21.0133 15.6426 21.0133 17.214 20.037 18.1903C19.0607 19.1666 17.4894 19.1666 14.3467 19.1666H11.0133C7.87065 19.1666 6.2993 19.1666 5.32299 18.1903C4.34668 17.214 4.34668 15.6426 4.34668 12.4999Z" stroke="black" stroke-width="1.5"/>
<path d="M7.67969 9.16675L9.47877 10.666C11.0093 11.9414 11.7746 12.5791 12.6797 12.5791C13.5848 12.5791 14.3501 11.9414 15.8806 10.666L17.6797 9.16675" stroke="black" stroke-width="1.5" stroke-linecap="round"/>
</svg>
