<svg width="26" height="25" viewBox="0 0 26 25" fill="none" xmlns="http://www.w3.org/2000/svg">
<path d="M17.8297 9.19936L18.2159 8.81316C18.8558 8.17328 19.8932 8.17328 20.5331 8.81316C21.173 9.45304 21.173 10.4905 20.5331 11.1304L20.1469 11.5166M17.8297 9.19936C17.8297 9.19936 17.878 10.02 18.6021 10.7442C19.3262 11.4683 20.1469 11.5166 20.1469 11.5166M17.8297 9.19936L14.2792 12.7499C14.0387 12.9904 13.9185 13.1106 13.8151 13.2432C13.6931 13.3996 13.5885 13.5688 13.5032 13.7478C13.4308 13.8996 13.3771 14.061 13.2695 14.3836L12.9252 15.4166L12.8138 15.7508M20.1469 11.5166L16.5964 15.0671C16.3559 15.3076 16.2357 15.4278 16.1031 15.5312C15.9467 15.6532 15.7775 15.7578 15.5984 15.8431C15.4466 15.9154 15.2853 15.9692 14.9627 16.0768L13.9297 16.4211L13.5955 16.5325M13.5955 16.5325L13.2613 16.6439C13.1025 16.6968 12.9275 16.6555 12.8091 16.5372C12.6908 16.4188 12.6494 16.2438 12.7024 16.085L12.8138 15.7508M13.5955 16.5325L12.8138 15.7508" stroke="black" stroke-width="1.5"/>
<path d="M9.34668 13.3333H11.43" stroke="black" stroke-width="1.5" stroke-linecap="round"/>
<path d="M9.34668 10H14.7633" stroke="black" stroke-width="1.5" stroke-linecap="round"/>
<path d="M9.34668 16.6667H10.5967" stroke="black" stroke-width="1.5" stroke-linecap="round"/>
<path d="M19.2034 5.14306C18.2271 4.16675 16.6557 4.16675 13.513 4.16675H11.8464C8.70366 4.16675 7.13231 4.16675 6.156 5.14306C5.17969 6.11937 5.17969 7.69072 5.17969 10.8334V14.1667C5.17969 17.3094 5.17969 18.8808 6.156 19.8571C7.13231 20.8334 8.70366 20.8334 11.8464 20.8334H13.513C16.6557 20.8334 18.2271 20.8334 19.2034 19.8571C19.9893 19.0712 20.1426 17.8997 20.1724 15.8334" stroke="black" stroke-width="1.5" stroke-linecap="round"/>
</svg>
