<svg width="26" height="25" viewBox="0 0 26 25" fill="none" xmlns="http://www.w3.org/2000/svg">
<path d="M11.878 6.09681L12.4188 7.06592C12.9069 7.94048 12.711 9.08777 11.9423 9.8565C11.9423 9.8565 11.9423 9.8565 11.9423 9.8565C11.9422 9.85662 11.0099 10.7891 12.7004 12.4796C14.3903 14.1694 15.3227 13.2386 15.3235 13.2377C15.3235 13.2377 15.3235 13.2377 15.3235 13.2377C16.0923 12.469 17.2395 12.2731 18.1141 12.7612L19.0832 13.302C20.4038 14.039 20.5598 15.891 19.399 17.0518C18.7015 17.7493 17.847 18.2921 16.9024 18.3279C15.3123 18.3882 12.6119 17.9857 9.9031 15.2769C7.19429 12.5681 6.79186 9.86769 6.85214 8.27757C6.88795 7.333 7.43068 6.47853 8.12818 5.78103C9.28898 4.62023 11.141 4.7762 11.878 6.09681Z" stroke="black" stroke-width="1.5" stroke-linecap="round"/>
</svg>
