<svg width="26" height="25" viewBox="0 0 26 25" fill="none" xmlns="http://www.w3.org/2000/svg">
<path d="M0.179688 12.4999C0.179688 17.6183 3.25761 22.0154 7.66198 23.9487C7.62683 23.0758 7.65573 22.028 7.87956 21.0783C8.11989 20.0636 9.48795 14.2672 9.48795 14.2672C9.48795 14.2672 9.08864 13.4691 9.08864 12.2895C9.08864 10.4371 10.1623 9.05366 11.4994 9.05366C12.6364 9.05366 13.1857 9.90764 13.1857 10.9303C13.1857 12.0732 12.4567 13.7828 12.0818 15.3663C11.7686 16.6922 12.7466 17.7737 14.0547 17.7737C16.4231 17.7737 18.0182 14.7319 18.0182 11.1279C18.0182 8.38835 16.173 6.33782 12.8168 6.33782C9.02506 6.33782 6.66287 9.16547 6.66287 12.324C6.66287 13.413 6.98396 14.181 7.48688 14.7757C7.71813 15.0488 7.75026 15.1587 7.66657 15.4723C7.60661 15.7023 7.46892 16.256 7.41189 16.4754C7.32868 16.792 7.07214 16.9052 6.78601 16.7883C5.03953 16.0753 4.22616 14.1628 4.22616 12.0129C4.22616 8.46207 7.22087 4.20438 13.1599 4.20438C17.9324 4.20438 21.0735 7.6578 21.0735 11.3648C21.0735 16.2683 18.3473 19.9316 14.3288 19.9316C12.9792 19.9316 11.7098 19.2021 11.275 18.3735C11.275 18.3735 10.5493 21.2535 10.3956 21.8097C10.1305 22.7734 9.61178 23.7367 9.13746 24.4874C10.2876 24.8275 11.4808 25.0001 12.6801 25C19.5828 25 25.1797 19.4036 25.1797 12.4999C25.1797 5.59643 19.5828 0 12.6801 0C5.77674 0 0.179688 5.59643 0.179688 12.4999Z" fill="black"/>
</svg>
