<svg width="26" height="25" viewBox="0 0 26 25" fill="none" xmlns="http://www.w3.org/2000/svg">
<path d="M1.88016 14.2005H10.9792V23.2995C10.9792 24.2243 11.7399 25 12.6797 25C13.6194 25 14.3802 24.2243 14.3802 23.2995V14.2005H23.4792C24.404 14.2005 25.1797 13.4397 25.1797 12.5C25.1797 11.5603 24.404 10.7995 23.4792 10.7995H14.3802V1.70048C14.3802 0.775656 13.6194 0 12.6797 0C11.7399 0 10.9792 0.775656 10.9792 1.70048V10.7995H1.88016C0.955344 10.7995 0.179688 11.5603 0.179688 12.5C0.179688 13.4397 0.955344 14.2005 1.88016 14.2005Z" fill="black"/>
</svg>
