<svg width="26" height="21" viewBox="0 0 26 21" fill="none" xmlns="http://www.w3.org/2000/svg">
<path d="M15.2603 17.5939C16.3356 19.3 17.9216 20.1531 20.0184 20.1531C21.47 20.1531 22.6797 19.6732 23.6474 18.7136C24.6689 17.7006 25.1797 16.4743 25.1797 15.0348C25.1797 13.4887 24.6689 12.2624 23.6474 11.3561C22.6797 10.3964 21.47 9.91659 20.0184 9.91659C18.8894 9.91659 17.8947 10.2631 17.0345 10.9562C16.8732 10.4764 16.7926 9.91659 16.7926 9.27681C16.7926 7.73067 17.384 6.21119 18.5668 4.71838C19.8033 3.22556 21.255 2.1326 22.9216 1.4395L22.1958 0C19.4001 1.27956 17.3033 2.98564 15.9055 5.11824C14.5614 7.25084 13.8894 9.65001 13.8894 12.3158C13.8894 14.395 14.3464 16.1544 15.2603 17.5939Z" fill="black"/>
<path d="M1.55066 17.5939C2.62592 19.3 4.21195 20.1531 6.30872 20.1531C7.76033 20.1531 8.97001 19.6732 9.93775 18.7136C10.9593 17.7006 11.47 16.4743 11.47 15.0348C11.47 13.4887 10.9593 12.2624 9.93775 11.3561C8.97001 10.3964 7.76033 9.91659 6.30872 9.91659C5.17969 9.91659 4.18506 10.2631 3.32485 10.9562C3.16356 10.4764 3.08291 9.91659 3.08291 9.27681C3.08291 7.73067 3.67431 6.21119 4.85711 4.71838C6.09367 3.22556 7.54528 2.1326 9.21194 1.4395L8.48614 0C5.69044 1.27956 3.59367 2.98564 2.19582 5.11824C0.85173 7.25084 0.179688 9.65001 0.179688 12.3158C0.179688 14.395 0.636677 16.1544 1.55066 17.5939Z" fill="black"/>
</svg>
