<svg width="26" height="25" viewBox="0 0 26 25" fill="none" xmlns="http://www.w3.org/2000/svg">
<path d="M6.81234 6.41367C7.10302 6.11858 7.09945 5.64372 6.80436 5.35304C6.50927 5.06236 6.03441 5.06594 5.74373 5.36103L6.81234 6.41367ZM9.67969 4.81429L9.14536 4.28798C8.85779 4.57994 8.8578 5.04866 9.14538 5.34061L9.67969 4.81429ZM10.6041 6.82141C10.8947 7.1165 11.3696 7.12008 11.6647 6.8294C11.9598 6.53872 11.9633 6.06386 11.6727 5.76877L10.6041 6.82141ZM11.6727 3.85969C11.9634 3.56459 11.9598 3.08973 11.6647 2.79906C11.3696 2.50839 10.8947 2.51198 10.604 2.80708L11.6727 3.85969ZM12.6797 19.2499C10.8904 19.2499 9.62502 19.2483 8.66634 19.1174C7.73041 18.9897 7.19942 18.7515 6.81234 18.3586L5.74373 19.4112C6.45501 20.1333 7.35707 20.4526 8.46349 20.6037C9.54717 20.7516 10.9334 20.7499 12.6797 20.7499V19.2499ZM4.42969 12.3861C4.42969 14.1598 4.42814 15.5644 4.57347 16.6618C4.72151 17.7796 5.034 18.6907 5.74373 19.4112L6.81234 18.3586C6.42373 17.9641 6.18704 17.4204 6.06049 16.4649C5.93123 15.4889 5.92969 14.2016 5.92969 12.3861H4.42969ZM19.4297 12.3861C19.4297 14.2016 19.4281 15.4889 19.2989 16.4649C19.1723 17.4204 18.9356 17.9641 18.547 18.3586L19.6156 19.4112C20.3254 18.6907 20.6379 17.7796 20.7859 16.6618C20.9312 15.5644 20.9297 14.1598 20.9297 12.3861H19.4297ZM12.6797 20.7499C14.4259 20.7499 15.8122 20.7516 16.8959 20.6037C18.0023 20.4526 18.9044 20.1333 19.6156 19.4112L18.547 18.3586C18.16 18.7515 17.629 18.9897 16.693 19.1174C15.7344 19.2483 14.469 19.2499 12.6797 19.2499V20.7499ZM12.6797 5.52233C14.469 5.52233 15.7344 5.52397 16.693 5.65482C17.629 5.78256 18.16 6.02073 18.547 6.41367L19.6156 5.36103C18.9044 4.63895 18.0023 4.31961 16.8959 4.1686C15.8122 4.02069 14.4259 4.02233 12.6797 4.02233V5.52233ZM20.9297 12.3861C20.9297 10.6124 20.9312 9.20783 20.7859 8.11046C20.6379 6.99266 20.3254 6.08153 19.6156 5.36103L18.547 6.41367C18.9356 6.80818 19.1723 7.35185 19.2989 8.3074C19.4281 9.28337 19.4297 10.5706 19.4297 12.3861H20.9297ZM5.92969 12.3861C5.92969 10.5706 5.93123 9.28337 6.06049 8.3074C6.18704 7.35185 6.42373 6.80818 6.81234 6.41367L5.74373 5.36103C5.03399 6.08153 4.72151 6.99266 4.57347 8.11046C4.42814 9.20783 4.42969 10.6124 4.42969 12.3861H5.92969ZM12.6797 4.02233C11.5014 4.02233 10.4939 4.02212 9.64178 4.06524L9.71759 5.56333C10.5236 5.52254 11.4885 5.52233 12.6797 5.52233V4.02233ZM9.14538 5.34061L10.6041 6.82141L11.6727 5.76877L10.214 4.28796L9.14538 5.34061ZM10.214 5.34059L11.6727 3.85969L10.604 2.80708L9.14536 4.28798L10.214 5.34059Z" fill="black"/>
<path d="M9.7627 12.9167L11.4294 14.5834L15.596 10.4167" stroke="black" stroke-width="1.5" stroke-linecap="round" stroke-linejoin="round"/>
</svg>
