<svg width="26" height="43" viewBox="0 0 26 43" fill="none" xmlns="http://www.w3.org/2000/svg">
<path d="M1.75365 1.33105C1.00824 2.09304 0.589849 3.12381 0.589849 4.19824C0.589849 5.27266 1.00824 6.30343 1.75365 7.06542L15.9214 21.6657L1.75365 36.0626C1.00824 36.8246 0.589844 37.8554 0.589844 38.9298C0.589844 40.0042 1.00824 41.035 1.75365 41.797C2.1257 42.1782 2.56835 42.4808 3.05605 42.6872C3.54375 42.8937 4.06686 43 4.5952 43C5.12353 43 5.64664 42.8937 6.13435 42.6872C6.62205 42.4808 7.06469 42.1782 7.43675 41.797L24.406 24.5532C24.7811 24.1752 25.0789 23.7253 25.282 23.2298C25.4852 22.7342 25.5898 22.2026 25.5898 21.6657C25.5898 21.1288 25.4852 20.5973 25.282 20.1017C25.0789 19.6061 24.7811 19.1563 24.406 18.7782L7.43675 1.33105C7.0647 0.949866 6.62205 0.647311 6.13435 0.440839C5.64665 0.234366 5.12354 0.128059 4.5952 0.128059C4.06687 0.128059 3.54376 0.234366 3.05606 0.440838C2.56835 0.647311 2.12571 0.949865 1.75365 1.33105Z" fill="black"/>
</svg>
