<svg width="26" height="25" viewBox="0 0 26 25" fill="none" xmlns="http://www.w3.org/2000/svg">
<path d="M9.21559 5.66851C10.9062 4.66734 11.7515 4.16675 12.6797 4.16675C13.6079 4.16675 14.4532 4.66734 16.1438 5.66851L16.7156 6.00713C18.4062 7.0083 19.2515 7.50889 19.7156 8.33341C20.1797 9.15794 20.1797 10.1591 20.1797 12.1615V12.8387C20.1797 14.841 20.1797 15.8422 19.7156 16.6667C19.2515 17.4913 18.4062 17.9919 16.7156 18.993L16.1438 19.3317C14.4532 20.3328 13.6079 20.8334 12.6797 20.8334C11.7515 20.8334 10.9062 20.3328 9.21559 19.3317L8.64379 18.993C6.95319 17.9919 6.10789 17.4913 5.64379 16.6667C5.17969 15.8422 5.17969 14.841 5.17969 12.8387V12.1615C5.17969 10.1591 5.17969 9.15794 5.64379 8.33341C6.10789 7.50889 6.95319 7.0083 8.64379 6.00713L9.21559 5.66851Z" stroke="black" stroke-width="1.5"/>
<circle cx="12.6787" cy="12.5002" r="2.5" stroke="black" stroke-width="1.5"/>
</svg>
