<svg width="26" height="25" viewBox="0 0 26 25" fill="none" xmlns="http://www.w3.org/2000/svg">
<path d="M10.1794 12.5001C10.1794 13.6507 9.24662 14.5834 8.09603 14.5834C6.94544 14.5834 6.0127 13.6507 6.0127 12.5001C6.0127 11.3495 6.94544 10.4167 8.09603 10.4167C9.24662 10.4167 10.1794 11.3495 10.1794 12.5001Z" stroke="black" stroke-width="1.5"/>
<path d="M14.3464 7.91675L10.1797 10.8334" stroke="black" stroke-width="1.5" stroke-linecap="round"/>
<path d="M14.3464 17.0833L10.1797 14.1666" stroke="black" stroke-width="1.5" stroke-linecap="round"/>
<path d="M18.5133 17.9166C18.5133 19.0672 17.5806 19.9999 16.43 19.9999C15.2794 19.9999 14.3467 19.0672 14.3467 17.9166C14.3467 16.766 15.2794 15.8333 16.43 15.8333C17.5806 15.8333 18.5133 16.766 18.5133 17.9166Z" stroke="black" stroke-width="1.5"/>
<path d="M18.5133 7.08333C18.5133 8.23393 17.5806 9.16667 16.43 9.16667C15.2794 9.16667 14.3467 8.23393 14.3467 7.08333C14.3467 5.93274 15.2794 5 16.43 5C17.5806 5 18.5133 5.93274 18.5133 7.08333Z" stroke="black" stroke-width="1.5"/>
</svg>
