<svg width="26" height="25" viewBox="0 0 26 25" fill="none" xmlns="http://www.w3.org/2000/svg">
<path d="M10.1797 15.8333C10.8883 16.3585 11.7502 16.6666 12.6797 16.6666C13.6092 16.6666 14.471 16.3585 15.1797 15.8333" stroke="black" stroke-width="1.5" stroke-linecap="round"/>
<ellipse cx="15.179" cy="11.25" rx="0.833333" ry="1.25" fill="black"/>
<ellipse cx="10.179" cy="11.25" rx="0.833333" ry="1.25" fill="black"/>
<path d="M4.3457 12.5001C4.3457 8.57171 4.3457 6.60752 5.56609 5.38714C6.78648 4.16675 8.75067 4.16675 12.679 4.16675C16.6074 4.16675 18.5716 4.16675 19.792 5.38714C21.0124 6.60752 21.0124 8.57171 21.0124 12.5001C21.0124 16.4285 21.0124 18.3926 19.792 19.613C18.5716 20.8334 16.6074 20.8334 12.679 20.8334C8.75067 20.8334 6.78648 20.8334 5.56609 19.613C4.3457 18.3926 4.3457 16.4285 4.3457 12.5001Z" stroke="black" stroke-width="1.5"/>
</svg>
