<svg width="26" height="25" viewBox="0 0 26 25" fill="none" xmlns="http://www.w3.org/2000/svg">
<path d="M12.6797 4.16675V17.5001M12.6797 20.8334V17.5001M12.6797 17.5001L15.1797 20.0001M12.6797 17.5001L10.1797 20.0001M15.1797 5.00008L12.6797 7.50008L10.1797 5.00008" stroke="black" stroke-width="1.5" stroke-linecap="round"/>
<path d="M5.46288 8.33311L8.34963 9.99978M8.34963 9.99978L17.0099 14.9998M8.34963 9.99978L7.43457 6.58472M8.34963 9.99978L4.93457 10.9148M17.0099 14.9998L19.8966 16.6664M17.0099 14.9998L20.425 14.0847M17.0099 14.9998L17.925 18.4148" stroke="black" stroke-width="1.5" stroke-linecap="round"/>
<path d="M19.8966 8.33311L17.0099 9.99978M17.0099 9.99978L8.34963 14.9998M17.0099 9.99978L17.925 6.58472M17.0099 9.99978L20.425 10.9148M8.34963 14.9998L5.46288 16.6664M8.34963 14.9998L4.93457 14.0847M8.34963 14.9998L7.43457 18.4148" stroke="black" stroke-width="1.5" stroke-linecap="round"/>
</svg>
