<svg width="26" height="25" viewBox="0 0 26 25" fill="none" xmlns="http://www.w3.org/2000/svg">
<path d="M21.0124 12.5001C21.0124 17.1025 17.2814 20.8334 12.679 20.8334C8.07666 20.8334 4.3457 17.1025 4.3457 12.5001C4.3457 7.89771 8.07666 4.16675 12.679 4.16675C17.2814 4.16675 21.0124 7.89771 21.0124 12.5001Z" stroke="black" stroke-width="1.5"/>
<path d="M18.5137 18.3333L17.2637 17.0833" stroke="black" stroke-width="1.5" stroke-linecap="round"/>
<path d="M18.5137 6.66675L17.2637 7.91675" stroke="black" stroke-width="1.5" stroke-linecap="round"/>
<path d="M6.8457 18.3333L8.0957 17.0833" stroke="black" stroke-width="1.5" stroke-linecap="round"/>
<path d="M6.8457 6.66675L8.0957 7.91675" stroke="black" stroke-width="1.5" stroke-linecap="round"/>
<path d="M4.3457 12.5H6.01237" stroke="black" stroke-width="1.5" stroke-linecap="round"/>
<path d="M19.3455 12.5L21.0122 12.5" stroke="black" stroke-width="1.5" stroke-linecap="round"/>
<path d="M12.6797 5.83343L12.6797 4.16676" stroke="black" stroke-width="1.5" stroke-linecap="round"/>
<path d="M11.1141 14.4699C10.1378 13.4936 10.1378 11.9107 11.1141 10.9344C12.0904 9.95807 13.6733 9.95807 14.6496 10.9344C15.021 11.3058 15.2803 12.0767 15.4592 12.8895C15.7266 14.1049 15.8603 14.7126 15.3763 15.1966C14.8923 15.6806 14.2846 15.5469 13.0692 15.2795C12.2564 15.1007 11.4854 14.8413 11.1141 14.4699Z" stroke="black" stroke-width="1.5"/>
</svg>
