<svg width="26" height="25" viewBox="0 0 26 25" fill="none" xmlns="http://www.w3.org/2000/svg">
<path d="M25.1136 8.97502C25.035 8.74363 24.8904 8.54032 24.6976 8.39017C24.5048 8.24003 24.2722 8.14963 24.0286 8.13013L16.9023 7.56396L13.8186 0.738612C13.7203 0.518781 13.5606 0.332067 13.3586 0.201005C13.1566 0.0699422 12.921 0.000132331 12.6802 1.87948e-07C12.4394 -0.000131955 12.2037 0.0694193 12.0016 0.20026C11.7994 0.331101 11.6395 0.517639 11.541 0.737362L8.45727 7.56396L1.33098 8.13013C1.09154 8.1491 0.862647 8.23663 0.671667 8.38226C0.480687 8.52789 0.335712 8.72545 0.254087 8.95131C0.172462 9.17716 0.157642 9.42175 0.211402 9.65581C0.265161 9.88986 0.385222 10.1035 0.557223 10.2711L5.8235 15.4042L3.96099 23.4681C3.90444 23.7122 3.92256 23.9676 4.01302 24.2013C4.10347 24.435 4.26207 24.6361 4.46825 24.7785C4.67442 24.9209 4.91865 24.9981 5.16923 25C5.41981 25.0019 5.66518 24.9284 5.8735 24.7892L12.6798 20.2523L19.4861 24.7892C19.699 24.9305 19.9501 25.0033 20.2056 24.9977C20.4611 24.9921 20.7088 24.9084 20.9153 24.7578C21.1219 24.6073 21.2773 24.3971 21.3608 24.1556C21.4443 23.9141 21.4518 23.6528 21.3823 23.4069L19.0961 15.4079L24.7661 10.3061C25.1374 9.97114 25.2736 9.44871 25.1136 8.97502V8.97502Z" fill="black"/>
</svg>
