<svg width="28" height="25" viewBox="0 0 28 25" fill="none" xmlns="http://www.w3.org/2000/svg">
<path d="M27.0792 9.40023C26.8366 8.65754 26.1917 8.11627 25.4153 8.00414L18.8599 7.05604L15.928 1.14484C15.5809 0.444675 14.8643 0.00146484 14.0797 0.00146484C13.2952 0.00146484 12.5787 0.444812 12.2315 1.14498L9.30012 7.05604L2.74434 8.00414C1.96795 8.11627 1.32279 8.65754 1.08039 9.40023C0.837988 10.1429 1.04026 10.9581 1.60215 11.5031L6.34584 16.1042L5.22578 22.6018C5.09317 23.3714 5.41101 24.1492 6.04573 24.6082C6.40479 24.8677 6.83009 24.9998 7.25745 24.9998C7.5856 24.9998 7.91498 24.922 8.21647 24.7641L14.0797 21.6963L19.9434 24.7642C20.6378 25.1272 21.4792 25.067 22.1142 24.6079C22.7489 24.1491 23.0667 23.3713 22.9341 22.6016L21.8143 16.1039L26.5575 11.5029C27.1194 10.958 27.3216 10.1428 27.0792 9.40023Z" fill="black"/>
<path d="M27.0792 9.39863C26.8367 8.65607 26.1918 8.11481 25.4154 8.00267L18.86 7.05485L15.9284 1.14338C15.5812 0.44321 14.8646 0 14.0801 0V21.6949L19.9438 24.7626C20.6382 25.1255 21.4796 25.0655 22.1146 24.6063C22.7493 24.1475 23.0671 23.3697 22.9345 22.6002L21.8149 16.1026L26.558 11.5012C27.1196 10.9565 27.3218 10.1412 27.0792 9.39863Z" fill="black"/>
</svg>
