<svg width="26" height="25" viewBox="0 0 26 25" fill="none" xmlns="http://www.w3.org/2000/svg">
<path d="M21.0124 15.6438C19.6893 15.3321 19.0086 14.5661 18.4456 13.7143C18.0928 13.1805 17.3169 13.213 16.9336 13.7253C16.0574 14.8966 14.7494 15.8335 12.679 15.8335C10.5902 15.8335 9.27742 14.6415 8.40113 13.5198C8.03504 13.0512 7.33418 13.0574 7.01377 13.5584C6.42969 14.4715 5.74906 15.3131 4.3457 15.6438" stroke="black" stroke-width="1.5" stroke-linecap="round" stroke-linejoin="round"/>
<path d="M21.0124 19.8101C19.6893 19.4983 19.0086 18.7324 18.4456 17.8806C18.0928 17.3468 17.3169 17.3792 16.9336 17.8916C16.0574 19.0629 14.7494 19.9998 12.679 19.9998C10.5902 19.9998 9.27742 18.8077 8.40113 17.686C8.03504 17.2174 7.33418 17.2237 7.01377 17.7246C6.42969 18.6378 5.74906 19.4794 4.3457 19.8101" stroke="black" stroke-width="1.5" stroke-linecap="round" stroke-linejoin="round"/>
<path d="M6.01367 12.0833L8.91111 10.3449C9.57479 9.94665 9.72076 9.04714 9.21706 8.4595L8.39397 7.49922C7.99128 7.02942 8.01819 6.3288 8.45572 5.89127C8.9387 5.40828 9.72904 5.43296 10.181 5.94513L15.597 12.0833" stroke="black" stroke-width="1.5" stroke-linecap="round" stroke-linejoin="round"/>
<path d="M16.847 9.16667C17.9976 9.16667 18.9303 8.23393 18.9303 7.08333C18.9303 5.93274 17.9976 5 16.847 5C15.6964 5 14.7637 5.93274 14.7637 7.08333C14.7637 8.23393 15.6964 9.16667 16.847 9.16667Z" stroke="black" stroke-width="1.5" stroke-linecap="round" stroke-linejoin="round"/>
</svg>
