<svg width="26" height="25" viewBox="0 0 26 25" fill="none" xmlns="http://www.w3.org/2000/svg">
<path d="M4.60935 13.0814C4.56773 12.7254 4.54693 12.5474 4.55569 12.4006C4.60159 11.6314 5.1689 10.9939 5.92764 10.859C6.07238 10.8333 6.2516 10.8333 6.61003 10.8333H15.4165C15.7749 10.8333 15.9541 10.8333 16.0988 10.859C16.8576 10.9939 17.4249 11.6314 17.4708 12.4006C17.4796 12.5474 17.4587 12.7254 17.4171 13.0814L17.0832 15.9381C16.9325 17.2274 16.2436 18.3928 15.1867 19.1463C14.408 19.7015 13.4754 19.9999 12.519 19.9999H9.50746C8.55107 19.9999 7.61851 19.7015 6.83978 19.1463C5.78287 18.3928 5.09394 17.2274 4.94325 15.9381L4.60935 13.0814Z" stroke="black"/>
<path d="M16.8467 16.6667H18.5133C19.8941 16.6667 21.0133 15.5475 21.0133 14.1667C21.0133 12.786 19.8941 11.6667 18.5133 11.6667H17.2633" stroke="black"/>
<path d="M11.0131 4.16675C10.5529 4.62699 10.5529 5.37318 11.0131 5.83341C11.4734 6.29365 11.4734 7.03984 11.0131 7.50008" stroke="black" stroke-linecap="round" stroke-linejoin="round"/>
<path d="M6.84634 8.75008L6.94311 8.65332C7.36575 8.23068 7.4133 7.56158 7.05468 7.08341C6.69605 6.60525 6.74361 5.93615 7.16625 5.51351L7.26301 5.41675" stroke="black" stroke-linecap="round" stroke-linejoin="round"/>
<path d="M14.7633 8.75008L14.8601 8.65332C15.2827 8.23068 15.3303 7.56158 14.9717 7.08341C14.613 6.60525 14.6606 5.93615 15.0832 5.51351L15.18 5.41675" stroke="black" stroke-linecap="round" stroke-linejoin="round"/>
</svg>
