<svg width="26" height="25" viewBox="0 0 26 25" fill="none" xmlns="http://www.w3.org/2000/svg">
<path d="M14.3508 5.83325H11.0092C7.85867 5.83325 6.2834 5.83325 5.30466 6.80956C4.63077 7.48178 4.42087 8.43608 4.35549 9.99114C4.34253 10.2995 4.33605 10.4537 4.39363 10.5566C4.45122 10.6595 4.68112 10.7879 5.14091 11.0446C5.65156 11.3298 5.99674 11.8746 5.99674 12.4999C5.99674 13.1252 5.65156 13.67 5.14091 13.9552C4.68112 14.212 4.45122 14.3404 4.39363 14.4432C4.33605 14.5461 4.34253 14.7003 4.35549 15.0087C4.42087 16.5638 4.63077 17.5181 5.30466 18.1903C6.2834 19.1666 7.85867 19.1666 11.0092 19.1666H14.3508C17.5014 19.1666 19.0766 19.1666 20.0554 18.1903C20.7293 17.5181 20.9392 16.5638 21.0045 15.0087C21.0175 14.7003 21.024 14.5461 20.9664 14.4432C20.9088 14.3404 20.6789 14.212 20.2191 13.9552C19.7085 13.67 19.3633 13.1252 19.3633 12.4999C19.3633 11.8746 19.7085 11.3298 20.2191 11.0446C20.6789 10.7879 20.9088 10.6595 20.9664 10.5566C21.024 10.4537 21.0175 10.2995 21.0045 9.99114C20.9392 8.43608 20.7293 7.48178 20.0554 6.80956C19.0766 5.83325 17.5014 5.83325 14.3508 5.83325Z" stroke="black" stroke-width="1.5"/>
<path d="M10.1787 15.0002L15.1787 10.0002" stroke="black" stroke-width="1.5" stroke-linecap="round"/>
<path d="M15.5964 14.5833C15.5964 15.0436 15.2233 15.4167 14.763 15.4167C14.3028 15.4167 13.9297 15.0436 13.9297 14.5833C13.9297 14.1231 14.3028 13.75 14.763 13.75C15.2233 13.75 15.5964 14.1231 15.5964 14.5833Z" fill="black"/>
<path d="M11.4303 10.4166C11.4303 10.8768 11.0572 11.2499 10.597 11.2499C10.1368 11.2499 9.76367 10.8768 9.76367 10.4166C9.76367 9.95635 10.1368 9.58325 10.597 9.58325C11.0572 9.58325 11.4303 9.95635 11.4303 10.4166Z" fill="black"/>
</svg>
