<svg width="26" height="25" viewBox="0 0 26 25" fill="none" xmlns="http://www.w3.org/2000/svg">
<path d="M19.7624 7.5H5.5957" stroke="black" stroke-width="1.5" stroke-linecap="round"/>
<path d="M18.3733 9.58301L17.99 15.3323C17.8425 17.5447 17.7687 18.6509 17.0479 19.3253C16.3271 19.9997 15.2184 19.9997 13.0011 19.9997H12.3566C10.1392 19.9997 9.03058 19.9997 8.30974 19.3253C7.5889 18.6509 7.51515 17.5447 7.36766 15.3323L6.98438 9.58301" stroke="black" stroke-width="1.5" stroke-linecap="round"/>
<path d="M10.5957 11.667L11.0124 15.8337" stroke="black" stroke-width="1.5" stroke-linecap="round"/>
<path d="M14.7624 11.667L14.3457 15.8337" stroke="black" stroke-width="1.5" stroke-linecap="round"/>
<path d="M8.0957 7.5C8.14227 7.5 8.16555 7.5 8.18666 7.49947C8.87286 7.48208 9.47822 7.04576 9.71172 6.40027C9.7189 6.38041 9.72626 6.35832 9.74099 6.31415L9.82189 6.07143C9.89096 5.86423 9.92549 5.76063 9.9713 5.67267C10.154 5.32173 10.4922 5.07803 10.8829 5.01564C10.9808 5 11.09 5 11.3084 5H14.0497C14.2681 5 14.3773 5 14.4752 5.01564C14.8659 5.07803 15.204 5.32173 15.3868 5.67267C15.4326 5.76063 15.4671 5.86423 15.5362 6.07143L15.6171 6.31415C15.6318 6.35826 15.6392 6.38042 15.6464 6.40027C15.8798 7.04576 16.4852 7.48208 17.1714 7.49947C17.1925 7.5 17.2158 7.5 17.2624 7.5" stroke="black" stroke-width="1.5"/>
</svg>
