<svg width="26" height="25" viewBox="0 0 26 25" fill="none" xmlns="http://www.w3.org/2000/svg">
<circle cx="12.6797" cy="12.5" r="12.5" fill="black"/>
<path d="M20.636 9.30052C20.0924 9.52867 19.5083 9.68287 18.8953 9.75224C19.5211 9.3972 20.0016 8.83499 20.2279 8.16512C19.6329 8.49928 18.982 8.73472 18.3033 8.86126C17.7504 8.30375 16.9628 7.95532 16.091 7.95532C14.4172 7.95532 13.0601 9.23978 13.0601 10.824C13.0601 11.0489 13.087 11.2678 13.1386 11.4778C10.6198 11.3581 8.38653 10.2161 6.89166 8.48045C6.63083 8.90414 6.48137 9.39698 6.48137 9.92265C6.48137 10.918 7.01648 11.796 7.82967 12.3105C7.34837 12.2962 6.87766 12.1731 6.45684 11.9516C6.45667 11.9636 6.45667 11.9756 6.45667 11.9877C6.45667 13.3776 7.50138 14.5371 8.88782 14.8007C8.44152 14.9156 7.97337 14.9324 7.51915 14.8498C7.9048 15.9895 9.02413 16.8189 10.3503 16.8421C9.31306 17.6115 8.00619 18.0702 6.58628 18.0702C6.34161 18.0702 6.1004 18.0566 5.86328 18.0301C7.20454 18.844 8.79763 19.319 10.5092 19.319C16.084 19.319 19.1324 14.9476 19.1324 11.1567C19.1324 11.0323 19.1295 10.9086 19.1237 10.7856C19.717 10.3795 20.2291 9.87667 20.636 9.30052" fill="white"/>
</svg>
