<svg width="26" height="25" viewBox="0 0 26 25" fill="none" xmlns="http://www.w3.org/2000/svg">
<path d="M5.17969 10.8334C5.17969 7.69072 5.17969 6.11937 6.156 5.14306C7.13231 4.16675 8.70366 4.16675 11.8464 4.16675H13.513C16.6557 4.16675 18.2271 4.16675 19.2034 5.14306C20.1797 6.11937 20.1797 7.69072 20.1797 10.8334V14.1667C20.1797 17.3094 20.1797 18.8808 19.2034 19.8571C18.2271 20.8334 16.6557 20.8334 13.513 20.8334H11.8464C8.70366 20.8334 7.13231 20.8334 6.156 19.8571C5.17969 18.8808 5.17969 17.3094 5.17969 14.1667V10.8334Z" stroke="black" stroke-width="1.5"/>
<path d="M16.847 14.1667C16.847 16.4679 14.9815 18.3333 12.6803 18.3333C10.3792 18.3333 8.51367 16.4679 8.51367 14.1667C8.51367 11.8655 10.3792 10 12.6803 10C14.9815 10 16.847 11.8655 16.847 14.1667Z" stroke="black" stroke-width="1.5"/>
<path d="M9.3457 7.5H16.0124" stroke="black" stroke-width="1.5" stroke-linecap="round"/>
<path d="M8.70866 14.4686C9.42074 14.8245 10.2364 15.434 11.6168 15.6829C13.5851 16.0376 13.3886 14.3088 15.3569 14.6633C15.9571 14.7714 16.362 14.9542 16.6482 15.1504" stroke="black" stroke-width="1.5" stroke-linecap="round"/>
</svg>
