<svg width="18" height="18" viewBox="0 0 18 18" fill="none" xmlns="http://www.w3.org/2000/svg">
<path fill-rule="evenodd" clip-rule="evenodd" d="M8.9243 0C10.1174 0.042612 11.353 0.042612 12.5461 0.0852196C13.6113 0.127827 14.5914 0.298265 15.5288 0.852183C16.7218 1.57654 17.4462 2.64177 17.7018 4.00526C17.8297 4.81484 17.8723 5.66702 17.9149 6.47659C17.9575 8.26618 17.9149 10.0558 17.9149 11.8453C17.9149 12.7827 17.8723 13.7201 17.574 14.6149C16.9775 16.3619 15.7418 17.4271 13.9522 17.768C13.1426 17.9385 12.2904 17.9385 11.4809 17.9811C9.69127 18.0237 7.94429 17.9811 6.15469 17.9811C5.21728 17.9811 4.27987 17.9384 3.38508 17.6402C1.63809 17.0437 0.572859 15.808 0.231983 14.0184C0.061548 13.2088 0.061548 12.3566 0.0189382 11.5471C-0.0236727 9.7575 0.0189382 7.96791 0.0189382 6.17833C0.0189382 5.24093 0.061548 4.30353 0.359812 3.40873C0.956346 1.66175 2.19202 0.596532 3.98161 0.255657C4.79119 0.0852251 5.64338 0.0852251 6.45296 0.042612C7.26254 0 8.07211 0 8.9243 0ZM16.2936 8.82031C16.2936 8.82031 16.251 8.82031 16.2936 8.82031C16.251 8.09595 16.251 7.4142 16.251 6.68985C16.251 6.00811 16.2084 5.32635 16.1232 4.64461C15.9528 3.11068 15.058 2.08806 13.5666 1.7898C12.7997 1.61936 11.9475 1.61936 11.1805 1.61936C9.64657 1.57675 8.15524 1.57675 6.6213 1.61936C5.85433 1.61936 5.08736 1.66196 4.363 1.7898C3.08472 2.00284 2.18992 2.7272 1.80644 4.00547C1.67861 4.43156 1.636 4.85765 1.59339 5.28374C1.55078 6.90289 1.55078 8.52204 1.55078 10.1412C1.55078 11.1638 1.59339 12.229 1.67861 13.2517C1.80644 14.7856 2.74384 15.8508 4.27778 16.1065C5.04475 16.2343 5.85433 16.2769 6.66391 16.2769C8.15524 16.3195 9.64657 16.2769 11.1805 16.2769C11.8623 16.2769 12.544 16.2343 13.2258 16.1491C13.8649 16.1065 14.4614 15.8934 14.9727 15.4673C15.8249 14.7856 16.1232 13.8908 16.1658 12.8682C16.251 11.5899 16.251 10.2264 16.2936 8.82031Z" fill="white"/>
</svg>
