<svg width="19" height="18" viewBox="0 0 19 18" fill="none" xmlns="http://www.w3.org/2000/svg">
<path d="M4.27476 18V5.85543H0.238158V18H4.27476ZM2.25698 4.1963C3.66462 4.1963 4.5408 3.26374 4.5408 2.09835C4.51458 0.906677 3.66467 0 2.28369 0C0.902933 0 0 0.906695 0 2.09835C0 3.26379 0.875969 4.1963 2.23063 4.1963H2.25686H2.25698ZM6.50901 18H10.5456V11.2179C10.5456 10.8549 10.5718 10.4923 10.6784 10.2328C10.9703 9.50764 11.6344 8.75654 12.7495 8.75654C14.2102 8.75654 14.7945 9.87024 14.7945 11.5028V17.9999H18.8309V11.0363C18.8309 7.30599 16.8395 5.57031 14.1836 5.57031C12.006 5.57031 11.0499 6.78751 10.5188 7.61653H10.5457V5.85518H6.5091C6.56207 6.99476 6.5091 17.9997 6.5091 17.9997L6.50901 18Z" fill="white"/>
</svg>
