<svg width="18" height="18" viewBox="0 0 18 18" fill="none" xmlns="http://www.w3.org/2000/svg">
<path d="M7.03759 2.31617L7.6866 3.4791C8.2723 4.52858 8.03718 5.90532 7.11471 6.8278C7.11471 6.8278 7.11471 6.8278 7.11471 6.8278C7.11459 6.82792 5.99588 7.94685 8.02451 9.97548C10.0525 12.0035 11.1714 10.8861 11.1722 10.8853C11.1722 10.8853 11.1722 10.8853 11.1722 10.8853C12.0947 9.96281 13.4714 9.7277 14.5209 10.3134L15.6838 10.9624C17.2686 11.8468 17.4557 14.0692 16.0628 15.4622C15.2258 16.2992 14.2004 16.9505 13.0669 16.9934C11.1588 17.0658 7.91828 16.5829 4.6677 13.3323C1.41713 10.0817 0.934215 6.84122 1.00655 4.93309C1.04952 3.7996 1.7008 2.77423 2.53781 1.93723C3.93076 0.544282 6.15317 0.731437 7.03759 2.31617Z" stroke="#002248" stroke-width="1.5" stroke-linecap="round"/>
</svg>
