<svg width="897" height="420" viewBox="0 0 897 420" fill="none" xmlns="http://www.w3.org/2000/svg">
<path d="M423.408 129.874H226.894C228.759 125.893 238.981 106.166 260.393 108.641C260.393 108.641 295.005 67.5014 331.876 103.189C331.876 103.189 371.114 94.3656 400.13 110.864C412.935 118.145 420.072 125.641 423.408 129.874Z" fill="#EAEAEA"/>
<path d="M522.651 93.5048C522.651 93.5048 527.17 86.188 540.548 79.3016C560.634 69.0437 587.462 75.1411 587.462 75.1411C613.143 52.6167 636.456 79.4092 636.456 79.4092C652.847 77.9028 659.447 93.8635 659.447 93.8635L522.651 93.5048Z" fill="#EAEAEA"/>
<path d="M412.433 42.0717C412.433 42.0717 417.633 33.0333 433.056 24.6046C456.19 11.9077 487.071 19.368 487.071 19.368C516.626 -8.32115 543.454 24.5687 543.454 24.5687C562.32 22.7036 569.888 42.3228 569.888 42.3228L412.433 42.0717Z" fill="#EAEAEA"/>
<path d="M304.258 234.282H267.603L268.643 230.623C277.215 200.46 280.048 80.4851 280.084 79.3015L278.936 76.4321L294.467 76.468L293.355 79.2297C296.332 167.928 306.984 230.372 307.092 230.982L307.594 234.282H304.258Z" fill="#ECF1FC"/>
<path d="M313.297 241.24L262.438 241.204V233.134H313.297V241.24Z" fill="#ECF1FC"/>
<path d="M333.059 318.748L242.603 318.713V309.782H333.059V318.748Z" fill="#ECF1FC"/>
<path d="M282.056 238.802C280.227 266.096 268.571 309.782 268.571 309.782H249.31C258.528 289.84 268.606 238.802 268.606 238.802H282.056Z" fill="#ECF1FC"/>
<path d="M307.127 238.802C307.127 238.802 317.17 289.876 326.352 309.782H307.091C307.091 309.782 295.471 266.132 293.677 238.802H307.127Z" fill="#ECF1FC"/>
<path d="M262.222 318.712L228.113 381.408H207.812L242.46 318.712H262.222Z" fill="#ECF1FC"/>
<path d="M333.203 318.749L367.85 381.48L347.514 381.444L313.44 318.749H333.203Z" fill="#ECF1FC"/>
<path d="M342.062 359.493L335.319 359.134C328.935 343.425 310.14 332.019 287.939 332.019C268.284 332.019 251.283 340.95 243.213 353.898L235 353.432C235 353.432 255.838 314.265 256.735 314.265C257.631 314.265 321.223 315.377 321.223 315.377L342.062 359.493Z" fill="#ECF1FC"/>
<path d="M298.77 256.949L275.708 256.913V251.784H298.77V256.949Z" fill="#ECF1FC"/>
<path d="M278.9 76.3964L281.841 66.7124L291.49 66.7483L294.395 76.3964H278.9Z" fill="#ECF1FC"/>
<path d="M287.221 70.1553H286.074V41.7129H287.257L287.221 70.1553Z" fill="#ECF1FC"/>
<g opacity="0.5">
<path d="M656.147 389.549L656.183 247.516L707.867 247.552V237.043C789.68 228.041 840.861 263.621 840.861 263.621L840.826 389.621L656.147 389.549Z" fill="#ECF1FC"/>
</g>
<path d="M547.793 194.398C587.57 171.371 630.789 177.433 630.789 177.433L638.214 179.764L643.486 212.51H653.098V223.342L665.652 264.768H684.769V276.855L699.151 319.824L722.644 318.855V328.109H727.378V341.093L723.648 344.142L740.757 389.585L547.722 389.513L547.793 244.539V194.398Z" fill="#ECF1FC"/>
<path d="M575.124 224.132H564.615V214.017C564.615 211.112 566.982 208.745 569.888 208.745C572.793 208.745 575.16 211.112 575.16 214.017L575.124 224.132Z" fill="white"/>
<path d="M605.791 263.262L589.794 263.226L589.83 247.875C589.83 243.464 593.417 239.877 597.828 239.877C602.204 239.877 605.791 243.464 605.791 247.875V263.262Z" fill="white"/>
<path d="M580.612 263.226H564.615V247.875C564.615 243.464 568.202 239.877 572.614 239.877C577.025 239.877 580.612 243.464 580.612 247.875V263.226Z" fill="white"/>
<path d="M605.791 301.891H589.794V286.504C589.794 282.092 593.417 278.505 597.792 278.505C602.204 278.505 605.791 282.128 605.791 286.504V301.891Z" fill="white"/>
<path d="M580.576 301.855H564.58L564.615 286.504C564.615 282.092 568.202 278.505 572.614 278.505C576.99 278.505 580.576 282.092 580.576 286.504V301.855Z" fill="white"/>
<path d="M797.714 348.661H776.911V328.683C776.911 322.944 781.61 318.282 787.313 318.282C793.051 318.282 797.714 322.944 797.714 328.683V348.661Z" fill="white"/>
<path d="M830.603 348.697L809.765 348.661L809.801 328.683C809.801 322.944 814.463 318.282 820.202 318.282C825.905 318.282 830.603 322.98 830.603 328.683V348.697Z" fill="white"/>
<path d="M797.714 300.564H776.911L776.947 280.55C776.947 274.847 781.61 270.149 787.348 270.149C793.051 270.149 797.75 274.847 797.75 280.55L797.714 300.564Z" fill="white"/>
<path d="M830.604 300.563H809.801V280.585C809.801 274.847 814.499 270.184 820.202 270.184C825.941 270.184 830.604 274.847 830.604 280.585V300.563Z" fill="white"/>
<path d="M511.03 194.685L438.615 194.649L438.651 145.978L511.03 146.013V194.685Z" fill="#CADBFC"/>
<path d="M456.62 170.331C456.62 160.289 464.798 152.147 474.84 152.147C484.883 152.147 493.061 160.289 493.025 170.331C493.025 180.41 484.883 188.552 474.84 188.552C464.762 188.552 456.62 180.374 456.62 170.331Z" fill="white"/>
<path d="M503.642 146.014L445.932 145.978V123.418H503.678L503.642 146.014Z" fill="#ECF1FC"/>
<path d="M445.932 123.418L456.656 92.8232L493.061 92.8591L503.678 123.418H445.932Z" fill="#CADBFC"/>
<path d="M493.133 92.859L456.656 92.8231V62.5515L493.169 62.5874L493.133 92.859Z" fill="#ECF1FC"/>
<path d="M477.207 17.6103C481.763 52.2577 494.28 62.5873 494.28 62.5873L455.544 62.5514C470.572 47.4874 473.8 17.5745 473.8 17.5745L477.207 17.6103Z" fill="#CADBFC"/>
<path d="M468.528 88.6266H464.26V75.6787C464.26 74.5668 465.192 73.6343 466.304 73.6343H466.484C467.631 73.6343 468.528 74.5668 468.528 75.6787V88.6266Z" fill="white"/>
<path d="M476.813 88.6268H472.545V75.6789C472.545 74.5671 473.477 73.6345 474.589 73.6345H474.805C475.916 73.6345 476.849 74.5671 476.849 75.6789L476.813 88.6268Z" fill="white"/>
<path d="M485.565 88.6269H481.261L481.297 75.679C481.297 74.5671 482.193 73.6704 483.305 73.6704H483.52C484.632 73.6704 485.565 74.5671 485.565 75.7148V88.6269Z" fill="white"/>
<path d="M477.889 142.212H472.581V130.878C472.581 129.695 473.549 128.726 474.733 128.726H475.737C476.921 128.726 477.889 129.695 477.889 130.878V142.212Z" fill="white"/>
<path d="M486.82 142.212H481.547V130.878C481.547 129.695 482.516 128.726 483.699 128.726H484.668C485.851 128.726 486.82 129.695 486.82 130.878V142.212Z" fill="white"/>
<path d="M495.392 142.212H490.12V130.878C490.12 129.695 491.088 128.726 492.272 128.726H493.276C494.459 128.726 495.428 129.695 495.428 130.878L495.392 142.212Z" fill="white"/>
<path d="M468.205 142.212H462.933V130.878C462.933 129.695 463.901 128.726 465.085 128.726H466.053C467.237 128.726 468.205 129.695 468.205 130.878V142.212Z" fill="white"/>
<path d="M458.521 142.212L453.249 142.176V130.878C453.249 129.694 454.217 128.726 455.401 128.726H456.369C457.588 128.726 458.557 129.694 458.557 130.878L458.521 142.212Z" fill="white"/>
<path d="M507.156 208.422L441.018 208.386V194.649L507.192 194.685L507.156 208.422Z" fill="#ECF1FC"/>
<path d="M507.121 399.915L440.946 399.879L441.018 208.386L507.156 208.422L507.121 399.915Z" fill="#ECF1FC"/>
<path d="M67.4654 417.525C67.4654 417.525 60.0409 364.048 122.7 347.262C185.324 330.477 201.177 379.256 201.177 379.256C201.177 379.256 222.589 367.24 241.814 375.92C241.814 375.92 269.144 350.562 320.434 360.282C320.434 360.282 339.479 318.21 390.625 321.116C422.726 322.945 451.563 360.354 451.563 360.354C451.563 360.354 481.906 318.461 536.388 354.938C536.388 354.938 563.898 338.762 590.905 354.974C590.905 354.974 614.828 346.868 629.032 353.36C629.032 353.36 664.863 344.752 684.84 373.373C684.84 373.373 733.512 358.776 766.832 381.838C766.832 381.838 778.56 374.808 792.262 377.247C792.262 377.247 808.796 369.069 826.443 377.247C844.089 385.461 842.619 401.995 842.619 401.995C842.619 401.995 867.259 397.476 869.411 418.709L67.4654 417.525Z" fill="#D7E1F7"/>
<path d="M476.06 22.2373H474.984V1.90088H476.06V22.2373Z" fill="#CADBFC"/>
<path d="M473.585 1.90095C473.585 0.86081 474.446 0 475.522 0C476.562 0 477.423 0.86081 477.423 1.90095C477.423 2.97695 476.562 3.83775 475.522 3.83775C474.446 3.83775 473.585 2.97695 473.585 1.90095Z" fill="#CADBFC"/>
<path d="M605.719 51.1103C605.719 51.1103 609.162 42.6099 617.375 43.5424C617.375 43.5424 629.319 29.375 642.016 41.6773C642.016 41.6773 655.538 38.6286 665.545 44.2956C672.252 48.0975 674.44 52.0787 674.44 52.0787L605.719 51.1103Z" fill="#EAEAEA"/>
<path d="M173.703 95.4772C173.703 95.4772 177.182 86.8333 185.503 87.8017C185.503 87.8017 197.626 73.4191 210.538 85.9007C210.538 85.9007 224.275 82.8162 234.425 88.5907C241.204 92.4285 243.428 96.4814 243.428 96.4814L173.703 95.4772Z" fill="#EAEAEA"/>
<path d="M274.746 275.308C274.746 275.308 290.981 278.57 301.033 275.118C311.122 271.628 314.878 203.54 304.484 196.257C290.298 186.281 267.159 191.061 267.159 191.061L274.746 275.308Z" fill="#233862"/>
<path d="M204.837 230.889C204.837 230.889 204.344 226.185 203.282 224.895C202.22 223.568 200.968 219.812 200.057 220.419C199.185 221.026 200.437 223.682 199.678 224.554C198.957 225.464 191.371 222.619 190.764 223.644C190.119 224.706 190.005 228.12 192.699 229.485C195.354 230.889 201.764 233.734 204.116 234.985C205.671 235.782 204.837 230.889 204.837 230.889Z" fill="#FFB27D"/>
<path d="M216.179 232.178C214.054 233.733 211.323 252.206 218.037 249.172C224.751 246.137 248.724 222.733 251.835 217.423C254.983 212.074 254.604 201.074 254.604 201.074C239.848 192.577 218.303 230.623 216.179 232.178Z" fill="#FFB27D"/>
<path d="M219.971 235.669C219.971 235.669 227.482 248.452 234.461 252.852C234.967 253.181 235.536 253.459 236.168 253.687C243.907 256.608 258.624 252.852 258.624 252.852L260.597 247.656C260.597 247.656 254.755 245.949 247.396 244.773C240.037 243.597 232.641 221.179 224.903 216.513C221.299 214.351 220.313 227.286 220.047 233.014C220.009 234.607 219.971 235.669 219.971 235.669Z" fill="#002248"/>
<path d="M219.971 235.669C219.971 235.669 227.482 248.452 234.462 252.852C234.967 253.181 235.536 253.459 236.168 253.687C235.941 253.459 228.772 245.873 228.392 241.169C227.975 236.39 224.485 231.231 221.034 231.989C220.578 232.103 220.275 232.483 220.047 233.014C220.009 234.607 219.971 235.669 219.971 235.669Z" fill="#254F7E"/>
<path d="M204.04 194.398C204.04 194.398 210.413 198.153 206.506 205.436C206.506 205.436 212.082 204.412 213.296 202.743C213.296 202.743 213.144 203.426 212.954 203.767C212.954 203.767 218.075 202.591 219.744 200.467C221.413 198.343 213.182 172.701 199.868 179.339C199.868 179.339 187.653 181.615 192.433 195.119C197.212 208.661 192.698 209.874 192.698 209.874C192.698 209.874 194.14 210.14 194.747 209.988C194.747 209.988 195.543 209.419 195.581 208.888C195.581 208.888 195.619 209.685 195.43 209.988C195.43 209.988 200.437 209.192 202.371 206.688C204.344 204.222 205.482 197.053 204.04 194.398Z" fill="#233862"/>
<path d="M197.744 211.733C197.554 213.402 197.364 214.92 197.25 215.64C197.023 217.233 212.272 216.171 213.258 216.171C212.575 215.868 210.489 209.306 209.844 206.802C209.047 203.768 208.44 200.505 208.44 200.505L197.668 201.188L197.023 201.226C197.402 202.705 197.706 204.071 197.895 205.361C197.921 205.538 197.946 205.715 197.971 205.892C198.161 207.333 198.009 209.647 197.744 211.733Z" fill="#FFB27D"/>
<path d="M209.92 199.405C209.92 199.405 211.665 193.867 211.285 189.619C211.058 186.622 206.734 176.267 196.34 180.667C196.34 180.667 193.306 181.805 190.878 184.574C188.981 186.774 186.478 191.098 192.737 199.443L194.557 202.364L209.92 199.405Z" fill="#233862"/>
<path d="M197.744 211.734C205.292 209.534 208.479 200.809 208.479 200.809C205.292 200.923 201.158 203.123 197.895 205.361C197.921 205.538 197.946 205.715 197.971 205.892C198.161 207.334 198.009 209.648 197.744 211.734Z" fill="#ED975D"/>
<path d="M197.213 208.661C197.213 208.661 210.83 205.285 208.592 196.865C206.392 188.406 206.62 182.299 197.858 184.081C189.057 185.864 188.223 189.544 188.299 192.54C188.337 195.537 193.609 209.344 197.213 208.661Z" fill="#FFB27D"/>
<path d="M189.892 198.382C191.219 198.192 190.347 193.678 190.461 191.364C190.537 190.226 191.485 188.367 192.471 186.812C193.381 188.33 198.502 196.371 205.785 197.623C205.785 197.623 201.916 195.688 198.578 192.426C200.285 193.564 202.182 194.399 204.04 194.399C210.11 194.361 212.196 192.161 212.196 192.161C212.196 192.161 206.885 189.847 204.382 184.043C204.382 184.043 199.792 178.353 196.34 180.667C196.34 180.667 191.485 181.35 187.464 187.761C184.733 192.047 189.892 198.382 189.892 198.382Z" fill="#233862"/>
<path d="M194.102 204.413C194.102 204.413 194.936 205.437 195.126 205.551C195.354 205.703 197.554 205.134 198.35 204.83C199.185 204.527 199.336 203.275 199.336 203.275C197.516 203.123 194.102 204.413 194.102 204.413Z" fill="white"/>
<path d="M204.457 332.396C204.634 333.129 204.811 333.85 204.988 334.558C206.012 338.806 206.961 342.789 207.568 346.089C208.364 350.375 208.554 353.6 207.53 354.927C203.281 360.465 207.53 404.467 207.53 404.467L212.347 409.398C212.347 409.398 220.692 366.003 222.968 359.176C223.992 356.103 225.471 342.865 226.799 329.399C226.875 328.716 226.951 328.046 227.027 327.388C227.254 324.999 227.444 322.647 227.672 320.371C228.847 307.626 229.758 296.701 229.758 296.701C229.758 296.701 220.882 290.443 212.802 289.76C208.061 289.343 203.585 290.86 201.385 296.701C198.198 305.198 201.46 319.84 204.457 332.396Z" fill="#FFB27D"/>
<path d="M205.823 335.316C212.044 328.564 216.102 318.854 223.689 305.274C224.334 298.37 218.871 291.846 212.802 289.76C208.061 289.343 203.585 290.86 201.385 296.701C198.198 305.198 202.788 322.761 205.823 335.316Z" fill="#ED975D"/>
<path d="M194.823 258.617C194.86 258.883 195.164 261.424 195.202 261.766C195.24 262.183 194.936 263.7 194.936 263.7C194.936 263.7 210.906 270.68 224.068 262.714C224.068 262.714 227.33 245.455 226.875 233.772C226.875 233.772 227.672 218.371 224.903 216.513C219.972 213.175 212.423 212.985 212.613 211.999C212.727 211.126 211.778 209.723 210.944 209.988C209.388 210.482 204.913 212.682 201.802 211.847C200.209 211.43 198.236 209.609 196.719 210.026C194.86 210.557 196.833 214.996 195.771 215.071C194.329 215.109 187.843 215.223 185.871 217.954C184.277 220.192 194.671 257.973 194.823 258.617Z" fill="#002248"/>
<path d="M148.052 373.21L149.57 379.469C149.57 379.469 193.381 356.823 199.033 352.499C201.309 350.754 204.344 341.271 207.113 330.536C211.247 314.529 214.927 295.79 214.927 295.79C214.927 295.79 208.744 272.159 192.319 286.611C182.495 295.297 184.012 311.95 185.112 324.922C185.833 333.609 186.326 340.664 183.064 342.485C176.729 346.013 158.029 362.399 152.149 373.665L148.052 373.21Z" fill="#FFB27D"/>
<path d="M171.798 311.192C171.798 311.192 176.046 312.406 182.457 313.771C195.733 316.54 218.113 319.878 230.934 314.15C230.934 314.15 230.138 295.298 227.9 281.036C226.117 269.618 224.448 262.108 224.448 262.108C224.448 262.108 212.537 265.104 200.399 262.79C200.298 262.765 200.184 262.74 200.057 262.715C198.464 262.411 196.871 261.994 195.316 261.501C195.316 261.501 186.174 274.587 181.471 283.729C178.208 290.026 171.798 311.192 171.798 311.192Z" fill="#1893F8"/>
<path d="M133.107 386.486C133.335 387.017 134.397 387.283 135.231 387.397C135.762 387.472 136.331 387.283 136.748 386.903C137.735 385.955 139.328 383.869 142.438 382.883C144.145 382.314 149.57 379.469 149.57 379.469H149.607C149.645 379.355 149.797 378.824 149.228 375.789C148.963 374.196 152.149 373.665 152.149 373.665C152.149 373.665 152.073 373.172 151.694 372.603C151.39 372.148 150.897 371.693 150.139 371.389C149.076 371.01 147.559 369.417 146.573 368.317C145.966 367.634 145.587 367.103 145.587 367.103C145.587 367.103 145.018 366.61 143.5 368.658L142.021 371.2C141.642 372.148 141.528 372.906 141.149 373.855C140.542 375.296 139.631 375.6 139.442 375.638C139.416 375.638 139.404 375.638 139.404 375.638L133.107 386.486Z" fill="#2B478B"/>
<path d="M202.713 411.636L205.292 413.039C206.241 413.343 207.037 413.456 207.986 413.836C209.427 414.367 210.451 415.467 210.489 415.657C211.21 418.653 212.31 418.539 212.31 418.539H222.703C223.196 418.312 222.362 416.188 221.945 415.808C220.958 414.822 218 415.315 216.937 412.281C216.331 410.536 213.334 405.225 213.334 405.225V405.187C213.22 405.149 212.651 405.036 209.655 405.68C208.099 405.984 207.454 402.835 207.454 402.835C207.454 402.835 206.961 402.911 206.392 403.329C205.975 403.632 205.52 404.125 205.254 404.884C204.875 405.946 203.358 407.539 202.258 408.525C201.575 409.17 201.082 409.587 201.082 409.587C201.082 409.587 200.627 410.118 202.713 411.636Z" fill="#2B478B"/>
<path d="M211.779 265.635C220.617 265.635 224.259 262.6 224.524 262.373L224.941 257.631C224.828 257.707 213.145 265.407 194.823 258.617L195.203 261.766C202.258 264.383 207.189 265.635 211.779 265.635Z" fill="#254F7E"/>
<path d="M194.861 216.93C194.861 216.93 164.629 217.992 158.749 216.589C152.908 215.185 138.532 207.409 138.532 207.409L136.445 211.43C136.445 211.43 150.784 224.327 158.787 226.679C166.753 229.03 193.344 231.382 193.344 231.382L194.861 216.93Z" fill="#FFB27D"/>
<path d="M137.014 215.83H141.262C142.097 215.83 142.779 215.147 142.779 214.313V199.405C142.779 198.571 142.097 197.888 141.262 197.888H137.014C136.179 197.888 135.534 198.571 135.534 199.405V214.351C135.534 215.147 136.179 215.83 137.014 215.83Z" fill="#37547F"/>
<path d="M135.686 215.83H139.934C140.769 215.83 141.452 215.147 141.452 214.351V199.405C141.452 198.571 140.769 197.888 139.934 197.888H135.686C134.851 197.888 134.207 198.571 134.207 199.405V214.351C134.207 215.147 134.851 215.83 135.686 215.83Z" fill="#152847"/>
<path d="M134.321 209.609C135.648 209.343 138.607 202.326 137.469 201.036C136.369 199.747 132.652 203.16 132.652 203.16C131.21 206.081 132.955 209.836 134.321 209.609Z" fill="#FFB27D"/>
<path d="M144.145 199.253C144.145 199.253 141.224 199.557 140.883 197.926C140.541 196.294 140.541 194.019 140.541 194.019C140.541 194.019 140.39 198.76 139.138 199.177C137.924 199.595 136.521 199.595 136.521 199.595C136.521 199.595 138.721 199.974 139.404 200.391C140.162 200.884 140.504 202.326 140.466 203.16C140.466 203.16 140.579 201.226 141.641 200.239C141.983 199.936 143.197 199.481 144.145 199.253Z" fill="white"/>
<path d="M194.102 215.147C194.102 215.147 171.836 217.954 166.677 216.551C161.518 215.109 147.066 209.723 144.904 210.709C144.904 210.709 142.969 213.592 143.842 217.575C143.842 217.575 151.277 225.541 158.37 227.741C165.425 229.903 187.881 231.724 189.664 238.817L195.999 235.062C195.999 235.062 199.033 218.258 198.578 217.992C198.123 217.689 194.102 215.147 194.102 215.147Z" fill="#002248"/>
<path d="M234.272 417.629H263.29C265.376 416.225 262.721 402.418 262.721 402.418C262.721 402.418 254.793 399.421 253.427 405.528C252.062 411.635 243.337 413.608 238.748 414.328C235.599 414.86 234.575 416.604 234.272 417.629Z" fill="#233862"/>
<path d="M242.731 273.562C242.731 273.562 243.338 293.287 244.893 312.822C246.979 339.412 252.631 405.3 252.631 405.3C252.631 405.3 256.311 408.449 264.466 406.704C264.466 406.704 271.18 384.665 273.38 359.213C273.405 358.833 273.431 358.441 273.456 358.037C273.506 357.607 273.544 357.177 273.57 356.747C274.518 343.509 275.77 322.95 276.756 305.691C277.742 288.545 278.463 274.738 278.463 274.738L242.731 273.562Z" fill="#002248"/>
<path d="M257.676 290.859L273.38 359.213C273.405 358.833 273.43 358.442 273.456 358.037C273.506 357.607 273.544 357.177 273.57 356.747C274.518 343.509 275.77 322.95 276.756 305.691L276.149 302.732L257.676 290.859Z" fill="#254F7E"/>
<path d="M277.325 417.629H306.343C308.43 416.187 305.774 402.418 305.774 402.418C305.774 402.418 297.847 399.421 296.481 405.528C295.115 411.635 286.391 413.57 281.801 414.328C278.615 414.86 277.629 416.566 277.325 417.629Z" fill="#233862"/>
<path d="M249.9 271.362C249.9 271.362 270.649 322.949 277.287 342.484C282.029 356.443 295.343 405.3 295.343 405.3C295.343 405.3 301.108 407.045 306.002 403.631C306.002 403.631 308.657 355.078 300.919 339.639C294.66 327.198 299.591 261.992 278.046 261.423C256.538 260.817 249.9 271.362 249.9 271.362Z" fill="#002248"/>
<path d="M243.565 240.372C244.665 258.276 241.631 276.711 241.631 276.711C248.117 283.614 285.746 286.611 293.18 280.807C294.963 279.442 289.236 269.466 288.401 249.475C287.87 237.375 289.387 227.475 289.653 222.695C290.639 205.322 292.422 201.643 288.742 199.443C284.76 197.053 275.846 194.853 266.363 193.829C263.214 193.488 258.852 193.867 254.414 194.777C252.897 195.081 251.379 195.46 249.9 195.915C245.348 197.205 241.138 199.064 238.52 201.302C235.068 204.222 228.089 214.464 228.089 214.464C228.089 214.464 237.458 227.209 242.124 229.409C242.2 229.435 242.263 229.473 242.314 229.523C242.958 233.089 243.338 236.768 243.565 240.334C243.565 240.359 243.565 240.372 243.565 240.372Z" fill="#1893F8"/>
<path d="M305.546 242.8C306.798 245.114 293.294 261.387 293.294 261.387L295.381 266.507C295.381 266.507 323.602 249.855 321.554 242.8C319.505 235.707 298.681 209.761 293.863 205.892C289.046 202.023 278.084 200.809 278.084 200.809C267.576 214.199 304.333 240.448 305.546 242.8Z" fill="#FFB27D"/>
<path d="M271.938 206.574C271.938 206.574 271.255 233.013 287.301 231.42C303.081 229.827 306.077 217.233 306.077 217.233C306.077 217.233 294.66 203.464 291.587 200.96C284.835 195.536 271.445 193.829 271.445 193.829L271.938 206.574Z" fill="#1893F8"/>
<path d="M273.418 176.38L266.211 179.946L258.625 183.663C258.625 183.663 258.283 185.484 258.094 188.822C257.98 190.225 257.714 193.791 257.107 194.36C254.68 196.598 255.173 199.139 258.549 199.822C268.373 201.719 272.622 198.608 274.253 196.711C274.784 196.067 274.86 195.194 274.48 194.436C273.304 192.311 271.066 186.546 273.418 176.38Z" fill="#FFB27D"/>
<path d="M266.211 179.945L258.625 183.663C258.625 183.663 258.283 185.483 258.094 188.821C266.78 188.252 271.825 183.359 271.825 183.359L266.211 179.945Z" fill="#ED985F"/>
<path d="M255.552 183.359C255.552 183.359 271.445 189.163 274.897 179.338C278.387 169.552 282.749 163.71 272.735 159.576C262.721 155.441 259.421 158.514 257.486 161.51C255.514 164.469 251.493 181.576 255.552 183.359Z" fill="#FFB27D"/>
<path d="M284.646 160.601C284.835 160.449 285.215 160.373 285.973 160.487C285.973 160.487 285.442 159.994 284.646 159.804C284.683 158.704 284.456 156.732 282.711 155.935C282.711 155.935 283.621 156.618 283.508 157.794C281.801 155.214 277.742 151.194 264.959 152.142C249.293 153.28 252.403 159.804 255.248 161.966C257.259 163.484 261.279 162.08 265.224 163.142C269.169 164.242 268.828 170.16 270.042 171.184C271.255 172.246 270.99 170.767 272.962 170.273C274.973 169.78 274.556 172.853 273.645 174.749C272.735 176.608 274.783 179.719 274.783 179.719C274.783 179.719 274.783 179.719 277.856 177.443C280.928 175.205 285.518 164.015 284.835 161.321C284.785 161.069 284.721 160.828 284.646 160.601Z" fill="#2C3A64"/>
<path d="M254.907 176.456C254.907 176.456 255.248 178.505 257.448 179.036C259.611 179.529 261.242 178.163 261.242 178.163C261.242 178.163 257.828 176.039 254.907 176.456Z" fill="white"/>
<path d="M193.495 261.462C194.785 263.548 199.451 264.459 200.74 261.462C201.992 258.503 195.013 254.862 195.013 254.862C193.495 254.293 192.206 259.414 193.495 261.462Z" fill="#FFB27D"/>
<path d="M293.294 261.386C293.294 261.386 286.694 258.844 284.266 260.362C281.801 261.917 278.842 268.365 280.777 268.631C282.711 268.896 287.187 265.786 288.249 266.507C289.311 267.227 292.573 270.452 295.38 266.507L293.294 261.386Z" fill="#FFB27D"/>
<path d="M277.211 194.094C277.211 194.094 270.383 210.443 274.745 224.668C278.311 236.351 288.78 241.813 288.78 241.813L288.591 235.061C271.445 220.723 284.19 195.839 284.19 195.839L277.211 194.094Z" fill="#233862"/>
<path d="M243.566 240.334C243.566 240.359 243.566 240.372 243.566 240.372C245.007 226.033 253.011 199.329 254.415 194.777C252.897 195.081 251.38 195.46 249.901 195.915C245.311 207.333 242.883 216.74 242.162 227.702C242.137 228.284 242.125 228.853 242.125 229.409C242.049 235.213 243.452 240.068 243.566 240.334Z" fill="#233862"/>
<path d="M813.387 417.848H789.5C788.209 416.772 790.397 414.298 792.656 414.154C793.625 414.047 794.88 414.262 796.279 414.585C796.638 410.209 798.503 390.554 805.568 391.343C813.531 392.24 805.568 400.023 803.309 404.614C801.659 408.021 799.901 412.899 799.112 415.194C799.758 415.338 800.416 415.469 801.085 415.589C802.161 412.361 806.071 401.457 811.056 402.103C816.938 402.856 814.571 407.196 810.41 409.814C807.362 411.715 803.632 414.405 801.838 415.732C803.345 415.983 804.923 416.127 806.537 416.091C810.626 416.019 812.598 417.203 813.387 417.848Z" fill="#82B378"/>
<path d="M336.184 416.055C331.199 410.388 316.278 392.742 324.348 393.208C332.347 393.638 336.256 410.245 337.368 415.876C337.942 415.804 338.516 415.72 339.089 415.625C338.838 413.831 338.838 410.783 341.528 409.814C345.223 408.559 344.29 413.544 342.963 415.087C343.931 415.015 344.649 415.051 345.043 415.302C346.048 415.912 346.478 416.808 346.621 417.31H324.312C325.604 416.772 329.621 415.158 331.952 415.983C332.454 416.163 333.1 416.234 333.889 416.234C330.374 414.154 318.932 410.567 324.384 409.85C329.37 409.169 333.1 414.262 334.355 416.198C334.929 416.198 335.539 416.127 336.184 416.055Z" fill="#82B378"/>
<path d="M558.051 396.579C558.589 395.288 560.024 394.678 561.315 395.216C562.571 395.718 565.583 399.197 565.404 399.556C565.261 399.915 560.706 400.345 559.45 399.843C558.159 399.305 557.549 397.87 558.051 396.579Z" fill="#82B378"/>
<path d="M574.371 401.17C575.554 401.888 575.913 403.43 575.196 404.614C574.478 405.761 570.569 408.164 570.246 407.949C569.887 407.734 570.21 403.179 570.927 401.995C571.645 400.812 573.187 400.453 574.371 401.17Z" fill="#82B378"/>
<path d="M563.18 407.806C563.61 406.515 565.009 405.761 566.3 406.192C567.627 406.622 570.856 409.85 570.748 410.209C570.604 410.603 566.121 411.357 564.794 410.962C563.467 410.532 562.75 409.133 563.18 407.806Z" fill="#82B378"/>
<path d="M571.43 415.374C571.43 415.266 570.928 404.936 565.261 399.592L565.368 399.449C571.107 404.829 571.609 415.266 571.609 415.374H571.43Z" fill="#82B378"/>
<path d="M590.332 400.058C589.542 400.56 586.386 400.919 586.243 400.704C586.099 400.453 587.642 397.691 588.431 397.153C589.22 396.651 590.296 396.866 590.834 397.655C591.336 398.444 591.121 399.52 590.332 400.058Z" fill="#82B378"/>
<path d="M582.835 403.107C583.481 403.824 584.342 406.873 584.127 407.052C583.911 407.232 580.934 406.156 580.289 405.474C579.643 404.757 579.679 403.681 580.396 403.035C581.078 402.39 582.19 402.426 582.835 403.107Z" fill="#82B378"/>
<path d="M588.251 408.343C587.39 408.809 584.234 408.917 584.09 408.666C583.947 408.451 585.704 405.797 586.529 405.33C587.39 404.864 588.43 405.151 588.896 405.976C589.363 406.837 589.076 407.877 588.251 408.343Z" fill="#82B378"/>
<path d="M584.234 412.289C584.198 412.217 583.122 405.08 586.243 400.632L586.35 400.704C583.23 405.116 584.342 412.181 584.342 412.253L584.234 412.289Z" fill="#82B378"/>
<path d="M578.747 414.763L578.388 414.691C576.953 396.364 571.358 383.165 571.25 382.985L571.609 382.842C571.681 383.021 577.312 396.292 578.747 414.763Z" fill="#82B378"/>
<path d="M567.628 378.466C568.417 377.785 569.6 377.857 570.318 378.646C570.999 379.435 571.824 382.806 571.609 382.985C571.394 383.201 568.166 381.945 567.448 381.156C566.767 380.367 566.838 379.184 567.628 378.466Z" fill="white"/>
<path d="M575.088 378.036C575.913 378.645 576.092 379.829 575.446 380.69C574.837 381.515 571.716 383.057 571.465 382.878C571.25 382.698 571.788 379.255 572.434 378.43C573.043 377.569 574.227 377.426 575.088 378.036Z" fill="white"/>
<path d="M577.491 384.384C577.204 385.388 576.164 385.998 575.16 385.711C574.155 385.424 571.573 383.093 571.681 382.806C571.752 382.519 575.124 381.802 576.164 382.053C577.168 382.34 577.742 383.38 577.491 384.384Z" fill="white"/>
<path d="M572.146 388.688C571.106 388.76 570.174 388.007 570.102 386.967C569.994 385.926 571.286 382.698 571.573 382.663C571.86 382.663 573.76 385.568 573.868 386.608C573.94 387.648 573.187 388.581 572.146 388.688Z" fill="white"/>
<path d="M566.157 385.604C565.655 384.671 566.014 383.524 566.946 383.022C567.879 382.555 571.358 382.519 571.465 382.806C571.609 383.057 569.636 385.891 568.704 386.393C567.771 386.859 566.623 386.501 566.157 385.604Z" fill="white"/>
<path d="M570.855 382.699C570.927 382.34 571.25 382.125 571.573 382.161C571.931 382.233 572.147 382.556 572.111 382.878C572.039 383.237 571.716 383.452 571.393 383.416C571.035 383.345 570.82 383.022 570.855 382.699Z" fill="#163560"/>
<path d="M582.764 395.575C584.055 396.579 584.234 398.444 583.194 399.7C582.19 400.991 577.204 403.143 576.846 402.856C576.487 402.569 577.599 397.261 578.639 396.005C579.643 394.714 581.508 394.535 582.764 395.575Z" fill="#82B378"/>
<path d="M558.302 416.629H558.051C555.505 404.578 550.627 396.328 550.555 396.221L550.735 396.113C550.806 396.221 555.72 404.506 558.302 416.629Z" fill="#82B378"/>
<path d="M547.722 393.53C548.188 393.028 548.977 392.957 549.515 393.423C550.053 393.889 550.914 396.041 550.77 396.185C550.663 396.328 548.403 395.79 547.865 395.324C547.327 394.857 547.291 394.068 547.722 393.53Z" fill="white"/>
<path d="M552.636 392.598C553.245 392.921 553.46 393.71 553.138 394.32C552.779 394.93 550.842 396.221 550.663 396.113C550.484 396.006 550.555 393.674 550.914 393.065C551.237 392.455 552.026 392.24 552.636 392.598Z" fill="white"/>
<path d="M554.787 396.579C554.68 397.297 554.07 397.763 553.353 397.691C552.671 397.584 550.77 396.256 550.806 396.041C550.806 395.862 552.994 395.073 553.711 395.18C554.393 395.252 554.895 395.898 554.787 396.579Z" fill="white"/>
<path d="M551.631 399.915C550.949 400.058 550.268 399.628 550.125 398.946C549.945 398.265 550.519 396.041 550.734 395.969C550.914 395.933 552.42 397.691 552.563 398.372C552.743 399.054 552.312 399.735 551.631 399.915Z" fill="white"/>
<path d="M547.363 398.372C546.969 397.798 547.112 397.009 547.686 396.615C548.26 396.22 550.555 395.897 550.663 396.077C550.771 396.22 549.695 398.3 549.157 398.695C548.583 399.09 547.794 398.946 547.363 398.372Z" fill="white"/>
<path d="M550.268 396.041C550.268 395.826 550.448 395.647 550.663 395.647C550.914 395.647 551.093 395.826 551.093 396.077C551.093 396.293 550.878 396.472 550.663 396.472C550.412 396.472 550.232 396.293 550.268 396.041Z" fill="#163560"/>
<path d="M559.27 403.537C560.203 404.111 560.49 405.33 559.916 406.263C559.378 407.196 556.258 409.061 556.007 408.917C555.72 408.738 556.007 405.115 556.58 404.183C557.154 403.25 558.374 402.963 559.27 403.537Z" fill="#82B378"/>
<path d="M603.566 386.644L603.889 386.752C603.817 386.931 598.796 398.659 597.541 414.979L597.218 415.051C598.473 398.588 603.53 386.788 603.566 386.644Z" fill="#82B378"/>
<path d="M607.261 385.102C606.651 385.819 603.746 386.931 603.566 386.752C603.351 386.572 604.104 383.595 604.75 382.878C605.36 382.197 606.4 382.125 607.117 382.735C607.799 383.344 607.87 384.42 607.261 385.102Z" fill="white"/>
<path d="M602.849 382.699C603.387 383.416 603.889 386.465 603.674 386.644C603.495 386.788 600.697 385.425 600.159 384.707C599.585 383.954 599.729 382.878 600.482 382.34C601.235 381.766 602.275 381.946 602.849 382.699Z" fill="white"/>
<path d="M599.513 385.927C600.41 385.676 603.459 386.322 603.531 386.573C603.602 386.824 601.307 388.94 600.41 389.191C599.513 389.406 598.581 388.904 598.33 388.007C598.115 387.111 598.617 386.178 599.513 385.927Z" fill="white"/>
<path d="M601.558 389.98C601.666 389.047 603.351 386.429 603.602 386.465C603.853 386.501 605.001 389.37 604.929 390.302C604.822 391.235 603.997 391.916 603.1 391.809C602.168 391.737 601.486 390.912 601.558 389.98Z" fill="white"/>
<path d="M606.149 389.764C605.324 389.334 603.567 386.823 603.674 386.572C603.818 386.321 606.902 386.357 607.727 386.787C608.552 387.218 608.875 388.258 608.444 389.047C608.014 389.872 606.974 390.195 606.149 389.764Z" fill="white"/>
<path d="M603.781 387.11C603.459 387.182 603.172 386.967 603.136 386.644C603.1 386.357 603.279 386.07 603.602 386.034C603.889 385.963 604.176 386.178 604.248 386.501C604.284 386.788 604.068 387.074 603.781 387.11Z" fill="#163560"/>
<path d="M596.5 402.712C597.397 403.824 598.401 408.559 598.079 408.81C597.756 409.097 593.308 407.16 592.412 406.012C591.479 404.9 591.658 403.25 592.77 402.318C593.918 401.421 595.568 401.6 596.5 402.712Z" fill="#82B378"/>
<path d="M545.354 417.92C545.354 417.92 547.184 413.15 553.747 412.827C560.347 412.54 564.866 416.413 570.318 414.62C575.77 412.827 584.772 408.774 593.273 411.5C601.809 414.19 603.243 417.92 603.243 417.92H545.354Z" fill="#82B378"/>
<path d="M357.812 417.705L357.453 417.633C355.983 398.695 350.208 385.102 350.101 384.922L350.459 384.743C350.531 384.958 356.377 398.624 357.812 417.705Z" fill="#82B378"/>
<path d="M346.371 380.26C347.16 379.543 348.415 379.615 349.132 380.404C349.814 381.229 350.71 384.708 350.459 384.887C350.244 385.102 346.909 383.811 346.191 382.986C345.474 382.197 345.546 380.942 346.371 380.26Z" fill="white"/>
<path d="M354.046 379.794C354.907 380.44 355.086 381.659 354.44 382.52C353.795 383.381 350.567 384.959 350.316 384.78C350.065 384.6 350.674 381.05 351.32 380.189C351.965 379.328 353.185 379.149 354.046 379.794Z" fill="white"/>
<path d="M356.52 386.357C356.234 387.397 355.158 388.007 354.117 387.72C353.077 387.433 350.459 384.994 350.531 384.707C350.602 384.42 354.117 383.667 355.158 383.954C356.198 384.241 356.807 385.317 356.52 386.357Z" fill="white"/>
<path d="M351.033 390.769C349.957 390.876 348.988 390.087 348.881 389.011C348.809 387.935 350.136 384.6 350.423 384.564C350.746 384.528 352.683 387.577 352.79 388.617C352.898 389.693 352.109 390.661 351.033 390.769Z" fill="white"/>
<path d="M344.828 387.576C344.326 386.608 344.684 385.46 345.653 384.958C346.585 384.456 350.172 384.42 350.316 384.707C350.459 384.958 348.415 387.899 347.446 388.401C346.514 388.903 345.33 388.544 344.828 387.576Z" fill="white"/>
<path d="M349.706 384.6C349.742 384.241 350.065 383.99 350.423 384.062C350.782 384.097 351.033 384.456 350.961 384.779C350.926 385.138 350.567 385.389 350.244 385.317C349.885 385.281 349.634 384.922 349.706 384.6Z" fill="#F78248"/>
<path d="M360.359 389.729C361.65 390.769 361.865 392.706 360.789 393.997C359.749 395.324 354.62 397.548 354.225 397.261C353.867 396.938 355.014 391.451 356.055 390.159C357.131 388.868 359.031 388.653 360.359 389.729Z" fill="#82B378"/>
<path d="M353.472 405.869C354.548 406.407 356.987 409.707 356.843 409.994C356.7 410.317 352.611 410.424 351.499 409.886C350.423 409.348 349.957 408.021 350.495 406.909C351.033 405.797 352.36 405.331 353.472 405.869Z" fill="#82B378"/>
<path d="M376.893 379.865L377.288 380.044C377.18 380.259 370.545 395.861 368.859 417.632L368.429 417.704C370.114 395.825 376.786 380.08 376.893 379.865Z" fill="#82B378"/>
<path d="M381.807 377.856C380.982 378.789 377.144 380.295 376.857 380.044C376.606 379.829 377.61 375.812 378.435 374.88C379.26 373.947 380.659 373.875 381.592 374.7C382.524 375.525 382.596 376.924 381.807 377.856Z" fill="white"/>
<path d="M375.924 374.628C376.641 375.633 377.323 379.685 377.036 379.901C376.749 380.116 373.055 378.287 372.302 377.318C371.584 376.314 371.799 374.915 372.768 374.162C373.772 373.409 375.171 373.624 375.924 374.628Z" fill="white"/>
<path d="M371.513 378.932C372.697 378.61 376.714 379.47 376.821 379.829C376.893 380.152 373.88 382.949 372.661 383.272C371.477 383.595 370.258 382.878 369.935 381.694C369.612 380.511 370.294 379.255 371.513 378.932Z" fill="white"/>
<path d="M374.203 384.313C374.347 383.093 376.57 379.65 376.929 379.686C377.288 379.686 378.794 383.524 378.686 384.743C378.579 385.998 377.467 386.895 376.247 386.787C374.992 386.644 374.095 385.568 374.203 384.313Z" fill="white"/>
<path d="M380.336 384.061C379.224 383.487 376.857 380.116 377.037 379.793C377.18 379.47 381.305 379.506 382.417 380.08C383.493 380.654 383.923 382.017 383.349 383.129C382.775 384.205 381.412 384.635 380.336 384.061Z" fill="white"/>
<path d="M377.144 380.546C376.749 380.582 376.355 380.331 376.319 379.901C376.247 379.506 376.498 379.148 376.929 379.076C377.323 379.004 377.682 379.291 377.753 379.686C377.825 380.08 377.538 380.475 377.144 380.546Z" fill="#F78248"/>
<path d="M368.572 395.467C369.791 396.937 371.083 403.25 370.652 403.573C370.222 403.931 364.34 401.349 363.12 399.878C361.901 398.372 362.152 396.184 363.658 394.965C365.129 393.745 367.353 393.96 368.572 395.467Z" fill="#82B378"/>
<path d="M376.857 405.295C377.467 406.586 376.929 408.092 375.673 408.702C374.418 409.348 369.72 409.24 369.576 408.881C369.397 408.487 372.194 404.757 373.45 404.147C374.705 403.501 376.247 404.039 376.857 405.295Z" fill="#82B378"/>
<path d="M50.1843 416.055C45.1988 410.388 30.2782 392.742 38.3482 393.208C46.3465 393.638 50.256 410.245 51.3678 415.876C51.9417 415.804 52.5156 415.72 53.0895 415.625C52.8384 413.831 52.8384 410.783 55.5284 409.814C59.2227 408.559 58.2902 413.544 56.9631 415.087C57.9315 415.015 58.6488 415.051 59.0433 415.302C60.0476 415.912 60.478 416.808 60.6215 417.31H38.3123C39.6035 416.772 43.6206 415.158 45.952 415.983C46.4541 416.163 47.0997 416.234 47.8888 416.234C44.3738 414.154 32.9323 410.567 38.3841 409.85C43.3696 409.169 47.0997 414.262 48.355 416.198C48.9289 416.198 49.5387 416.127 50.1843 416.055Z" fill="#82B378"/>
<path d="M71.8119 417.705L71.4533 417.633C69.9827 398.695 64.2082 385.102 64.1006 384.922L64.4593 384.743C64.531 384.958 70.3773 398.624 71.8119 417.705Z" fill="#82B378"/>
<path d="M60.3706 380.26C61.1596 379.543 62.415 379.615 63.1323 380.404C63.8138 381.229 64.7104 384.708 64.4594 384.887C64.2442 385.102 60.9086 383.811 60.1912 382.986C59.4739 382.197 59.5456 380.942 60.3706 380.26Z" fill="white"/>
<path d="M68.0457 379.794C68.9065 380.44 69.0859 381.659 68.4403 382.52C67.7947 383.381 64.5667 384.959 64.3156 384.78C64.0645 384.6 64.6742 381.05 65.3199 380.189C65.9655 379.328 67.1849 379.149 68.0457 379.794Z" fill="white"/>
<path d="M70.5205 386.357C70.2335 387.397 69.1576 388.007 68.1174 387.72C67.0773 387.433 64.459 384.994 64.5307 384.707C64.6025 384.42 68.1174 383.667 69.1576 383.954C70.1977 384.241 70.8074 385.317 70.5205 386.357Z" fill="white"/>
<path d="M65.0327 390.769C63.9567 390.876 62.9883 390.087 62.8807 389.011C62.809 387.935 64.136 384.6 64.423 384.564C64.7458 384.528 66.6826 387.577 66.7902 388.617C66.8978 389.693 66.1087 390.661 65.0327 390.769Z" fill="white"/>
<path d="M58.8279 387.576C58.3258 386.608 58.6845 385.46 59.6529 384.958C60.5854 384.456 64.1721 384.42 64.3155 384.707C64.459 384.958 62.4146 387.899 61.4462 388.401C60.5137 388.903 59.33 388.544 58.8279 387.576Z" fill="white"/>
<path d="M63.7061 384.6C63.742 384.241 64.0648 383.99 64.4235 384.062C64.7821 384.097 65.0332 384.456 64.9615 384.779C64.9256 385.138 64.5669 385.389 64.2441 385.317C63.8855 385.281 63.6344 384.922 63.7061 384.6Z" fill="#F78248"/>
<path d="M74.3585 389.729C75.6497 390.769 75.8649 392.706 74.7889 393.997C73.7488 395.324 68.6198 397.548 68.2253 397.261C67.8666 396.938 69.0144 391.451 70.0545 390.159C71.1305 388.868 73.0315 388.653 74.3585 389.729Z" fill="#82B378"/>
<path d="M67.4718 405.869C68.5478 406.407 70.9868 409.707 70.8433 409.994C70.6999 410.317 66.611 410.424 65.4992 409.886C64.4232 409.348 63.9569 408.021 64.4949 406.909C65.0329 405.797 66.36 405.331 67.4718 405.869Z" fill="#82B378"/>
<path d="M90.8933 379.865L91.2878 380.044C91.1802 380.259 84.5448 395.861 82.8591 417.632L82.4287 417.704C84.1145 395.825 90.7857 380.08 90.8933 379.865Z" fill="#82B378"/>
<path d="M95.8067 377.856C94.9818 378.789 91.144 380.295 90.8571 380.044C90.606 379.829 91.6103 375.812 92.4352 374.88C93.2601 373.947 94.659 373.875 95.5915 374.7C96.524 375.525 96.5958 376.924 95.8067 377.856Z" fill="white"/>
<path d="M89.9241 374.628C90.6415 375.633 91.323 379.685 91.0361 379.901C90.7491 380.116 87.0548 378.287 86.3016 377.318C85.5843 376.314 85.7995 374.915 86.7679 374.162C87.7722 373.409 89.1709 373.624 89.9241 374.628Z" fill="white"/>
<path d="M85.513 378.932C86.6966 378.61 90.7137 379.47 90.8213 379.829C90.893 380.152 87.8802 382.949 86.6607 383.272C85.4771 383.595 84.2577 382.878 83.9349 381.694C83.612 380.511 84.2935 379.255 85.513 378.932Z" fill="white"/>
<path d="M88.2031 384.313C88.3466 383.093 90.5703 379.65 90.929 379.686C91.2876 379.686 92.794 383.524 92.6864 384.743C92.5788 385.998 91.4669 386.895 90.2475 386.787C88.9921 386.644 88.0955 385.568 88.2031 384.313Z" fill="white"/>
<path d="M94.3362 384.061C93.2244 383.487 90.8572 380.116 91.0365 379.793C91.18 379.47 95.3046 379.506 96.4165 380.08C97.4925 380.654 97.9229 382.017 97.349 383.129C96.7752 384.205 95.4122 384.635 94.3362 384.061Z" fill="white"/>
<path d="M91.1437 380.546C90.7492 380.582 90.3547 380.331 90.3188 379.901C90.2471 379.506 90.4981 379.148 90.9285 379.076C91.3231 379.004 91.6817 379.291 91.7535 379.686C91.8252 380.08 91.5382 380.475 91.1437 380.546Z" fill="#F78248"/>
<path d="M82.572 395.467C83.7914 396.937 85.0827 403.25 84.6523 403.573C84.2219 403.931 78.3397 401.349 77.1202 399.878C75.9008 398.372 76.1518 396.184 77.6582 394.965C79.1288 393.745 81.3525 393.96 82.572 395.467Z" fill="#82B378"/>
<path d="M90.8571 405.295C91.4668 406.586 90.9288 408.092 89.6735 408.702C88.4181 409.348 83.7196 409.24 83.5761 408.881C83.3968 408.487 86.1944 404.757 87.4497 404.147C88.7051 403.501 90.2473 404.039 90.8571 405.295Z" fill="#82B378"/>
<path d="M895.737 420L1.076 419.713C0.502135 419.713 0 419.247 0 418.637V418.171C0 417.597 0.502135 417.131 1.076 417.131L895.737 417.418C896.311 417.418 896.813 417.884 896.813 418.494V418.96C896.813 419.534 896.311 420 895.737 420Z" fill="#233862"/>
<path d="M697.896 400.709C697.896 400.709 698.949 402.564 698.147 404.62C697.645 405.924 697.595 407.278 698.021 408.431C698.372 409.384 699.676 409.559 700.253 408.682L706.295 399.581C706.797 398.804 706.546 397.751 705.718 397.324C704.991 396.948 704.164 396.497 703.537 396.121C702.183 395.319 700.253 395.945 700.253 395.945L697.896 400.709Z" fill="#2C3A64"/>
<path d="M681.098 382.332C682.703 387.346 697.32 403.141 697.32 403.141C697.32 403.141 703.588 398.553 703.437 395.219C703.437 395.219 695.74 380.878 695.64 379.123C695.64 378.697 696.517 376.967 697.846 374.585C698.03 374.25 698.214 373.908 698.398 373.557C700.729 369.47 704.039 363.829 706.646 359.141C706.713 359.024 706.772 358.915 706.822 358.815C709.154 354.578 710.858 351.193 710.633 350.466C709.956 348.335 689.873 345.477 689.873 345.477C689.873 345.477 679.494 377.293 681.098 382.332Z" fill="#35488B"/>
<path d="M698.398 373.557C700.729 369.471 704.039 363.829 706.646 359.141C706.713 359.024 706.772 358.915 706.822 358.815V353.801L699.877 352.723L698.398 373.557Z" fill="#2C3A64"/>
<path d="M723.695 405.624C723.695 405.624 724.798 410.187 723.695 412.067C722.993 413.271 722.717 414.6 722.968 415.803C723.169 416.831 724.422 417.182 725.124 416.43L732.52 408.382C733.147 407.705 733.047 406.627 732.32 406.05C731.668 405.574 730.916 404.997 730.339 404.546C729.136 403.518 727.13 403.819 727.13 403.819L723.695 405.624Z" fill="#2C3A64"/>
<path d="M699.677 348.435C699.677 348.435 707.449 375.512 710.357 382.332C712.388 387.07 722.116 408.983 722.116 408.983C722.116 408.983 731.844 406.024 731.192 403.016C731.192 403.016 724.974 380.552 723.871 378.019C722.417 374.71 723.319 352.271 717.854 348.234C712.363 344.198 699.677 348.435 699.677 348.435Z" fill="#35488B"/>
<path d="M699.727 311.053C699.727 311.053 687.417 298.116 686.74 296.412C686.063 294.732 683.506 279.864 683.506 279.864L680.322 279.99C680.322 279.99 679.469 297.49 680.522 301C681.575 304.51 696.016 320.255 696.016 320.255L699.727 311.053Z" fill="#FFB27D"/>
<path d="M698.323 308.044L704.666 314.638L715.622 308.846C714.569 308.595 713.566 308.386 712.613 308.219L712.764 307.843C712.764 307.843 711.686 305.336 711.435 301.35C711.335 299.695 711.385 297.764 711.711 295.658L703.237 299.143C703.237 299.143 703.362 299.896 703.412 301.024C703.437 302.227 703.362 303.857 702.911 305.361C702.685 306.038 702.409 306.665 702.033 307.242C699.225 307.417 698.323 308.044 698.323 308.044Z" fill="#FFB27D"/>
<path d="M702.911 305.362C707.524 305.613 711.435 301.35 711.435 301.35L703.412 301.024C703.437 302.228 703.362 303.857 702.911 305.362Z" fill="#EA9C68"/>
<path d="M722.141 319.577C727.381 319.452 735.93 305.462 738.688 301.3C741.421 297.138 744.881 282.622 744.881 282.622C744.881 282.622 741.847 280.541 741.271 281.494C740.694 282.446 733.298 297.063 733.298 297.063C728.509 300.373 718.33 311.555 718.33 311.555C718.33 311.555 716.901 319.678 722.141 319.577Z" fill="#FFB27D"/>
<path d="M700.88 302.604C700.88 302.604 709.881 305.788 713.667 298.718C717.753 291.096 714.469 285.029 711.385 284.377C705.192 283.098 701.381 285.179 700.078 287.586C698.774 290.018 695.891 300.874 700.88 302.604Z" fill="#FFB27D"/>
<path d="M700.328 297.289C699.701 298.743 701.857 299.319 701.857 299.319C704.264 300.072 705.317 298.743 705.317 298.743C702.936 296.963 700.328 297.289 700.328 297.289Z" fill="white"/>
<path d="M715.171 278.76C704.114 274.223 696.643 282.973 699.2 285.58C701.757 288.187 708.226 286.758 709.956 286.708C711.661 286.658 711.661 292.75 711.962 293.127C712.237 293.503 713.165 291.748 714.494 292.625C715.823 293.503 713.165 296.361 713.165 296.361C713.165 298.066 711.811 301.149 711.811 301.149C722.843 295.734 726.202 283.298 715.171 278.76Z" fill="#2C3A64"/>
<path d="M720.361 284.176C720.361 284.176 720.988 282.697 720.536 281.543C720.536 281.543 720.386 283.048 719.734 283.674C719.082 284.301 720.361 284.176 720.361 284.176Z" fill="#2C3A64"/>
<path d="M720.211 284.051C721.264 283.424 722.191 284.176 722.191 284.176C721.615 283.048 720.211 283.073 720.211 283.073V284.051Z" fill="#2C3A64"/>
<path d="M690.576 352.12C701.432 355.755 715.723 355.404 719.233 355.254C719.759 355.229 720.06 355.204 720.06 355.204C721.314 355.053 722.216 354.126 722.316 353.023C722.333 352.872 722.333 352.722 722.316 352.571L720.386 335.823L722.166 327.65L723.194 322.987L725.5 312.331C720.937 309.774 716.725 308.245 712.789 307.392C711.159 308.671 708 310.476 704.691 309.824C702.184 309.323 701.733 308.094 701.883 306.791C696.543 307.142 693.685 308.27 693.685 308.27L687.066 346.705C686.664 349.011 688.119 351.293 690.576 352.12Z" fill="#002248"/>
<path d="M725.175 304.384L719.91 307.969C718.606 307.894 717.327 308.37 717.327 308.37C714.845 307.417 712.789 307.392 712.789 307.392C713.993 314.087 723.47 321.658 723.47 321.658C724.222 318.198 731.066 314.287 731.066 314.287C730.816 306.364 725.175 304.384 725.175 304.384Z" fill="#002248"/>
<path d="M701.883 306.791C701.883 306.791 699.1 306.314 698.097 306.49C698.097 306.49 697.621 306.064 696.467 305.888L690.776 301.551C690.776 301.551 686.414 305.312 687.015 311.078C687.015 311.078 691.754 314.538 691.754 315.29C691.729 316.042 691.603 320.304 691.603 320.304L701.883 306.791Z" fill="#002248"/>
<path d="M683.505 279.863C683.505 279.863 683.556 278.484 684.107 277.356C684.634 276.253 684.634 273.219 684.032 273.345C683.455 273.47 683.631 274.573 683.004 274.398C682.377 274.222 681.65 270.637 680.798 270.888C679.945 271.138 679.268 272.267 679.293 274.824C679.344 277.381 680.321 279.989 680.321 279.989L683.505 279.863Z" fill="#FFB27D"/>
<path d="M744.68 282.797C744.68 282.797 746.686 280.39 747.663 277.682C748.666 275 748.34 273.545 747.538 272.969C746.736 272.392 744.63 275.902 743.903 275.852C743.176 275.827 743.752 274.724 743.201 274.373C742.624 274.022 741.496 277.231 741.646 278.61C741.797 279.989 741.345 281.468 741.345 281.468L744.68 282.797Z" fill="#FFB27D"/>
<path d="M676.945 292.875C671.505 280.89 673.875 264.436 676.155 248.523C676.922 243.061 677.667 237.892 678.074 233.062V233.04C678.096 232.904 681.346 219.813 684.055 200.786C686.538 183.249 689.043 156.909 686.876 131.156L687.26 131.133C689.427 156.932 686.921 183.294 684.416 200.854C681.775 219.588 678.57 232.588 678.457 233.108C678.051 237.96 677.306 243.106 676.539 248.591C674.259 264.436 671.912 280.822 677.284 292.717L676.945 292.875Z" fill="#184655"/>
<path d="M690.759 136.798C688.524 137.746 687.621 136.46 685.477 137.453C685.658 137.385 685.861 134.451 687.283 130.817C687.283 130.817 689.585 132.465 690.759 136.798Z" fill="#1893F8"/>
<path d="M711.388 94.1399C712.494 112.174 697.981 131.043 687.644 131.607C677.848 132.172 660.627 115.311 659.543 97.2773C658.46 79.2433 669.181 63.9178 683.491 63.0376C697.823 62.1799 710.305 76.106 711.388 94.1399Z" fill="#1893F8"/>
<g style="mix-blend-mode:screen">
<path d="M678.39 68.5219C671.257 67.6191 665.141 80.1909 670.332 82.6737C675.771 85.2693 687.576 69.6956 678.39 68.5219Z" fill="#1C1C1C"/>
</g>
<g style="mix-blend-mode:screen">
<path d="M687.768 131.463C683.164 131.734 676.934 128.145 671.495 122.39C679.146 126.723 685.511 125.482 690.883 123.067C701.875 118.146 713.137 91.7386 703.003 71.8765C707.788 77.474 710.993 85.2609 711.512 93.9957C712.618 112.03 698.105 130.899 687.768 131.463Z" fill="#877373"/>
</g>
<path d="M688.433 132.171L686.763 132.261C686.582 132.261 686.424 132.126 686.402 131.945C686.402 131.765 686.537 131.607 686.718 131.584L688.411 131.494C688.591 131.494 688.749 131.629 688.749 131.81C688.772 131.99 688.636 132.148 688.433 132.171Z" fill="#184655"/>
<path d="M789.493 129.846C789.944 134.225 789.583 137.295 791.547 141.064C793.51 144.811 789.47 147.406 789.47 147.406C789.154 151.243 783.534 152.169 781.728 151.627C779.945 151.063 781.48 151.537 776.74 151.288C772 151.063 768.389 147.293 768.389 147.293C765.365 146.729 762.543 143.592 761.889 140.748C761.234 137.927 763.22 136.008 763.22 136.008C763.22 136.008 761.979 135.105 762.904 132.103C763.852 129.124 766.832 130.501 768.637 128.944C770.42 127.386 768.998 127.341 772.655 124.271C776.311 121.179 779.674 123.752 779.674 123.752C781.954 123.436 789.019 125.468 789.493 129.846Z" fill="#184655"/>
<path d="M762.092 145.285L757.442 151.763C757.442 151.763 747.398 145.759 743.042 142.915C739.476 140.568 735.842 135.106 733.788 132.104C732.84 131.043 725.437 130.343 725.437 129.711C725.437 129.147 728.349 129.124 728.755 129.102C729.161 129.079 724.06 127.386 724.715 126.574C725.392 125.761 728.529 127.725 728.981 127.183C729.432 126.642 724.331 123.64 725.166 122.624C725.979 121.608 729.274 125.332 729.951 125.287C730.628 125.242 726.633 121.608 727.22 120.886C727.807 120.164 731.757 124.294 732.524 124.249C733.292 124.204 731.531 122.105 732.186 121.315C732.818 120.525 733.698 123.211 734.781 124.362C736.294 125.987 736.519 127.296 736.542 127.522C738.415 129.418 743.968 134.925 746.292 136.347C749.046 137.995 762.092 145.285 762.092 145.285Z" fill="#F7A491"/>
<path d="M733.36 129.147C732.208 128.177 732.344 126.867 732.321 126.8C732.321 126.393 732.389 125.987 732.57 125.604C732.389 127.454 732.908 128.335 733.36 129.147Z" fill="#F48C7F"/>
<path d="M745.954 191.036C745.931 190.924 745.796 188.26 746.473 184.988C747.06 182.189 747.805 185.191 747.805 185.191C747.805 185.191 747.669 190.63 748.098 190.585C748.437 190.562 748.346 187.561 748.956 184.446C749.114 183.633 749.272 182.843 749.43 182.121C749.836 180.203 751.123 179.977 751.032 182.053C750.987 182.776 750.897 183.994 750.716 184.852C750.513 185.755 750.649 186.68 750.581 187.493C750.491 189.095 750.4 190.247 750.468 190.224C750.558 190.179 750.761 190.517 750.965 189.682C751.19 188.667 751.213 186.364 751.664 184.897C751.935 184.085 752.387 182.302 752.387 182.302C752.387 182.302 753.56 179.774 753.741 179.796C754.666 179.932 754.373 181.918 753.876 182.979C753.899 183.859 753.38 185.71 753.38 185.71C753.38 185.71 753.199 189.705 753.763 189.773C754.012 189.795 754.418 187.357 755.208 185.055C755.93 182.911 757.036 180.902 757.488 180.993C758.255 181.151 757.691 183.633 757.691 183.633C757.691 183.633 757.217 185.349 757.104 185.936C756.968 186.613 756.72 188.689 756.72 188.689C756.72 188.689 756.291 196.002 756.833 196.025C757.375 196.025 758.661 195.483 758.842 195.054C759.045 194.625 758.955 193.632 759.158 193.181C759.338 192.752 759.97 192.368 760.535 192.594C761.099 192.797 761.009 195.28 761.009 195.28C761.009 195.28 760.896 197.311 760.151 198.44C757.51 202.435 756.878 202.074 756.54 202.593C756.156 203.202 756.607 212.817 756.607 212.817L747.782 216.609C748.053 210.538 748.279 205.572 748.324 204.398C748.324 204.398 747.015 200.11 746.292 197.379C745.548 194.67 746.044 191.826 745.954 191.036Z" fill="#F8A492"/>
<path d="M747.173 209.319C747.173 209.319 757.149 206.655 757.262 207.445C759.835 225.05 760.941 231.393 761.302 231.573C762.543 232.16 778.275 217.015 781.119 215.932C782.473 215.413 783.986 215.458 785.408 215.458C788.838 215.48 789.515 215.48 789.515 215.48C789.606 215.48 789.628 215.48 789.628 215.48L789.696 218.685C785.949 222.252 782.248 291.137 781.503 291.115C780.668 291.115 765.049 291.024 765.794 289.715C765.794 289.715 769.563 268.499 772.542 254.528C773.535 249.833 776.334 240.015 776.334 240.015C772.497 242.069 757.578 249.901 755.14 248.975C747.624 246.109 747.173 209.319 747.173 209.319Z" fill="#002248"/>
<path d="M768.638 399.566C768.638 399.566 769.134 408.504 769.134 408.527C769.315 409.656 770.037 412.477 770.037 413.493C770.037 417.375 753.109 410.22 756.901 408.504C757.262 408.346 759.045 407.173 759.158 405.841C759.338 403.81 759.79 399.702 759.79 399.702L768.638 399.566Z" fill="#F7A491"/>
<path d="M756.946 408.459C756.946 408.459 760.918 409.633 762.972 409.949C765.003 410.242 767.689 407.737 769.111 408.414C770.714 409.159 771.278 415.907 770.533 416.472C769.811 417.013 746.857 417.104 743.358 416.472C740.898 416.043 748.82 411.213 756.946 408.459Z" fill="#184655"/>
<path d="M805.924 400.424C805.924 400.424 806.421 409.362 806.421 409.385C806.601 410.513 807.324 413.335 807.324 414.35C807.324 418.233 790.396 411.078 794.21 409.362C794.549 409.204 796.874 407.15 796.986 405.819C797.167 403.787 797.077 400.56 797.077 400.56L805.924 400.424Z" fill="#F7A491"/>
<path d="M794.233 409.317C794.233 409.317 798.205 410.49 800.259 410.806C802.29 411.1 804.976 408.594 806.398 409.271C808.001 410.016 808.046 416.697 808.046 416.697C808.046 416.697 785.543 417.623 780.013 416.652C778.095 416.313 786.107 412.07 794.233 409.317Z" fill="#184655"/>
<path d="M801.184 286.126C801.184 286.126 775.183 347.518 775.183 351.242C775.183 354.966 769.586 402.974 769.586 402.974L757.51 402.681L756.901 347.789L771.955 274.57L779.11 271.432L801.184 286.126Z" fill="#475CA7"/>
<path d="M810.393 277.233C811.454 278.339 811.973 282.718 812.267 284.388C814.05 294.771 810.326 320.975 808.452 348.805C808.181 352.687 808.655 360.225 808.452 363.95C807.143 387.829 806.263 404.035 806.263 404.035L794.188 404.125C794.188 404.125 789.899 350.904 789.899 341.379C789.899 331.877 784.64 275.45 784.64 275.45C784.64 275.45 802.471 268.905 810.393 277.233Z" fill="#35488B"/>
<path d="M776.718 251.187C778.433 242.768 782.812 228.91 784.099 225.773C787.033 218.573 789.516 215.503 789.516 215.503L801.207 215.864C801.207 215.864 801.478 215.932 801.546 215.932C802.516 216.09 802.539 250.081 802.02 262.811C801.501 275.518 798.679 292.063 798.679 292.063L795.361 291.747C795.294 293.462 795.271 294.59 795.271 294.59C778.366 297.57 768.931 289.241 768.931 289.241C768.931 289.241 774.484 262.134 776.718 251.187Z" fill="#1893F8"/>
<path d="M800.597 205.571L801.207 215.863C801.207 215.863 793.984 229.045 790.079 227.352C786.784 225.907 789.402 215.931 789.402 215.931C789.402 215.931 789.921 213.652 790.621 211.033C791.118 209.205 791.524 207.219 791.456 205.774C791.276 202.253 800.597 205.571 800.597 205.571Z" fill="#F7A491"/>
<path d="M791.456 205.774C791.276 202.253 800.597 205.571 800.597 205.571L800.665 206.564C800.349 207.061 800.033 207.467 799.649 207.783C797.234 209.86 793.668 210.853 790.734 210.605C791.185 208.889 791.524 207.106 791.456 205.774Z" fill="#F47458"/>
<path d="M800.033 186.228L788.071 201.305C788.071 201.305 786.965 198.01 787.123 193.112C787.281 188.237 790.96 182.323 790.96 182.323L800.033 186.228Z" fill="#184655"/>
<path d="M787.845 189.185C788.839 189.253 789.538 190.697 789.425 192.413C789.29 194.128 788.365 195.46 787.372 195.392C786.378 195.302 785.679 193.857 785.814 192.142C785.95 190.427 786.852 189.117 787.845 189.185Z" fill="#F48C7F"/>
<path d="M804.074 188.485C804.367 188.417 804.706 202.614 800.688 206.068C796.648 209.521 789.493 209.995 787.326 206.7C784.911 203.021 786.717 188.011 792.743 184.671C798.792 181.33 804.074 188.485 804.074 188.485Z" fill="#F7A491"/>
<path d="M804.886 179.661C808.114 182.324 809.694 184.288 811.951 189.14C814.704 195.099 809.694 201.464 805.405 204.06C801.117 206.655 800.846 209.657 800.846 209.657L800.62 207.829C800.507 207.152 800.507 206.61 800.62 206.113C800.733 205.549 800.981 205.098 801.207 204.601C801.546 203.811 802.674 201.058 803.103 200.335C804.277 198.417 804.525 197.988 803.871 196.228C803.374 194.851 803.825 191.804 803.035 189.547L797.167 188.418C797.167 188.418 793.465 187.651 791.57 185.552C786.085 179.57 796.422 172.461 804.886 179.661Z" fill="#184655"/>
<path d="M805.405 195.663C806.331 196.069 806.511 197.672 805.834 199.252C805.157 200.832 803.87 201.78 802.945 201.373C802.02 200.99 801.839 199.387 802.516 197.807C803.193 196.227 804.48 195.279 805.405 195.663Z" fill="#F7A491"/>
<path d="M818.451 155.262C819.512 157.858 821.069 162.078 821.069 162.078C822.536 164.245 826.057 169.211 828.201 172.506L819.308 173.838C819.308 173.838 813.914 165.712 813.237 165.464C812.673 165.261 812.582 166.096 808.091 164.539C806.782 164.087 805.473 162.552 805.473 162.552C805.473 162.552 805.315 162.281 805.631 161.762C805.947 161.243 805.269 159.528 805.676 159.754C806.082 159.979 806.646 160.814 807.053 161.04C807.459 161.288 806.94 158.241 807.346 157.903C807.775 157.564 806.127 154.449 810.438 151.064C810.799 150.793 812.199 148.446 814.997 150.793C815.607 151.312 817.39 152.666 818.451 155.262Z" fill="#F8A492"/>
<path d="M801.207 215.864C801.207 215.864 812.741 215.006 815.697 213.584C817.481 212.727 828.924 202.976 828.924 202.976L815.901 171.332L826.509 167.947C826.509 167.947 847.77 202.525 846.01 206.452C844.159 210.515 822.852 227.556 818.699 234.823C816.307 239.022 818.587 295.832 817.797 296.374C812.244 299.443 788.929 302.174 789.29 300.369C799.311 251.007 801.207 215.864 801.207 215.864Z" fill="#002248"/>
<path d="M762.182 156.457L752.003 150.86L755.366 140.726L765.816 145.623L762.182 156.457Z" fill="#35488B"/>
<path d="M804.231 161.152C804.231 161.152 804.276 159.798 805.788 157.947C806.759 156.773 807.955 155.148 808.587 155.893C809.219 156.615 807.188 157.721 807.91 157.699C808.61 157.699 812.921 154.471 813.485 155.148C814.072 155.803 810.19 158.285 810.551 158.466C810.912 158.647 813.982 155.216 814.568 156.006C815.178 156.841 810.957 159.865 811.047 160.068C811.228 160.43 814.32 158.037 814.975 158.782C815.607 159.527 811.07 161.648 811.454 161.648C811.815 161.626 814.275 161.287 814.298 161.829C814.32 162.438 808.971 163.77 808.113 164.853C807.256 165.937 795.564 176.094 792.901 175.575C790.237 175.055 779.02 165.531 778.681 162.732C778.32 159.933 779.945 156.638 781.773 156.615C783.579 156.593 794.007 166.614 794.571 166.614C795.158 166.614 804.231 161.152 804.231 161.152Z" fill="#F48C7F"/>
<path d="M747.579 210.334C748.347 211.598 751.371 213.516 751.371 213.516C749.611 217.218 743.426 225.456 743.426 225.456C743.426 225.456 742.298 224.396 742.546 223.267C742.794 222.116 743.9 216.812 742.636 214.758C742.298 214.216 738.664 208.167 735.91 202.683C737.829 201.531 742.411 202.57 744.148 201.193C745.841 204.059 747.308 209.905 747.579 210.334Z" fill="#F7A491"/>
<path d="M753.379 215.255C753.266 216.722 743.629 227.984 742.478 227.872C741.327 227.736 742.658 220.062 743.403 219.43C744.306 218.64 748.888 211.711 748.888 211.711C748.888 211.711 753.492 213.787 753.379 215.255Z" fill="#184655"/>
<path d="M736.181 221.1C736.249 222.545 738.009 225.682 738.009 225.682C734.578 227.849 724.873 231.528 724.873 231.528C724.873 231.528 724.399 230.083 725.189 229.271C725.979 228.436 730.38 223.109 730.29 220.739C730.267 220.13 730.087 215.57 729.455 212.817C731.757 212.839 734.149 212.478 736.407 212.207C736.474 215.435 736.158 220.626 736.181 221.1Z" fill="#F7A491"/>
<path d="M760.963 183.655L760.286 193.045C760.286 193.045 740.785 197.468 739.905 197.92C739.002 198.371 737.716 214.148 737.716 214.148C734.307 215.863 727.897 214.374 727.897 214.374C727.897 214.374 727.83 191.149 729.568 189.433C731.892 187.154 750.784 177.403 750.784 177.403L760.963 183.655Z" fill="#35488B"/>
<path d="M773.806 181.985C773.806 181.985 772.836 193.812 767.577 196.34C762.318 198.89 744.758 196.024 744.284 196.791C743.81 197.558 746.45 204.51 746.45 204.51L737.039 207.986C737.039 207.986 732.028 193.27 732.502 189.794C733.337 183.7 755.027 180.202 757.713 179.637C761.212 178.87 769.315 173.047 769.315 173.047L773.806 181.985Z" fill="#475CA7"/>
<path d="M779.652 151.943C782.924 153.772 791.095 161.897 791.095 161.897L784.707 171.805L778.365 166.163C777.598 168.646 776.988 172.889 776.153 180.179C775.341 187.041 772.068 193.202 772.068 193.202C772.068 193.202 754.892 185.596 746.45 178.938C752.477 173.227 764.281 144.45 765.816 145.624C767.351 146.797 772 148.829 772 148.829C772 148.829 778.726 151.447 779.652 151.943Z" fill="#002248"/>
<path d="M739.228 228.435C738.302 229.699 724.083 234.439 723.022 233.694C721.961 232.949 726.204 226.878 727.265 226.697C728.574 226.517 736.609 222.748 736.609 222.748C736.609 222.748 740.13 227.194 739.228 228.435Z" fill="#184655"/>
<path d="M777.621 143.118L775.747 151.717C775.747 151.717 774.415 152.733 772.79 152.981C771.098 153.229 767.667 153.049 767.328 151.559C766.99 150.069 767.938 149.46 768.592 149.121C769.247 148.783 770.736 143.456 770.736 143.456L777.621 143.118Z" fill="#F7A491"/>
<path d="M769.924 146.097C770.375 144.743 770.736 143.456 770.736 143.456L777.62 143.118L777.35 144.314C775.296 146.12 773.287 146.255 772.158 146.3C771.617 146.323 770.804 146.345 769.924 146.097Z" fill="#F47458"/>
<path d="M780.577 137.475C780.577 137.475 781.683 134.406 783.421 135.624C785.137 136.821 782.202 141.041 780.69 140.409C779.155 139.755 780.577 137.475 780.577 137.475Z" fill="#F7A491"/>
<path d="M780.848 140.703C778.185 144.563 775.25 144.788 773.761 144.833C772.294 144.879 768.727 145.014 767.621 139.642C766.538 134.27 770.262 128.154 772.519 126.303C774.776 124.452 777.733 125.445 777.733 125.445C785.565 126.912 783.511 136.843 780.848 140.703Z" fill="#F7A491"/>
<path d="M771.413 140.5C769.788 139.823 770.217 138.378 770.217 138.378L773.986 139.755C773.986 139.755 773.422 141.29 771.413 140.5Z" fill="white"/>
<path d="M813.576 165.057C811.319 165.937 807.617 164.538 805.969 163.635C805.811 163.003 808.046 162.529 809.536 162.8C811.025 163.071 812.989 161.333 815.539 162.642C817.029 164.177 813.576 165.057 813.576 165.057Z" fill="#F8A492"/>
<path d="M811.454 154.426C815.043 157.044 812.47 157.044 809.22 156.232C811.048 157.089 810.958 157.654 810.506 158.037C809.964 158.489 806.24 157.992 805.676 157.225C805.134 156.503 807.03 154.088 807.775 153.478C808.204 153.094 808.7 152.666 809.197 152.146C810.574 150.702 810.867 150.476 811.386 150.115C812.38 149.415 813.237 150.025 814.546 150.837C816.171 152.124 815.585 153.207 813.147 152.417C813.373 152.598 815.269 153.636 814.862 154.652C814.591 155.351 813.553 155.058 811.454 154.426Z" fill="#F7A491"/>
<path d="M763.378 193.157C763.13 193.428 762.43 194.85 762.114 195.505C761.798 196.159 761.189 197.378 760.986 197.829C760.67 198.552 758.029 201.734 755.479 203.585L750.739 202.479C750.942 202.14 751.122 201.35 751.235 201.034C754.508 197.694 759.812 195.46 759.812 195.46C759.948 195.595 761.031 192.886 762.295 192.435C763.401 192.074 763.762 192.751 763.378 193.157Z" fill="#F7A491"/>
<path d="M632.255 177.041C637.447 177.651 642.186 181.488 643.36 189.794C644.082 194.895 642.096 196.023 637.401 197.31C630.179 199.296 619.638 197.039 619.232 189.658C618.894 183.587 625.552 176.251 632.255 177.041Z" fill="#184655"/>
<path d="M654.194 298.968L651.508 352.506C651.508 352.506 648.1 393.63 649.816 405.953C650.086 407.872 651.192 408.82 651.666 409.136C658.122 413.198 662.726 415.252 662.726 415.252H640.99V408.639L641.239 406.382C641.239 406.382 635.393 366.387 635.054 363.34C634.716 360.293 637.492 349.549 637.492 349.549L631.804 298.81L654.194 298.968Z" fill="#F7A491"/>
<path d="M632.594 310.479L623.701 357.833L607.428 404.283L607.766 410.151C604.99 412.183 602.507 412.205 600.295 410.332L602.214 404.915C602.214 404.915 603.749 367.628 610.181 355.372C611.197 353.431 613.093 309.802 614.334 309.486L632.594 310.479Z" fill="#F7A491"/>
<path d="M646.926 249.019C646.001 256.151 646.024 263.961 646.024 263.961C639.929 270.98 629.434 271.477 622.776 265.067L622.708 265.022C623.182 259.379 615.237 233.603 614.876 231.956L614.763 212.251C617.02 211.1 628.509 211.1 632.03 211.055C633.226 211.033 644.06 221.37 646.678 224.959C653.201 233.829 648.393 237.847 646.926 249.019Z" fill="#002248"/>
<path d="M610.926 331.786C610.61 329.981 611.287 308.719 613.905 293.394C616.208 279.874 621.67 269.988 622.64 265.564C622.67 265.413 622.693 265.233 622.708 265.022C628.125 265.632 633.474 266.241 638.914 265.632C641.396 265.361 643.653 264.706 646.023 263.961L651.892 277.03C655.39 284.772 657.128 293.213 656.993 301.722L656.225 331.831C641.577 335.443 626.048 335.307 610.926 331.786Z" fill="#1893F8"/>
<path d="M636.566 197.333C636.566 197.333 635.776 206.023 635.912 208.844C636.002 210.559 636.589 214.6 636.589 214.6C636.589 214.6 634.445 214.103 632.233 213.787C626.613 212.952 627.493 212.726 628.147 209.973C628.802 207.219 628.486 199.951 628.486 199.951L636.566 197.333Z" fill="#F7A491"/>
<path d="M628.87 199.838L636.566 197.333C636.566 197.333 636.205 201.283 636.025 204.714C635.009 204.556 633.925 204.194 632.774 203.563C631.036 202.637 629.75 201.328 628.87 199.838Z" fill="#F47458"/>
<path d="M608.15 416.562C604.765 418.435 598.264 416.81 598.264 416.81L599.889 411.37L600.318 410.219C601.605 410.648 604.81 411.438 607.766 410.129L608.15 416.562Z" fill="#E25A44"/>
<path d="M640.99 408.616C641.803 409.812 652.727 413.356 657.918 412.814C660.875 414.191 663.516 414.868 664.125 415.726C664.396 416.155 664.193 416.832 663.358 416.9H640.765C640.291 416.809 640.516 411.031 640.99 408.616Z" fill="#E25A44"/>
<path d="M645.233 234.348C645.233 234.348 649.07 241.955 649.68 242.745C649.68 242.745 666.427 239.021 673.492 236.809C673.567 236.779 673.65 236.741 673.74 236.696C673.875 236.628 674.056 236.605 674.101 236.425C674.237 235.567 675.027 232.701 675.41 231.482C675.523 231.143 675.704 230.827 675.929 230.579C676.449 229.992 678.796 226.155 678.796 226.155C678.796 226.155 679.608 226.471 679.608 227.713C679.608 228.977 677.848 231.369 678.322 231.392H678.344C678.818 231.414 679.292 231.256 679.789 231.098C680.421 230.895 681.143 230.873 681.82 230.963C682.475 231.031 682.881 231.505 682.926 232.204C682.971 232.633 682.881 233.13 683.039 233.491C683.31 234.145 683.716 240.149 682.701 240.736C682.181 241.029 679.428 241.526 678.322 241.548C677.532 241.571 676.742 241.752 676.087 242.068C675.952 242.143 675.809 242.203 675.659 242.248C670.603 244.279 653.788 251.434 653.788 251.434C653.788 251.434 645.527 254.391 644.33 253.33C643.112 252.292 635.912 238.118 635.912 238.118L645.233 234.348Z" fill="#F7A491"/>
<path d="M631.646 214.87C633.858 214.6 637.244 214.6 639.726 218.595C640.291 219.475 648.687 233.92 648.687 233.92C646.52 236.425 634.151 242.249 634.151 242.249C634.151 242.249 625.462 227.352 627.087 220.671C627.087 220.671 629.886 215.074 631.646 214.87Z" fill="#35488B"/>
<path d="M618.013 248.139C602.778 245.837 604.854 232.453 605.012 232.927C604.899 232.521 603.297 231.099 602.417 229.812C598.76 224.463 601.514 216.992 605.464 213.99C601.559 207.061 603.387 199.635 608.33 195.934C610.813 194.083 612.799 191.645 614.289 188.959C617.562 182.978 622.459 176.478 631.578 176.997C640.674 177.99 631.375 184.738 633.722 192.977C634.918 197.175 633.135 196.791 630.991 200.606C635.754 206.722 635.144 218.233 630.043 224.147C634.602 235.748 633.587 250.464 618.013 248.139Z" fill="#184655"/>
<path d="M642.954 190.2C645.166 195.64 644.24 204.216 636.25 202.975C628.26 201.734 624.378 191.848 625.1 188.169C625.8 184.49 628.644 182.504 628.644 182.504C636.521 178.012 640.764 184.738 642.954 190.2Z" fill="#F7A491"/>
<path d="M624.897 194.917C623.047 189.636 622.889 185.483 626.455 182.932C630.044 180.404 633.068 177.967 637.041 181.036L637.876 181.352C637.876 181.352 631.601 184.083 631.736 187.604C631.872 191.103 628.983 195.707 629.75 197.332C630.54 198.935 631.646 202.23 631.646 202.23L630.044 201.26C630.044 201.26 626.726 200.176 624.897 194.917Z" fill="#184655"/>
<path d="M630.833 192.615C631.781 193.924 631.826 195.482 630.924 196.136C630.021 196.791 628.508 196.272 627.56 194.985C626.59 193.699 626.545 192.119 627.448 191.464C628.35 190.81 629.863 191.329 630.833 192.615Z" fill="#F7A491"/>
</svg>
