<svg width="138" height="46" viewBox="0 0 138 46" fill="none" xmlns="http://www.w3.org/2000/svg">
<rect x="0.5" y="0.5" width="137" height="45" rx="6.5" fill="#1B1B1B"/>
<path d="M93.7557 22.0809V24.7156H92.1042V26.4434H93.7557V32.3141C93.7557 34.3188 94.6625 35.1206 96.944 35.1206C97.3449 35.1206 97.7268 35.0729 98.0609 35.0156V33.3069C97.7745 33.3355 97.5931 33.3546 97.2781 33.3546C96.2567 33.3546 95.808 32.8773 95.808 31.7891V26.4434H98.0609V24.7156H95.808V22.0809H93.7557Z" fill="white"/>
<path d="M103.873 35.2638C106.908 35.2638 108.77 33.2305 108.77 29.8608C108.77 26.5102 106.899 24.4674 103.873 24.4674C100.837 24.4674 98.9662 26.5102 98.9662 29.8608C98.9662 33.2305 100.828 35.2638 103.873 35.2638ZM103.873 33.4405C102.088 33.4405 101.085 32.1327 101.085 29.8608C101.085 27.608 102.088 26.2907 103.873 26.2907C105.648 26.2907 106.66 27.608 106.66 29.8608C106.66 32.1232 105.648 33.4405 103.873 33.4405Z" fill="white"/>
<path d="M110.362 35.0633H112.415V28.9253C112.415 27.4648 113.513 26.4816 115.069 26.4816C115.431 26.4816 116.042 26.5484 116.214 26.6057V24.5819C115.995 24.5247 115.603 24.496 115.298 24.496C113.942 24.496 112.787 25.2406 112.491 26.262H112.338V24.6679H110.362V35.0633Z" fill="white"/>
<path d="M121.31 26.2143C122.828 26.2143 123.821 27.2739 123.868 28.9062H118.618C118.733 27.2834 119.792 26.2143 121.31 26.2143ZM123.859 32.2568C123.477 33.0682 122.627 33.5169 121.386 33.5169C119.745 33.5169 118.685 32.3618 118.618 30.5386V30.424H125.959V29.7081C125.959 26.4434 124.212 24.4674 121.32 24.4674C118.389 24.4674 116.528 26.577 116.528 29.899C116.528 33.221 118.351 35.2638 121.329 35.2638C123.706 35.2638 125.367 34.1183 125.835 32.2568H123.859Z" fill="white"/>
<path d="M80.2965 31.2244C80.4548 33.7771 82.5821 35.4096 85.7482 35.4096C89.1319 35.4096 91.2492 33.698 91.2492 30.9672C91.2492 28.8202 90.0422 27.6329 87.1135 26.9502L85.5404 26.5644C83.6803 26.129 82.9284 25.5453 82.9284 24.5262C82.9284 23.24 84.0959 22.399 85.8471 22.399C87.5093 22.399 88.657 23.2202 88.8648 24.5361H91.0217C90.8931 22.1318 88.7757 20.4399 85.8768 20.4399C82.7602 20.4399 80.6824 22.1318 80.6824 24.6746C80.6824 26.7721 81.8598 28.0188 84.4421 28.6223L86.2824 29.0675C88.1722 29.5128 89.0033 30.1658 89.0033 31.2541C89.0033 32.5206 87.6973 33.4407 85.9164 33.4407C84.0068 33.4407 82.681 32.5799 82.493 31.2244H80.2965Z" fill="white"/>
<path d="M59.0361 24.496C57.6233 24.496 56.4014 25.2024 55.7714 26.3861H55.6187V24.6679H53.6427V38.519H55.695V33.4883H55.8573C56.4014 34.586 57.5756 35.2352 59.0552 35.2352C61.6803 35.2352 63.3508 33.1637 63.3508 29.8608C63.3508 26.5579 61.6803 24.496 59.0361 24.496ZM58.4538 33.3928C56.7355 33.3928 55.6569 32.0373 55.6569 29.8704C55.6569 27.6939 56.7355 26.3384 58.4634 26.3384C60.2007 26.3384 61.2412 27.6653 61.2412 29.8608C61.2412 32.0659 60.2007 33.3928 58.4538 33.3928Z" fill="white"/>
<path d="M70.5324 24.496C69.1196 24.496 67.8978 25.2024 67.2677 26.3861H67.115V24.6679H65.139V38.519H67.1914V33.4883H67.3536C67.8978 34.586 69.0719 35.2352 70.5515 35.2352C73.1766 35.2352 74.8472 33.1637 74.8472 29.8608C74.8472 26.5579 73.1766 24.496 70.5324 24.496ZM69.9501 33.3928C68.2319 33.3928 67.1532 32.0373 67.1532 29.8704C67.1532 27.6939 68.2319 26.3384 69.9597 26.3384C71.697 26.3384 72.7375 27.6653 72.7375 29.8608C72.7375 32.0659 71.697 33.3928 69.9501 33.3928Z" fill="white"/>
<path d="M49.9604 35.0633H52.3152L47.1604 20.7862H44.7759L39.6211 35.0633H41.8967L43.2126 31.2739H48.6544L49.9604 35.0633ZM45.8543 23.3785H46.0225L48.0904 29.4138H43.7766L45.8543 23.3785Z" fill="white"/>
<path d="M41 10.0176V16.905H43.4867C45.5391 16.905 46.7275 15.6401 46.7275 13.4398C46.7275 11.2729 45.5295 10.0176 43.4867 10.0176H41ZM42.0691 10.9913H43.3674C44.7945 10.9913 45.6393 11.8981 45.6393 13.4541C45.6393 15.034 44.8088 15.9313 43.3674 15.9313H42.0691V10.9913Z" fill="white"/>
<path d="M50.3674 17.0052C51.8852 17.0052 52.8159 15.9886 52.8159 14.3037C52.8159 12.6284 51.8804 11.607 50.3674 11.607C48.8496 11.607 47.9141 12.6284 47.9141 14.3037C47.9141 15.9886 48.8448 17.0052 50.3674 17.0052ZM50.3674 16.0936C49.4748 16.0936 48.9737 15.4397 48.9737 14.3037C48.9737 13.1773 49.4748 12.5186 50.3674 12.5186C51.2552 12.5186 51.7611 13.1773 51.7611 14.3037C51.7611 15.4349 51.2552 16.0936 50.3674 16.0936Z" fill="white"/>
<path d="M60.7419 11.7072H59.7157L58.7897 15.6735H58.7086L57.6395 11.7072H56.6562L55.5871 15.6735H55.5107L54.58 11.7072H53.5395L54.9714 16.905H56.0262L57.0953 13.0771H57.1765L58.2504 16.905H59.3148L60.7419 11.7072Z" fill="white"/>
<path d="M61.9237 16.905H62.9498V13.8646C62.9498 13.0532 63.4319 12.5473 64.1908 12.5473C64.9497 12.5473 65.3124 12.9625 65.3124 13.7978V16.905H66.3386V13.54C66.3386 12.3038 65.6991 11.607 64.5392 11.607C63.7565 11.607 63.241 11.9554 62.988 12.5329H62.9117V11.7072H61.9237V16.905Z" fill="white"/>
<path d="M67.9548 16.905H68.9809V9.67871H67.9548V16.905Z" fill="white"/>
<path d="M72.8403 17.0052C74.3581 17.0052 75.2889 15.9886 75.2889 14.3037C75.2889 12.6284 74.3534 11.607 72.8403 11.607C71.3225 11.607 70.3871 12.6284 70.3871 14.3037C70.3871 15.9886 71.3178 17.0052 72.8403 17.0052ZM72.8403 16.0936C71.9478 16.0936 71.4466 15.4397 71.4466 14.3037C71.4466 13.1773 71.9478 12.5186 72.8403 12.5186C73.7281 12.5186 74.234 13.1773 74.234 14.3037C74.234 15.4349 73.7281 16.0936 72.8403 16.0936Z" fill="white"/>
<path d="M78.3464 16.127C77.788 16.127 77.3823 15.8549 77.3823 15.3872C77.3823 14.929 77.7068 14.6855 78.4228 14.6378L79.6924 14.5567V14.991C79.6924 15.6354 79.1196 16.127 78.3464 16.127ZM78.0839 16.9909C78.7664 16.9909 79.3344 16.6949 79.6447 16.1747H79.7258V16.905H80.7138V13.3539C80.7138 12.2561 79.9788 11.607 78.6758 11.607C77.4968 11.607 76.6568 12.1797 76.5518 13.0723H77.5446C77.6591 12.7048 78.0553 12.4948 78.628 12.4948C79.3296 12.4948 79.6924 12.805 79.6924 13.3539V13.8025L78.2844 13.8837C77.0482 13.96 76.3513 14.4994 76.3513 15.4349C76.3513 16.3847 77.0816 16.9909 78.0839 16.9909Z" fill="white"/>
<path d="M84.1961 16.9909C84.9121 16.9909 85.5183 16.652 85.8285 16.084H85.9096V16.905H86.8929V9.67871H85.8667V12.5329H85.7903C85.5087 11.9602 84.9073 11.6213 84.1961 11.6213C82.8836 11.6213 82.0388 12.6618 82.0388 14.3037C82.0388 15.9504 82.874 16.9909 84.1961 16.9909ZM84.4873 12.5425C85.3464 12.5425 85.8858 13.225 85.8858 14.3085C85.8858 15.3967 85.3512 16.0697 84.4873 16.0697C83.6186 16.0697 83.0984 15.4063 83.0984 14.3037C83.0984 13.2107 83.6234 12.5425 84.4873 12.5425Z" fill="white"/>
<path d="M93.5473 17.0052C95.0651 17.0052 95.9958 15.9886 95.9958 14.3037C95.9958 12.6284 95.0603 11.607 93.5473 11.607C92.0295 11.607 91.094 12.6284 91.094 14.3037C91.094 15.9886 92.0247 17.0052 93.5473 17.0052ZM93.5473 16.0936C92.6548 16.0936 92.1536 15.4397 92.1536 14.3037C92.1536 13.1773 92.6548 12.5186 93.5473 12.5186C94.4351 12.5186 94.941 13.1773 94.941 14.3037C94.941 15.4349 94.4351 16.0936 93.5473 16.0936Z" fill="white"/>
<path d="M97.3542 16.905H98.3804V13.8646C98.3804 13.0532 98.8625 12.5473 99.6214 12.5473C100.38 12.5473 100.743 12.9625 100.743 13.7978V16.905H101.769V13.54C101.769 12.3038 101.13 11.607 99.9698 11.607C99.187 11.607 98.6716 11.9554 98.4186 12.5329H98.3422V11.7072H97.3542V16.905Z" fill="white"/>
<path d="M106.495 10.4137V11.7311H105.67V12.595H106.495V15.5303C106.495 16.5327 106.949 16.9336 108.09 16.9336C108.29 16.9336 108.481 16.9097 108.648 16.8811V16.0267C108.505 16.0411 108.414 16.0506 108.257 16.0506C107.746 16.0506 107.522 15.812 107.522 15.2678V12.595H108.648V11.7311H107.522V10.4137H106.495Z" fill="white"/>
<path d="M110.025 16.905H111.052V13.8694C111.052 13.0818 111.519 12.552 112.359 12.552C113.085 12.552 113.472 12.972 113.472 13.8025V16.905H114.498V13.5496C114.498 12.3134 113.815 11.6118 112.708 11.6118C111.925 11.6118 111.376 11.9602 111.123 12.5425H111.042V9.67871H110.025V16.905Z" fill="white"/>
<path d="M118.2 12.4804C118.958 12.4804 119.455 13.0102 119.479 13.8264H116.854C116.911 13.015 117.441 12.4804 118.2 12.4804ZM119.474 15.5017C119.283 15.9074 118.858 16.1317 118.238 16.1317C117.417 16.1317 116.887 15.5542 116.854 14.6426V14.5853H120.524V14.2273C120.524 12.595 119.651 11.607 118.204 11.607C116.739 11.607 115.808 12.6618 115.808 14.3228C115.808 15.9838 116.72 17.0052 118.209 17.0052C119.398 17.0052 120.228 16.4324 120.462 15.5017H119.474Z" fill="white"/>
<path d="M28.4857 23.3457C28.5106 21.4126 29.5487 19.5834 31.1957 18.5709C30.1567 17.087 28.4164 16.1462 26.6059 16.0895C24.6747 15.8868 22.8026 17.2451 21.8185 17.2451C20.8154 17.2451 19.3003 16.1097 17.6688 16.1432C15.5421 16.2119 13.5596 17.421 12.5249 19.2803C10.3008 23.131 11.9598 28.7902 14.0903 31.9028C15.1562 33.4269 16.402 35.1294 18.0321 35.0691C19.6272 35.0029 20.2229 34.0519 22.1484 34.0519C24.0559 34.0519 24.6149 35.0691 26.278 35.0307C27.9897 35.0029 29.0681 33.4997 30.0966 31.9612C30.8625 30.8751 31.4518 29.6749 31.8428 28.4048C29.8313 27.554 28.488 25.5297 28.4857 23.3457Z" fill="white"/>
<path d="M25.3442 14.0425C26.2775 12.9222 26.7373 11.4822 26.6259 10.0283C25.2001 10.1781 23.8831 10.8595 22.9372 11.9369C22.0123 12.9895 21.531 14.4042 21.622 15.8025C23.0483 15.8172 24.4505 15.1542 25.3442 14.0425Z" fill="white"/>
<rect x="0.5" y="0.5" width="137" height="45" rx="6.5" stroke="#A6A6A6"/>
</svg>
