<svg width="156" height="46" viewBox="0 0 156 46" fill="none" xmlns="http://www.w3.org/2000/svg">
<rect x="0.5" y="0.5" width="155" height="45" rx="4.5" fill="#1B1B1B"/>
<g filter="url(#filter0_ii_96_11681)">
<path d="M12.0585 8.66842C11.7222 9.02262 11.5234 9.57232 11.5234 10.2842V35.7176C11.5234 36.4306 11.7222 36.9791 12.0585 37.3333L12.144 37.4161L26.4601 23.1688V23.0009V22.833L12.144 8.58447L12.0585 8.66842Z" fill="url(#paint0_linear_96_11681)"/>
<path d="M31.2322 27.9194L26.4609 23.1688V23.0009V22.833L31.2334 18.0835L31.3408 18.1444L36.995 21.3414C38.6093 22.2545 38.6093 23.7484 36.995 24.6626L31.3408 27.8596L31.2322 27.9194Z" fill="url(#paint1_linear_96_11681)"/>
<g filter="url(#filter1_i_96_11681)">
<path d="M31.3402 27.8586L26.4591 23.001L12.0586 37.3334C12.5902 37.8946 13.4695 37.9636 14.4598 37.4047L31.3402 27.8586Z" fill="url(#paint2_linear_96_11681)"/>
</g>
<path d="M31.3402 18.1434L14.4598 8.5984C13.4695 8.03835 12.5902 8.1085 12.0586 8.6697L26.4603 23.0022L31.3402 18.1434Z" fill="url(#paint3_linear_96_11681)"/>
</g>
<rect x="0.5" y="0.5" width="155" height="45" rx="4.5" stroke="#A6A6A6"/>
<path d="M78.3203 25.2481C75.6015 25.2481 73.3854 27.2441 73.3854 29.9931C73.3854 32.7254 75.6015 34.7381 78.3203 34.7381C81.0404 34.7381 83.2564 32.7254 83.2564 29.9931C83.2552 27.2441 81.0392 25.2481 78.3203 25.2481ZM78.3203 32.8705C76.8303 32.8705 75.546 31.6845 75.546 29.9942C75.546 28.2861 76.8314 27.118 78.3203 27.118C79.8104 27.118 81.0947 28.2861 81.0947 29.9942C81.0947 31.6834 79.8104 32.8705 78.3203 32.8705ZM67.5535 25.2481C64.8346 25.2481 62.6186 27.2441 62.6186 29.9931C62.6186 32.7254 64.8346 34.7381 67.5535 34.7381C70.2735 34.7381 72.4895 32.7254 72.4895 29.9931C72.4895 27.2441 70.2735 25.2481 67.5535 25.2481ZM67.5535 32.8705C66.0634 32.8705 64.7791 31.6845 64.7791 29.9942C64.7791 28.2861 66.0645 27.118 67.5535 27.118C69.0435 27.118 70.3278 28.2861 70.3278 29.9942C70.329 31.6834 69.0435 32.8705 67.5535 32.8705ZM54.7474 26.7052V28.7179H59.739C59.5899 29.8503 59.1991 30.677 58.6026 31.2516C57.8767 31.9523 56.7404 32.7254 54.7474 32.7254C51.6748 32.7254 49.2727 30.3345 49.2727 27.3691C49.2727 24.4036 51.6748 22.0127 54.7474 22.0127C56.4051 22.0127 57.6154 22.6419 58.509 23.4508L59.9806 22.0305C58.7321 20.8803 57.0756 20 54.7474 20C50.5385 20 47 23.3069 47 27.3691C47 31.4312 50.5385 34.7381 54.7474 34.7381C57.0189 34.7381 58.7333 34.0185 60.0731 32.6708C61.451 31.3409 61.8799 29.471 61.8799 27.9615C61.8799 27.4951 61.8429 27.0634 61.7677 26.7041H54.7474V26.7052ZM107.123 28.2683C106.714 27.2084 105.465 25.2481 102.914 25.2481C100.381 25.2481 98.2762 27.1716 98.2762 29.9931C98.2762 32.6529 100.363 34.7381 103.156 34.7381C105.409 34.7381 106.713 33.4082 107.254 32.6351L105.577 31.5562C105.019 32.3472 104.255 32.8682 103.156 32.8682C102.057 32.8682 101.275 32.3829 100.772 31.4301L107.346 28.806L107.123 28.2683ZM100.418 29.8503C100.363 28.0161 101.89 27.0823 102.989 27.0823C103.846 27.0823 104.572 27.4962 104.814 28.0887L100.418 29.8503ZM95.0741 34.4514H97.2335V20.5043H95.0741V34.4514ZM91.5344 26.3092H91.4604C90.9761 25.7513 90.0444 25.2481 88.8722 25.2481C86.4134 25.2481 84.1604 27.3334 84.1604 30.0121C84.1604 32.6719 86.4134 34.7392 88.8722 34.7392C90.0455 34.7392 90.9761 34.2361 91.4604 33.6615H91.5344V34.3443C91.5344 36.1595 90.5287 37.1301 88.9092 37.1301C87.5867 37.1301 86.7671 36.2142 86.4319 35.441L84.5511 36.1963C85.091 37.4537 86.5244 39 88.9092 39C91.4419 39 93.584 37.5619 93.584 34.0564V25.5371H91.5356V26.3092H91.5344ZM89.0583 32.8705C87.5682 32.8705 86.3209 31.6655 86.3209 30.0121C86.3209 28.3397 87.5682 27.118 89.0583 27.118C90.5287 27.118 91.6836 28.3397 91.6836 30.0121C91.6836 31.6655 90.5287 32.8705 89.0583 32.8705ZM117.242 20.5043H112.074V34.4514H114.23V29.1675H117.241C119.632 29.1675 121.983 27.4974 121.983 24.8365C121.983 22.1756 119.633 20.5043 117.242 20.5043ZM117.298 27.2262H114.23V22.4456H117.298C118.911 22.4456 119.826 23.7342 119.826 24.8365C119.826 25.9164 118.911 27.2262 117.298 27.2262ZM130.629 25.2236C129.067 25.2236 127.45 25.8874 126.78 27.359L128.695 28.1299C129.104 27.359 129.867 27.1069 130.666 27.1069C131.781 27.1069 132.915 27.7528 132.934 28.9009V29.0448C132.543 28.8295 131.706 28.507 130.684 28.507C128.621 28.507 126.519 29.6015 126.519 31.6466C126.519 33.5131 128.212 34.7147 130.107 34.7147C131.557 34.7147 132.357 34.0866 132.859 33.3502H132.933V34.4268H135.016V29.0794C135.017 26.6048 133.1 25.2236 130.629 25.2236ZM130.368 32.8671C129.662 32.8671 128.676 32.5257 128.676 31.6823C128.676 30.6056 129.904 30.1928 130.964 30.1928C131.911 30.1928 132.358 30.3903 132.934 30.6592C132.766 31.9523 131.614 32.8671 130.368 32.8671ZM142.601 25.5282L140.129 31.5752H140.055L137.488 25.5282H135.165L139.013 33.9794L136.819 38.6809H139.069L145 25.5282H142.601ZM123.174 34.4514H125.33V20.5043H123.174V34.4514Z" fill="white"/>
<path d="M55.0266 11.7718C55.0266 12.7076 54.7394 13.4523 54.1637 14.0084C53.5103 14.6694 52.6578 14.9999 51.6106 14.9999C50.6075 14.9999 49.7538 14.665 49.053 13.995C48.351 13.3239 48 12.4932 48 11.5016C48 10.509 48.351 9.67821 49.053 9.00824C49.7538 8.33716 50.6075 8.00218 51.6106 8.00218C52.1087 8.00218 52.5848 8.09598 53.0366 8.28245C53.4895 8.47004 53.8521 8.71904 54.1231 9.03057L53.5127 9.62014C53.0528 9.08975 52.4192 8.82512 51.6095 8.82512C50.8774 8.82512 50.2449 9.07301 49.7109 9.56878C49.1769 10.0646 48.9105 10.7088 48.9105 11.5005C48.9105 12.2922 49.1769 12.9365 49.7109 13.4322C50.2449 13.928 50.8774 14.1759 51.6095 14.1759C52.3856 14.1759 53.0331 13.9269 53.5509 13.4278C53.8868 13.1028 54.0814 12.6506 54.1335 12.0711H51.6095V11.266H54.9768C55.0116 11.4413 55.0266 11.6099 55.0266 11.7718Z" fill="white"/>
<path d="M60.3668 8.97369H57.2022V11.0975H60.0564V11.9025H57.2022V14.0263H60.3668V14.8504H56.3091V8.15075H60.3668V8.97369Z" fill="white"/>
<path d="M64.1325 14.8504H63.2394V8.97369H61.298V8.15075H66.0739V8.97369H64.1325V14.8504Z" fill="white"/>
<path d="M69.5293 14.8504V8.15075H70.4224V14.8504H69.5293Z" fill="white"/>
<path d="M74.383 14.8504H73.4899V8.97369H71.5485V8.15075H76.3244V8.97369H74.383V14.8504Z" fill="white"/>
<path d="M85.3652 13.985C84.6818 14.6617 83.8327 15 82.8168 15C81.8009 15 80.9518 14.6617 80.2696 13.985C79.5861 13.3083 79.2456 12.4798 79.2456 11.5006C79.2456 10.5213 79.5861 9.69277 80.2696 9.01611C80.9518 8.33945 81.8009 8 82.8168 8C83.8269 8 84.6748 8.34056 85.3606 9.02058C86.0463 9.70059 86.3892 10.5269 86.3892 11.5006C86.3892 12.4798 86.0475 13.3083 85.3652 13.985ZM80.9287 13.4234C81.443 13.9258 82.072 14.1759 82.8168 14.1759C83.5616 14.1759 84.1918 13.9247 84.7049 13.4234C85.2192 12.9209 85.4776 12.2799 85.4776 11.5006C85.4776 10.7212 85.2192 10.0802 84.7049 9.57776C84.1918 9.07529 83.5616 8.82517 82.8168 8.82517C82.072 8.82517 81.443 9.07641 80.9287 9.57776C80.4155 10.0802 80.1572 10.7212 80.1572 11.5006C80.1572 12.2799 80.4155 12.9209 80.9287 13.4234Z" fill="white"/>
<path d="M87.6426 14.8504V8.15075H88.7291L92.1069 13.3619H92.1451L92.1069 12.0712V8.15075H93V14.8504H92.0675L88.5334 9.38572H88.4951L88.5334 10.6765V14.8504H87.6426Z" fill="white"/>
<path d="M55.0266 11.7718C55.0266 12.7076 54.7394 13.4523 54.1637 14.0084C53.5103 14.6694 52.6578 14.9999 51.6106 14.9999C50.6075 14.9999 49.7538 14.665 49.053 13.995C48.351 13.3239 48 12.4932 48 11.5016C48 10.509 48.351 9.67821 49.053 9.00824C49.7538 8.33716 50.6075 8.00218 51.6106 8.00218C52.1087 8.00218 52.5848 8.09598 53.0366 8.28245C53.4895 8.47004 53.8521 8.71904 54.1231 9.03057L53.5127 9.62014C53.0528 9.08975 52.4192 8.82512 51.6095 8.82512C50.8774 8.82512 50.2449 9.07301 49.7109 9.56878C49.1769 10.0646 48.9105 10.7088 48.9105 11.5005C48.9105 12.2922 49.1769 12.9365 49.7109 13.4322C50.2449 13.928 50.8774 14.1759 51.6095 14.1759C52.3856 14.1759 53.0331 13.9269 53.5509 13.4278C53.8868 13.1028 54.0814 12.6506 54.1335 12.0711H51.6095V11.266H54.9768C55.0116 11.4413 55.0266 11.6099 55.0266 11.7718Z" stroke="white" stroke-width="0.2" stroke-miterlimit="10"/>
<path d="M60.3668 8.97369H57.2022V11.0975H60.0564V11.9025H57.2022V14.0263H60.3668V14.8504H56.3091V8.15075H60.3668V8.97369Z" stroke="white" stroke-width="0.2" stroke-miterlimit="10"/>
<path d="M64.1325 14.8504H63.2394V8.97369H61.298V8.15075H66.0739V8.97369H64.1325V14.8504Z" stroke="white" stroke-width="0.2" stroke-miterlimit="10"/>
<path d="M69.5293 14.8504V8.15075H70.4224V14.8504H69.5293Z" stroke="white" stroke-width="0.2" stroke-miterlimit="10"/>
<path d="M74.383 14.8504H73.4899V8.97369H71.5485V8.15075H76.3244V8.97369H74.383V14.8504Z" stroke="white" stroke-width="0.2" stroke-miterlimit="10"/>
<path d="M85.3652 13.985C84.6818 14.6617 83.8327 15 82.8168 15C81.8009 15 80.9518 14.6617 80.2696 13.985C79.5861 13.3083 79.2456 12.4798 79.2456 11.5006C79.2456 10.5213 79.5861 9.69277 80.2696 9.01611C80.9518 8.33945 81.8009 8 82.8168 8C83.8269 8 84.6748 8.34056 85.3606 9.02058C86.0463 9.70059 86.3892 10.5269 86.3892 11.5006C86.3892 12.4798 86.0475 13.3083 85.3652 13.985ZM80.9287 13.4234C81.443 13.9258 82.072 14.1759 82.8168 14.1759C83.5616 14.1759 84.1918 13.9247 84.7049 13.4234C85.2192 12.9209 85.4776 12.2799 85.4776 11.5006C85.4776 10.7212 85.2192 10.0802 84.7049 9.57776C84.1918 9.07529 83.5616 8.82517 82.8168 8.82517C82.072 8.82517 81.443 9.07641 80.9287 9.57776C80.4155 10.0802 80.1572 10.7212 80.1572 11.5006C80.1572 12.2799 80.4155 12.9209 80.9287 13.4234Z" stroke="white" stroke-width="0.2" stroke-miterlimit="10"/>
<path d="M87.6426 14.8504V8.15075H88.7291L92.1069 13.3619H92.1451L92.1069 12.0712V8.15075H93V14.8504H92.0675L88.5334 9.38572H88.4951L88.5334 10.6765V14.8504H87.6426Z" stroke="white" stroke-width="0.2" stroke-miterlimit="10"/>
<defs>
<filter id="filter0_ii_96_11681" x="11.5234" y="8.21191" width="26.6836" height="29.5786" filterUnits="userSpaceOnUse" color-interpolation-filters="sRGB">
<feFlood flood-opacity="0" result="BackgroundImageFix"/>
<feBlend mode="normal" in="SourceGraphic" in2="BackgroundImageFix" result="shape"/>
<feColorMatrix in="SourceAlpha" type="matrix" values="0 0 0 0 0 0 0 0 0 0 0 0 0 0 0 0 0 0 127 0" result="hardAlpha"/>
<feOffset dy="-0.15"/>
<feComposite in2="hardAlpha" operator="arithmetic" k2="-1" k3="1"/>
<feColorMatrix type="matrix" values="0 0 0 0 0 0 0 0 0 0 0 0 0 0 0 0 0 0 0.12 0"/>
<feBlend mode="normal" in2="shape" result="effect1_innerShadow_96_11681"/>
<feColorMatrix in="SourceAlpha" type="matrix" values="0 0 0 0 0 0 0 0 0 0 0 0 0 0 0 0 0 0 127 0" result="hardAlpha"/>
<feOffset dy="0.15"/>
<feComposite in2="hardAlpha" operator="arithmetic" k2="-1" k3="1"/>
<feColorMatrix type="matrix" values="0 0 0 0 1 0 0 0 0 1 0 0 0 0 1 0 0 0 0.25 0"/>
<feBlend mode="normal" in2="effect1_innerShadow_96_11681" result="effect2_innerShadow_96_11681"/>
</filter>
<filter id="filter1_i_96_11681" x="12.0586" y="23.001" width="19.2812" height="14.7896" filterUnits="userSpaceOnUse" color-interpolation-filters="sRGB">
<feFlood flood-opacity="0" result="BackgroundImageFix"/>
<feBlend mode="normal" in="SourceGraphic" in2="BackgroundImageFix" result="shape"/>
<feColorMatrix in="SourceAlpha" type="matrix" values="0 0 0 0 0 0 0 0 0 0 0 0 0 0 0 0 0 0 127 0" result="hardAlpha"/>
<feOffset dy="-0.15"/>
<feComposite in2="hardAlpha" operator="arithmetic" k2="-1" k3="1"/>
<feColorMatrix type="matrix" values="0 0 0 0 0 0 0 0 0 0 0 0 0 0 0 0 0 0 0.08 0"/>
<feBlend mode="normal" in2="shape" result="effect1_innerShadow_96_11681"/>
</filter>
<linearGradient id="paint0_linear_96_11681" x1="25.1911" y1="10.0151" x2="5.89204" y2="29.4074" gradientUnits="userSpaceOnUse">
<stop stop-color="#00A0FF"/>
<stop offset="0.0066" stop-color="#00A1FF"/>
<stop offset="0.2601" stop-color="#00BEFF"/>
<stop offset="0.5122" stop-color="#00D2FF"/>
<stop offset="0.7604" stop-color="#00DFFF"/>
<stop offset="1" stop-color="#00E3FF"/>
</linearGradient>
<linearGradient id="paint1_linear_96_11681" x1="39.0964" y1="23.0009" x2="11.1367" y2="23.0009" gradientUnits="userSpaceOnUse">
<stop stop-color="#FFE000"/>
<stop offset="0.4087" stop-color="#FFBD00"/>
<stop offset="0.7754" stop-color="#FFA500"/>
<stop offset="1" stop-color="#FF9C00"/>
</linearGradient>
<linearGradient id="paint2_linear_96_11681" x1="28.6895" y1="25.639" x2="2.5175" y2="51.9374" gradientUnits="userSpaceOnUse">
<stop stop-color="#FF3A44"/>
<stop offset="1" stop-color="#C31162"/>
</linearGradient>
<linearGradient id="paint3_linear_96_11681" x1="8.43177" y1="0.203171" x2="20.1183" y2="11.9461" gradientUnits="userSpaceOnUse">
<stop stop-color="#32A071"/>
<stop offset="0.0685" stop-color="#2DA771"/>
<stop offset="0.4762" stop-color="#15CF74"/>
<stop offset="0.8009" stop-color="#06E775"/>
<stop offset="1" stop-color="#00F076"/>
</linearGradient>
</defs>
</svg>
