<svg width="26" height="21" viewBox="0 0 26 21" fill="none" xmlns="http://www.w3.org/2000/svg">
<path d="M15.2603 17.7419C16.3356 19.4624 17.9216 20.3226 20.0184 20.3226C21.47 20.3226 22.6797 19.8387 23.6474 18.871C24.6689 17.8495 25.1797 16.6129 25.1797 15.1613C25.1797 13.6022 24.6689 12.3656 23.6474 11.4516C22.6797 10.4839 21.47 10 20.0184 10C18.8894 10 17.8947 10.3495 17.0345 11.0484C16.8732 10.5645 16.7926 10 16.7926 9.35484C16.7926 7.7957 17.384 6.26344 18.5668 4.75807C19.8033 3.25269 21.255 2.15054 22.9216 1.45161L22.1958 0C19.4001 1.29033 17.3033 3.01076 15.9055 5.16129C14.5614 7.31183 13.8894 9.73119 13.8894 12.4194C13.8894 14.5161 14.3464 16.2903 15.2603 17.7419Z" fill="black"/>
<path d="M1.55066 17.7419C2.62592 19.4624 4.21195 20.3226 6.30872 20.3226C7.76033 20.3226 8.97001 19.8387 9.93775 18.871C10.9593 17.8495 11.47 16.6129 11.47 15.1613C11.47 13.6022 10.9593 12.3656 9.93775 11.4516C8.97001 10.4839 7.76033 10 6.30872 10C5.17969 10 4.18506 10.3495 3.32485 11.0484C3.16356 10.5645 3.08291 10 3.08291 9.35484C3.08291 7.7957 3.67431 6.26344 4.85711 4.75807C6.09367 3.25269 7.54528 2.15054 9.21194 1.45161L8.48614 0C5.69044 1.29033 3.59367 3.01076 2.19582 5.16129C0.85173 7.31183 0.179688 9.73119 0.179688 12.4194C0.179688 14.5161 0.636677 16.2903 1.55066 17.7419Z" fill="black"/>
</svg>
