<svg width="30" height="30" viewBox="0 0 30 30" fill="none" xmlns="http://www.w3.org/2000/svg">
<path d="M12.7808 6.89076C13.3447 6.41023 13.6266 6.16997 13.9214 6.02907C14.6032 5.7032 15.3958 5.7032 16.0776 6.02907C16.3724 6.16997 16.6543 6.41023 17.2182 6.89076C17.4426 7.08201 17.5548 7.17764 17.6747 7.25796C17.9494 7.44209 18.2579 7.56988 18.5824 7.63393C18.7239 7.66188 18.8709 7.6736 19.1648 7.69706C19.9033 7.75599 20.2725 7.78546 20.5806 7.89427C21.2931 8.14594 21.8536 8.7064 22.1053 9.41893C22.2141 9.72699 22.2435 10.0962 22.3025 10.8348C22.3259 11.1287 22.3377 11.2756 22.3656 11.4172C22.4297 11.7416 22.5574 12.0501 22.7416 12.3249C22.8219 12.4447 22.9175 12.5569 23.1088 12.7813C23.5893 13.3452 23.8296 13.6271 23.9705 13.9219C24.2963 14.6037 24.2963 15.3963 23.9705 16.0781C23.8296 16.3729 23.5893 16.6548 23.1088 17.2187C22.9175 17.4431 22.8219 17.5553 22.7416 17.6752C22.5574 17.9499 22.4297 18.2584 22.3656 18.5828C22.3377 18.7244 22.3259 18.8713 22.3025 19.1653C22.2435 19.9038 22.2141 20.273 22.1053 20.5811C21.8536 21.2936 21.2931 21.8541 20.5806 22.1058C20.2725 22.2146 19.9033 22.244 19.1648 22.303C18.8709 22.3264 18.7239 22.3381 18.5824 22.3661C18.2579 22.4301 17.9494 22.5579 17.6747 22.7421C17.5548 22.8224 17.4426 22.918 17.2182 23.1093C16.6543 23.5898 16.3724 23.8301 16.0776 23.971C15.3958 24.2968 14.6032 24.2968 13.9214 23.971C13.6267 23.8301 13.3447 23.5898 12.7808 23.1093C12.5564 22.918 12.4442 22.8224 12.3244 22.7421C12.0497 22.5579 11.7411 22.4301 11.4167 22.3661C11.2752 22.3381 11.1282 22.3264 10.8343 22.303C10.0958 22.244 9.72651 22.2146 9.41844 22.1058C8.70591 21.8541 8.14546 21.2936 7.89378 20.5811C7.78497 20.273 7.7555 19.9038 7.69657 19.1653C7.67312 18.8713 7.66139 18.7244 7.63344 18.5828C7.56939 18.2584 7.4416 17.9499 7.25747 17.6752C7.17715 17.5553 7.08152 17.4431 6.89027 17.2187C6.40974 16.6548 6.16948 16.3729 6.02859 16.0781C5.70271 15.3963 5.70271 14.6037 6.02859 13.9219C6.16948 13.6271 6.40974 13.3452 6.89027 12.7813C7.08152 12.5569 7.17715 12.4447 7.25747 12.3249C7.4416 12.0501 7.56939 11.7416 7.63344 11.4172C7.66139 11.2756 7.67312 11.1287 7.69657 10.8348C7.7555 10.0962 7.78497 9.72699 7.89378 9.41893C8.14546 8.7064 8.70591 8.14594 9.41844 7.89427C9.72651 7.78546 10.0958 7.75599 10.8343 7.69706C11.1282 7.6736 11.2752 7.66188 11.4167 7.63393C11.7411 7.56988 12.0497 7.44209 12.3244 7.25796C12.4442 7.17764 12.5564 7.08201 12.7808 6.89076Z" stroke="#002248" stroke-width="1.5"/>
<path d="M12 18L18 12" stroke="#002248" stroke-width="1.5" stroke-linecap="round"/>
<path d="M18.5 17.5C18.5 18.0523 18.0523 18.5 17.5 18.5C16.9477 18.5 16.5 18.0523 16.5 17.5C16.5 16.9477 16.9477 16.5 17.5 16.5C18.0523 16.5 18.5 16.9477 18.5 17.5Z" fill="#002248"/>
<path d="M13.5 12.5C13.5 13.0523 13.0523 13.5 12.5 13.5C11.9477 13.5 11.5 13.0523 11.5 12.5C11.5 11.9477 11.9477 11.5 12.5 11.5C13.0523 11.5 13.5 11.9477 13.5 12.5Z" fill="#002248"/>
</svg>
