<svg width="164" height="50" viewBox="0 0 164 50" fill="none" xmlns="http://www.w3.org/2000/svg">
<path fill-rule="evenodd" clip-rule="evenodd" d="M32.8001 22.4426L32.4116 21.9247C32.239 21.6658 27.8369 15.4079 26.7579 13.3795C26.6716 13.2068 26.5853 13.0198 26.499 12.8184C26.4415 12.6458 26.3839 12.4588 26.3264 12.2574C26.2688 12.0559 26.2113 11.8689 26.1537 11.6963C26.125 11.4949 26.0962 11.2935 26.0674 11.0921L13.4221 17.2637V21.45H12.5158V17.2637L0.906318 11.5668V38.7995L11.48 43.9785L12.5158 44.4964V26.2405H13.4221V44.4964L25.0316 38.7995V31.4627H25.9379V38.7995L37.5906 44.4964V17.4363H38.4969V45.1869C38.4969 45.2732 38.4681 45.3595 38.4106 45.4458C38.3818 45.5034 38.3387 45.5465 38.2811 45.5753C38.1948 45.6329 38.1229 45.6616 38.0653 45.6616C37.979 45.6616 37.9071 45.6472 37.8495 45.6185L25.5064 39.5764L13.3358 45.5322L13.2927 45.489C13.2927 45.5322 13.2495 45.5753 13.2063 45.5753C13.1776 45.6041 13.1488 45.6185 13.12 45.6185C13.0913 45.6472 13.0481 45.6616 12.9906 45.6616C12.9618 45.6616 12.933 45.6616 12.9042 45.6616C12.8467 45.6329 12.8035 45.6185 12.7748 45.6185L10.2716 44.3669L0.258948 39.49C0.230176 39.4613 0.187018 39.4325 0.129474 39.4037C0.100702 39.3749 0.086316 39.3462 0.086316 39.3174C0.057544 39.2886 0.028772 39.2599 0 39.2311C0 39.1735 0 39.1304 0 39.1016V10.8331C0 10.7756 0.014386 10.7037 0.043158 10.6173C0.100702 10.5598 0.158246 10.5023 0.21579 10.4447C0.273334 10.4159 0.345264 10.4016 0.43158 10.4016C0.517896 10.4016 0.589826 10.4159 0.64737 10.4447L12.9906 16.4437L25.7222 10.2289L26.0674 10.9195C26.0386 10.8619 26.0243 10.8044 26.0243 10.7468C26.0243 10.6893 26.0243 10.6317 26.0243 10.5742C26.0243 10.5166 26.0243 10.4591 26.0243 10.4016C26.0243 10.344 26.0243 10.2865 26.0243 10.2289C26.0243 6.51734 29.0453 3.45312 32.8001 3.45312C36.5548 3.45312 39.5759 6.51734 39.5759 10.2289C39.5759 11.2647 39.3601 12.3005 38.8853 13.2068C37.8927 15.3216 33.3611 21.6658 33.1453 21.9247L32.8001 22.4426ZM25.9811 26.4995H25.0748V15.1058H25.9811V26.4995ZM8.71791 25.4205C7.68212 26.4995 7.76844 28.01 7.76844 28.01V28.4416L6.86212 28.5279V28.0532C6.86212 27.9669 6.7758 26.1542 8.02738 24.7732C8.9337 23.8237 10.2284 23.349 11.9548 23.3058H12.0411C14.4579 23.3058 16.9611 24.7732 19.4211 26.1974C21.6221 27.449 23.7369 28.6574 25.5495 28.6574C29.6495 28.6574 31.678 27.4058 31.678 24.8163V24.3416H32.5843V24.8163C32.5843 26.9742 31.3759 29.5637 25.5495 29.5637C23.4779 29.5637 21.2769 28.3121 18.9464 26.9742C16.6158 25.6363 14.199 24.2121 12.0411 24.2121H11.9548C10.5305 24.2553 9.4516 24.6437 8.71791 25.4205ZM32.8432 20.8889C33.9653 19.2921 37.2885 14.5447 38.1085 12.8184C38.2236 12.617 38.3099 12.4156 38.3674 12.2142C38.4538 11.984 38.5113 11.7682 38.5401 11.5668C38.5976 11.3366 38.6408 11.1209 38.6695 10.9195C38.6983 10.6893 38.7127 10.4591 38.7127 10.2289C38.7127 6.99208 36.0801 4.35944 32.8001 4.35944C29.5632 4.35944 26.9306 6.99208 26.9306 10.2289C26.9306 11.2072 27.1608 12.1135 27.6211 12.9479C28.4411 14.5879 31.7211 19.2921 32.8432 20.8889ZM32.8001 13.2931C32.3973 13.2931 32.0232 13.2068 31.678 13.0342C31.3039 12.8903 30.973 12.6745 30.6853 12.3868C30.3976 12.0991 30.1818 11.7682 30.038 11.3942C29.8653 11.0202 29.779 10.6317 29.779 10.2289C29.779 9.82612 29.8509 9.45208 29.9948 9.10682C30.1674 8.73278 30.3976 8.40191 30.6853 8.11419C30.973 7.82647 31.3039 7.59629 31.678 7.42366C32.0232 7.2798 32.3973 7.20787 32.8001 7.20787C33.2029 7.20787 33.5913 7.2798 33.9653 7.42366C34.3394 7.59629 34.6702 7.82647 34.958 8.11419C35.2457 8.40191 35.4615 8.73278 35.6053 9.10682C35.778 9.45208 35.8643 9.82612 35.8643 10.2289C35.8643 10.6317 35.778 11.0202 35.6053 11.3942C35.4615 11.7682 35.2457 12.0991 34.958 12.3868C34.6702 12.6745 34.3394 12.8903 33.9653 13.0342C33.5913 13.2068 33.2029 13.2931 32.8001 13.2931ZM34.958 10.2289C34.958 9.96998 34.9004 9.71103 34.7853 9.45208C34.6702 9.19314 34.512 8.96296 34.3106 8.76156C34.1092 8.56015 33.879 8.40191 33.6201 8.28682C33.3611 8.17173 33.0878 8.11419 32.8001 8.11419C32.5411 8.11419 32.2822 8.17173 32.0232 8.28682C31.7643 8.40191 31.5341 8.56015 31.3327 8.76156C31.1313 8.96296 30.973 9.19314 30.858 9.45208C30.7429 9.71103 30.6853 9.96998 30.6853 10.2289C30.6853 10.5166 30.7429 10.79 30.858 11.0489C30.973 11.3079 31.1313 11.5381 31.3327 11.7395C31.5341 11.9409 31.7643 12.0991 32.0232 12.2142C32.2822 12.3293 32.5411 12.3868 32.8001 12.3868C33.0878 12.3868 33.3611 12.3293 33.6201 12.2142C33.879 12.0991 34.1092 11.9409 34.3106 11.7395C34.512 11.5381 34.6702 11.3079 34.7853 11.0489C34.9004 10.79 34.958 10.5166 34.958 10.2289Z" fill="white"/>
<path fill-rule="evenodd" clip-rule="evenodd" d="M38.6689 10.2298C38.6689 10.46 38.6545 10.6902 38.6257 10.9204C38.597 11.1218 38.5682 11.3376 38.5394 11.5677C38.4819 11.7691 38.41 11.9849 38.3236 12.2151C38.2661 12.4165 38.1942 12.6179 38.1078 12.8193C37.2447 14.5025 33.9215 19.293 32.7994 20.8899C31.6773 19.293 28.4405 14.5888 27.5773 12.9488C27.1457 12.1144 26.9299 11.2081 26.9299 10.2298C26.9299 6.99299 29.5626 4.36035 32.7994 4.36035C36.0363 4.36035 38.6689 6.99299 38.6689 10.2298ZM33.9647 13.0351C34.3387 12.8912 34.6696 12.6755 34.9573 12.3877C35.2163 12.1 35.4321 11.7691 35.6047 11.3951C35.7485 11.0211 35.8205 10.6326 35.8205 10.2298C35.8205 9.82703 35.7485 9.43861 35.6047 9.06457C35.4321 8.71931 35.2163 8.40282 34.9573 8.1151C34.6696 7.82738 34.3387 7.5972 33.9647 7.42457C33.5906 7.28071 33.2022 7.20878 32.7994 7.20878C32.3966 7.20878 32.0082 7.28071 31.6342 7.42457C31.2601 7.5972 30.9292 7.82738 30.6415 8.1151C30.3538 8.40282 30.138 8.71931 29.9941 9.06457C29.8503 9.43861 29.7784 9.82703 29.7784 10.2298C29.7784 10.6326 29.8503 11.0211 29.9941 11.3951C30.138 11.7691 30.3538 12.1 30.6415 12.3877C30.9292 12.6755 31.2601 12.8912 31.6342 13.0351C32.0082 13.2077 32.3966 13.2941 32.7994 13.2941C33.2022 13.2941 33.5906 13.2077 33.9647 13.0351Z" fill="white"/>
<path d="M9.10673 30.6864L7.63936 32.1538L9.10673 33.578L8.45936 34.2254L7.03515 32.758L5.56778 34.2254L4.92041 33.578L6.38778 32.1538L4.92041 30.6864L5.56778 30.0391L7.03515 31.5064L8.45936 30.0391L9.10673 30.6864Z" fill="white"/>
<path fill-rule="evenodd" clip-rule="evenodd" d="M60.8954 39.9648C60.3487 39.9648 59.8596 39.8498 59.428 39.6196C59.0252 39.3894 58.6943 39.0729 58.4353 38.6701C58.2052 38.2673 58.0901 37.8069 58.0901 37.289C58.0901 36.7999 58.2052 36.354 58.4353 35.9511C58.6943 35.5483 59.0252 35.2318 59.428 35.0017C59.8596 34.7715 60.3487 34.6564 60.8954 34.6564C61.4133 34.6564 61.888 34.7715 62.3196 35.0017C62.7511 35.2318 63.082 35.5483 63.3122 35.9511C63.5424 36.354 63.6575 36.7999 63.6575 37.289C63.6575 37.8069 63.5424 38.2673 63.3122 38.6701C63.082 39.0729 62.7511 39.3894 62.3196 39.6196C61.888 39.8498 61.4133 39.9648 60.8954 39.9648ZM60.8954 38.929C61.1831 38.929 61.4564 38.8715 61.7154 38.7564C61.9455 38.6126 62.1326 38.4112 62.2764 38.1522C62.4203 37.8933 62.4922 37.6055 62.4922 37.289C62.4922 36.9726 62.4203 36.6992 62.2764 36.469C62.1326 36.2101 61.9455 36.0087 61.7154 35.8648C61.4564 35.7497 61.1831 35.6922 60.8954 35.6922C60.5789 35.6922 60.3055 35.7497 60.0754 35.8648C59.8164 36.0087 59.615 36.2101 59.4711 36.469C59.3561 36.6992 59.2985 36.9726 59.2985 37.289C59.2985 37.6055 59.3561 37.8933 59.4711 38.1522C59.615 38.4112 59.8164 38.6126 60.0754 38.7564C60.3055 38.8715 60.5789 38.929 60.8954 38.929ZM66.4627 35.8648V36.0375H67.4554V36.9006H66.5059V39.8785H65.3406V36.9006H64.7364V36.0375H65.3406V35.8648C65.3406 35.4045 65.4845 35.0448 65.7722 34.7859C66.0312 34.5269 66.4052 34.3975 66.8943 34.3975C67.0669 34.3975 67.2252 34.4118 67.3691 34.4406C67.5129 34.4694 67.6424 34.5269 67.7575 34.6133L67.4554 35.4332C67.3115 35.3469 67.1533 35.3038 66.9806 35.3038C66.6354 35.3038 66.4627 35.4908 66.4627 35.8648ZM70.0448 35.8648V36.0375H71.0375V36.9006H70.0448V39.8785H68.9227V36.9006H68.3185V36.0375H68.9227V35.8648C68.9227 35.4045 69.0522 35.0448 69.3112 34.7859C69.5701 34.5269 69.9441 34.3975 70.4333 34.3975C70.6059 34.3975 70.7641 34.4118 70.908 34.4406C71.0806 34.4694 71.2101 34.5269 71.2964 34.6133L70.9943 35.4332C70.8792 35.3469 70.7354 35.3038 70.5627 35.3038C70.2175 35.3038 70.0448 35.4908 70.0448 35.8648ZM77.9428 35.9511H79.0217L77.2522 40.0943C77.0796 40.5547 76.8638 40.8712 76.6049 41.0438C76.3171 41.2452 75.9863 41.3459 75.6122 41.3459C75.4108 41.3459 75.2094 41.3171 75.008 41.2596C74.8066 41.1733 74.6484 41.0869 74.5333 41.0006L74.9649 40.1806C75.0512 40.2382 75.1519 40.2957 75.267 40.3533C75.382 40.4108 75.4828 40.4396 75.5691 40.4396C75.7417 40.4396 75.8712 40.3964 75.9575 40.3101C76.0726 40.2238 76.1589 40.0943 76.2164 39.9217L76.2596 39.8785L74.5333 35.9511H75.7417L76.8206 38.5838L77.9428 35.9511ZM81.9996 39.9648C81.5968 39.9648 81.2228 39.8785 80.8775 39.7059C80.561 39.5333 80.3021 39.2887 80.1007 38.9722C79.928 38.6557 79.8417 38.3104 79.8417 37.9364C79.8417 37.5336 79.928 37.1883 80.1007 36.9006C80.3021 36.5841 80.561 36.3396 80.8775 36.1669C81.2228 35.9943 81.5968 35.908 81.9996 35.908C82.4024 35.908 82.7765 35.9943 83.1217 36.1669C83.4382 36.3396 83.6971 36.5841 83.8986 36.9006C84.0712 37.1883 84.1575 37.5336 84.1575 37.9364C84.1575 38.3104 84.0712 38.6557 83.8986 38.9722C83.6971 39.2887 83.4382 39.5333 83.1217 39.7059C82.7765 39.8785 82.4024 39.9648 81.9996 39.9648ZM81.9996 39.0154C82.2873 39.0154 82.5319 38.9147 82.7333 38.7133C82.9059 38.5119 82.9922 38.2529 82.9922 37.9364C82.9922 37.5912 82.9059 37.3322 82.7333 37.1596C82.5319 36.9582 82.2873 36.8575 81.9996 36.8575C81.7119 36.8575 81.4673 36.9582 81.2659 37.1596C81.0933 37.3322 81.007 37.5912 81.007 37.9364C81.007 38.2529 81.0933 38.5119 81.2659 38.7133C81.4673 38.9147 81.7119 39.0154 81.9996 39.0154ZM88.4733 35.9511H89.5954V39.8785H88.5165V39.4469C88.3726 39.6196 88.2 39.749 87.9986 39.8354C87.7684 39.9217 87.5382 39.9648 87.308 39.9648C86.7901 39.9648 86.3729 39.8066 86.0565 39.4901C85.7687 39.2024 85.6249 38.7708 85.6249 38.1954V35.9511H86.747V38.0227C86.747 38.6557 87.0203 38.9722 87.567 38.9722C87.8259 38.9722 88.0417 38.8859 88.2143 38.7133C88.387 38.5406 88.4733 38.2673 88.4733 37.8933V35.9511ZM97.1481 35.9511H98.227V39.2312C98.227 39.9505 98.04 40.4827 97.666 40.828C97.2919 41.202 96.7452 41.3891 96.0259 41.3891C95.6519 41.3891 95.2923 41.3315 94.947 41.2164C94.6017 41.1301 94.3284 41.0006 94.127 40.828L94.5586 40.008C94.7312 40.1519 94.947 40.2669 95.2059 40.3533C95.4361 40.4108 95.6807 40.4396 95.9396 40.4396C96.3424 40.4396 96.6302 40.3533 96.8028 40.1806C97.0042 40.008 97.1049 39.749 97.1049 39.4038V39.2312C96.8172 39.5476 96.4 39.7059 95.8533 39.7059C95.5081 39.7059 95.1772 39.634 94.8607 39.4901C94.573 39.3175 94.3428 39.0873 94.1702 38.7996C93.9975 38.5119 93.9112 38.181 93.9112 37.8069C93.9112 37.4329 93.9975 37.102 94.1702 36.8143C94.3428 36.5266 94.573 36.3108 94.8607 36.1669C95.1772 35.9943 95.5081 35.908 95.8533 35.908C96.4288 35.908 96.8603 36.095 97.1481 36.469V35.9511ZM96.0691 38.7564C96.3856 38.7564 96.6445 38.6701 96.8459 38.4975C97.0186 38.3248 97.1049 38.0947 97.1049 37.8069C97.1049 37.5192 97.0186 37.289 96.8459 37.1164C96.6445 36.915 96.3856 36.8143 96.0691 36.8143C95.7814 36.8143 95.5368 36.915 95.3354 37.1164C95.134 37.289 95.0333 37.5192 95.0333 37.8069C95.0333 38.0947 95.134 38.3248 95.3354 38.4975C95.5368 38.6701 95.7814 38.7564 96.0691 38.7564ZM101.895 39.9217C101.493 39.9217 101.119 39.8354 100.773 39.6627C100.457 39.4901 100.198 39.2599 99.9965 38.9722C99.8238 38.6557 99.7375 38.3104 99.7375 37.9364C99.7375 37.5336 99.8238 37.174 99.9965 36.8575C100.198 36.5697 100.457 36.3396 100.773 36.1669C101.119 35.9943 101.493 35.908 101.895 35.908C102.327 35.908 102.701 35.9943 103.018 36.1669C103.334 36.3396 103.593 36.5697 103.794 36.8575C103.967 37.174 104.053 37.5336 104.053 37.9364C104.053 38.3104 103.967 38.6557 103.794 38.9722C103.593 39.2599 103.334 39.4901 103.018 39.6627C102.701 39.8354 102.327 39.9217 101.895 39.9217ZM101.895 39.0154C102.183 39.0154 102.428 38.9147 102.629 38.7133C102.802 38.5119 102.888 38.2529 102.888 37.9364C102.888 37.5912 102.802 37.3178 102.629 37.1164C102.428 36.915 102.183 36.8143 101.895 36.8143C101.608 36.8143 101.363 36.915 101.162 37.1164C100.989 37.3178 100.903 37.5912 100.903 37.9364C100.903 38.2529 100.989 38.5119 101.162 38.7133C101.363 38.9147 101.608 39.0154 101.895 39.0154ZM105.607 38.109L105.391 34.7859H106.772L106.513 38.109H105.607ZM106.082 39.9217C105.88 39.9217 105.708 39.8641 105.564 39.749C105.449 39.634 105.391 39.4757 105.391 39.2743C105.391 39.1017 105.449 38.9434 105.564 38.7996C105.708 38.6845 105.88 38.6269 106.082 38.6269C106.283 38.6269 106.456 38.6845 106.6 38.7996C106.715 38.9434 106.772 39.1017 106.772 39.2743C106.772 39.4757 106.715 39.634 106.6 39.749C106.456 39.8641 106.283 39.9217 106.082 39.9217Z" fill="white"/>
<path d="M66.808 30.9012C65.1105 30.9012 63.4704 30.6711 61.888 30.2107C60.3055 29.7503 59.0396 29.1605 58.0901 28.4412L59.7732 24.6865C60.6939 25.377 61.7873 25.9237 63.0533 26.3265C64.3192 26.7293 65.5852 26.9307 66.8512 26.9307C68.261 26.9307 69.3112 26.7149 70.0017 26.2833C70.6634 25.8805 70.9943 25.3338 70.9943 24.6433C70.9943 24.1254 70.7929 23.6938 70.3901 23.3486C69.9873 23.0033 69.4838 22.73 68.8796 22.5286C68.2466 22.3272 67.3978 22.1114 66.3333 21.8812C64.6933 21.4784 63.3554 21.09 62.3196 20.7159C61.2838 20.3131 60.3918 19.6802 59.6438 18.817C58.8957 17.9538 58.5217 16.8173 58.5217 15.4075C58.5217 14.1415 58.8525 13.0051 59.5143 11.998C60.2048 10.991 61.2262 10.1854 62.5785 9.58119C63.9308 9.00575 65.5852 8.71803 67.5417 8.71803C68.9227 8.71803 70.275 8.87628 71.5985 9.19277C72.8933 9.53803 74.0298 10.0128 75.008 10.617L73.4975 14.3717C71.5122 13.2496 69.5269 12.6886 67.5417 12.6886C66.1319 12.6886 65.0961 12.9187 64.4343 13.3791C63.7726 13.8107 63.4417 14.4005 63.4417 15.1486C63.4417 15.8966 63.8301 16.4433 64.6069 16.7886C65.3838 17.1626 66.5491 17.5223 68.1027 17.8675C69.7427 18.2416 71.0806 18.63 72.1164 19.0328C73.181 19.4068 74.0873 20.011 74.8354 20.8454C75.5834 21.6798 75.9575 22.8163 75.9575 24.2549C75.9575 25.4921 75.6122 26.6142 74.9217 27.6212C74.2312 28.6282 73.1954 29.4339 71.8143 30.0381C70.462 30.6135 68.7933 30.9012 66.808 30.9012ZM86.9628 30.8149C85.2077 30.8149 83.6396 30.4409 82.2586 29.6928C80.8487 28.9735 79.7554 27.9665 78.9785 26.6717C78.1729 25.4058 77.7701 23.9528 77.7701 22.3128C77.7701 20.6728 78.1729 19.2054 78.9785 17.9107C79.7554 16.6159 80.8487 15.6089 82.2586 14.8896C83.6396 14.1703 85.2077 13.8107 86.9628 13.8107C88.7179 13.8107 90.2428 14.1703 91.5375 14.8896C92.8323 15.6089 93.7817 16.6447 94.3859 17.997L90.6744 19.9823C89.8112 18.4861 88.574 17.738 86.9628 17.738C85.6968 17.738 84.661 18.1409 83.8554 18.9465C83.021 19.7809 82.6038 20.903 82.6038 22.3128C82.6038 23.7226 83.021 24.8303 83.8554 25.636C84.661 26.4703 85.6968 26.8875 86.9628 26.8875C88.6028 26.8875 89.84 26.1251 90.6744 24.6002L94.3859 26.6286C93.7817 27.9233 92.8323 28.9447 91.5375 29.6928C90.2428 30.4409 88.7179 30.8149 86.9628 30.8149ZM108.973 14.0265H113.764V30.556H109.232V28.5707C108.599 29.29 107.837 29.8367 106.945 30.2107C106.053 30.6135 105.104 30.8149 104.096 30.8149C101.939 30.8149 100.227 30.1819 98.9607 28.916C97.666 27.6788 97.0186 25.8374 97.0186 23.3917V14.0265H101.809V22.6581C101.809 25.3339 102.931 26.6717 105.175 26.6717C106.326 26.6717 107.247 26.2977 107.938 25.5496C108.628 24.8016 108.973 23.6938 108.973 22.2265V14.0265ZM127.574 26.3265L128.869 29.6928C128.38 30.0381 127.79 30.3114 127.1 30.5128C126.438 30.6854 125.719 30.7718 124.942 30.7718C122.985 30.7718 121.475 30.2682 120.41 29.2612C119.317 28.2542 118.77 26.7724 118.77 24.816V18.0402H116.224V14.3717H118.77V10.358H123.561V14.3717H127.704V18.0402H123.561V24.7728C123.561 25.4633 123.748 25.9956 124.122 26.3696C124.467 26.7437 124.971 26.9307 125.632 26.9307C126.38 26.9307 127.028 26.7293 127.574 26.3265ZM140.522 26.3265L141.817 29.6928C141.356 30.0381 140.781 30.3114 140.09 30.5128C139.4 30.6854 138.68 30.7718 137.932 30.7718C135.976 30.7718 134.451 30.2682 133.358 29.2612C132.293 28.2542 131.761 26.7724 131.761 24.816V18.0402H129.214V14.3717H131.761V10.358H136.551V14.3717H140.651V18.0402H136.551V24.7728C136.551 25.4633 136.724 25.9956 137.069 26.3696C137.443 26.7437 137.961 26.9307 138.623 26.9307C139.371 26.9307 140.004 26.7293 140.522 26.3265ZM144.536 30.5128V7.76855H149.326V30.5128H144.536ZM158.303 16.1844C158.878 15.3787 159.655 14.7745 160.633 14.3717C161.612 13.9689 162.734 13.7675 164 13.7675V18.1696C163.453 18.1409 163.093 18.1265 162.921 18.1265C161.54 18.1265 160.461 18.5005 159.684 19.2486C158.907 20.0254 158.519 21.1763 158.519 22.7012V30.5128H153.728V14.0265H158.303V16.1844Z" fill="white"/>
<path d="M48.25 0H49.9763V49.1138H48.25V0Z" fill="white"/>
</svg>
