<svg width="184" height="57" viewBox="0 0 184 57" fill="none" xmlns="http://www.w3.org/2000/svg">
<path d="M9.74802 29.445C8.60301 30.6648 8.67582 32.3513 8.67631 32.3684L8.70221 32.8747L7.68915 32.9309L7.66031 32.4246C7.65591 32.3386 7.55671 30.3031 8.9969 28.7579C9.99775 27.6837 11.4702 27.1281 13.3732 27.1041L13.4587 27.1036C16.1846 27.1036 19.0113 28.7369 21.7455 30.3168C24.2398 31.758 26.5963 33.1185 28.6171 33.1185H28.6322C33.2602 33.1034 35.5106 31.6788 35.5131 28.7637L35.5136 28.2545L36.531 28.256L36.5305 28.7652C36.5286 31.2043 35.1573 34.116 28.6342 34.137H28.6166C26.3226 34.137 23.8528 32.71 21.2363 31.1984C18.6179 29.6859 15.9115 28.1221 13.4582 28.1221L13.3859 28.1226C11.7761 28.1426 10.5524 28.5878 9.74802 29.445ZM29.1224 17.8756H28.1054V30.6604H29.1224V17.8756ZM36.791 26.1287L36.3781 25.5432C36.1684 25.2456 31.2243 18.2314 30.0362 15.9526C29.615 15.1399 29.3482 14.2798 29.2363 13.3713L15.0699 20.299V25.0032H14.0525V20.299L1.01747 13.924V44.4919L12.8776 50.2923L14.0525 50.8665V30.3774H15.0699V50.8797L28.1054 44.4919V36.2603H29.1224V44.4919L42.1579 50.8665V20.5058H43.1753V51.6816C43.1753 51.7251 43.1695 51.7677 43.1587 51.8092C43.148 51.8512 43.1323 51.8908 43.1113 51.9284C43.0903 51.9661 43.0649 52.0008 43.0351 52.032C43.0053 52.0633 42.9725 52.0907 42.9359 52.1132C42.8992 52.1361 42.8601 52.1542 42.8191 52.1669C42.778 52.1801 42.736 52.1879 42.693 52.1899C42.65 52.1923 42.607 52.1889 42.565 52.1806C42.5224 52.1718 42.4819 52.1581 42.4433 52.1396L28.6141 45.3765L14.9614 52.0667L14.9316 52.0066C14.8994 52.0438 14.8735 52.0863 14.831 52.1132C14.7567 52.1601 14.6755 52.186 14.5876 52.1904C14.5001 52.1953 14.417 52.1782 14.3379 52.1396L11.5171 50.76L0.285399 45.2675C0.197922 45.2245 0.128527 45.162 0.0772141 45.0794C0.025901 44.9968 0 44.9073 0 44.8101V13.1089C0 13.0658 0.00537572 13.0233 0.0161271 12.9818C0.0268783 12.9398 0.0430054 12.9002 0.0640193 12.8626C0.0850333 12.8244 0.109957 12.7902 0.139767 12.7589C0.169578 12.7277 0.202809 12.7003 0.239461 12.6778C0.276114 12.6549 0.314721 12.6368 0.355771 12.6241C0.396822 12.6109 0.439338 12.6031 0.482343 12.6011C0.525349 12.5987 0.567865 12.6016 0.610382 12.6104C0.652409 12.6192 0.692971 12.6329 0.732067 12.6514L14.5612 19.4145L28.8477 12.4281L29.2226 13.1958C29.1942 12.9417 29.1786 12.6866 29.1761 12.431C29.1761 8.22776 32.5931 4.80835 36.793 4.80835C40.9933 4.80835 44.4103 8.22776 44.4103 12.431C44.4103 13.5966 44.1537 14.7162 43.6484 15.7576C42.4902 18.1424 37.4219 25.2446 37.2069 25.5457L36.791 26.1287ZM36.7964 24.3669C38.0567 22.5827 41.8006 17.2335 42.7331 15.3129C42.9515 14.8643 43.1167 14.3966 43.2281 13.9098C43.3395 13.4231 43.3948 12.9305 43.3933 12.431C43.3933 8.78927 40.4323 5.82679 36.7934 5.82679C33.1546 5.82679 30.1941 8.78976 30.1941 12.431C30.1941 13.5086 30.4443 14.5344 30.9389 15.4815C31.8992 17.3248 35.5561 22.5944 36.7964 24.3669ZM36.7934 15.8387C36.682 15.8387 36.5711 15.8328 36.4602 15.8221C36.3492 15.8109 36.2388 15.7942 36.1293 15.7727C36.0203 15.7507 35.9123 15.7234 35.8053 15.6911C35.6988 15.6589 35.5937 15.6212 35.4911 15.5782C35.388 15.5357 35.2873 15.4878 35.1891 15.4355C35.0908 15.3828 34.995 15.3256 34.9027 15.2635C34.8098 15.2015 34.7204 15.135 34.6339 15.0641C34.5479 14.9933 34.4653 14.9185 34.3866 14.8398C34.3079 14.7606 34.2327 14.6781 34.1623 14.592C34.0914 14.5055 34.025 14.4161 33.9629 14.3233C33.9009 14.2309 33.8437 14.1351 33.7914 14.0369C33.7386 13.9387 33.6907 13.838 33.6482 13.7349C33.6052 13.6318 33.5676 13.5267 33.5353 13.4202C33.5031 13.3131 33.4757 13.2051 33.4537 13.0957C33.4322 12.9862 33.4156 12.8762 33.4043 12.7653C33.3936 12.6539 33.3877 12.5429 33.3877 12.431C33.3877 12.3196 33.3936 12.2082 33.4043 12.0973C33.4156 11.9863 33.4322 11.8759 33.4537 11.7664C33.4757 11.6574 33.5026 11.5489 33.5353 11.4424C33.5676 11.3354 33.6052 11.2308 33.6482 11.1277C33.6907 11.0246 33.7386 10.9239 33.7909 10.8257C33.8437 10.7269 33.9009 10.6317 33.9629 10.5388C34.025 10.4459 34.0914 10.3565 34.1618 10.27C34.2327 10.184 34.3075 10.1014 34.3866 10.0227C34.4653 9.94357 34.5479 9.8688 34.6339 9.79794C34.7199 9.72708 34.8093 9.66061 34.9022 9.59855C34.995 9.53649 35.0903 9.47931 35.1891 9.42653C35.2873 9.37424 35.388 9.32635 35.4911 9.28383C35.5937 9.24082 35.6988 9.20319 35.8053 9.17094C35.9118 9.1382 36.0198 9.11132 36.1293 9.08933C36.2388 9.06734 36.3487 9.05121 36.4602 9.03997C36.5711 9.02922 36.682 9.02335 36.7934 9.02335C36.9054 9.02335 37.0163 9.02922 37.1272 9.03997C37.2382 9.05121 37.3486 9.06734 37.4581 9.08933C37.5671 9.11132 37.6751 9.1382 37.7821 9.17094C37.8886 9.20319 37.9937 9.24082 38.0963 9.28383C38.1994 9.32635 38.3001 9.37424 38.3983 9.42653C38.4966 9.47931 38.5923 9.53649 38.6852 9.59855C38.7776 9.66061 38.867 9.72708 38.9535 9.79794C39.0395 9.8688 39.1221 9.94357 39.2008 10.0227C39.2799 10.1014 39.3547 10.184 39.4256 10.27C39.4959 10.3565 39.5624 10.4459 39.6245 10.5388C39.6865 10.6317 39.7437 10.7269 39.7965 10.8257C39.8488 10.9239 39.8967 11.0246 39.9392 11.1277C39.9822 11.2308 40.0198 11.3354 40.0521 11.4424C40.0843 11.5489 40.1117 11.6574 40.1337 11.7664C40.1552 11.8759 40.1718 11.9863 40.1826 12.0973C40.1938 12.2082 40.1992 12.3196 40.1997 12.431C40.1992 12.5429 40.1938 12.6539 40.1826 12.7653C40.1718 12.8762 40.1552 12.9862 40.1332 13.0957C40.1117 13.2051 40.0843 13.3131 40.0521 13.4202C40.0193 13.5267 39.9817 13.6318 39.9392 13.7349C39.8967 13.8375 39.8488 13.9387 39.796 14.0369C39.7437 14.1351 39.686 14.2309 39.6245 14.3233C39.5624 14.4161 39.4959 14.5055 39.4251 14.592C39.3542 14.6781 39.2794 14.7606 39.2008 14.8398C39.1221 14.9185 39.0395 14.9933 38.953 15.0641C38.867 15.135 38.7776 15.2015 38.6847 15.2635C38.5923 15.3256 38.4966 15.3828 38.3983 15.4355C38.3001 15.4878 38.1994 15.5357 38.0963 15.5782C37.9932 15.6212 37.8886 15.6589 37.7816 15.6911C37.6751 15.7234 37.5671 15.7507 37.4576 15.7727C37.3486 15.7942 37.2382 15.8109 37.1272 15.8221C37.0163 15.8328 36.9054 15.8387 36.7934 15.8387ZM39.1817 12.431C39.1817 12.3528 39.1778 12.2751 39.17 12.1969C39.1622 12.1192 39.1504 12.042 39.1353 11.9653C39.1201 11.8886 39.1011 11.8128 39.0781 11.7376C39.0556 11.6628 39.0292 11.5895 38.9989 11.5172C38.9691 11.4448 38.9359 11.374 38.8988 11.3051C38.8621 11.2362 38.8215 11.1692 38.7785 11.1042C38.735 11.0392 38.6881 10.9762 38.6388 10.9156C38.5889 10.8555 38.5366 10.7973 38.4814 10.7421C38.4262 10.6869 38.368 10.6341 38.3079 10.5847C38.2473 10.5349 38.1848 10.4885 38.1193 10.445C38.0543 10.4015 37.9873 10.3614 37.9184 10.3243C37.8495 10.2871 37.7791 10.2539 37.7068 10.2241C37.6345 10.1938 37.5612 10.1674 37.4864 10.1449C37.4112 10.1219 37.3354 10.1029 37.2592 10.0877C37.1825 10.0721 37.1047 10.0609 37.027 10.053C36.9493 10.0452 36.8712 10.0413 36.793 10.0413C36.7148 10.0413 36.6371 10.0452 36.5589 10.053C36.4812 10.0609 36.404 10.0721 36.3272 10.0877C36.2505 10.1029 36.1748 10.1219 36.1 10.1449C36.0252 10.1674 35.9519 10.1938 35.8796 10.2241C35.8073 10.2539 35.7369 10.2871 35.6675 10.3243C35.5986 10.3609 35.5316 10.4015 35.4666 10.445C35.4016 10.4885 35.3391 10.5349 35.2785 10.5847C35.2179 10.6341 35.1602 10.6869 35.105 10.7421C35.0498 10.7973 34.997 10.8555 34.9476 10.9156C34.8978 10.9762 34.8514 11.0392 34.8079 11.1042C34.7644 11.1692 34.7243 11.2362 34.6877 11.3051C34.6505 11.374 34.6173 11.4448 34.587 11.5172C34.5572 11.5895 34.5308 11.6628 34.5083 11.7376C34.4853 11.8128 34.4663 11.8886 34.4511 11.9653C34.4355 12.042 34.4242 12.1192 34.4164 12.1969C34.4086 12.2751 34.4047 12.3528 34.4047 12.431C34.4047 12.5097 34.4086 12.5874 34.4164 12.6656C34.4242 12.7433 34.4355 12.8205 34.4511 12.8972C34.4663 12.974 34.4853 13.0497 34.5083 13.1245C34.5308 13.1993 34.5572 13.2731 34.5875 13.3454C34.6173 13.4172 34.6505 13.4881 34.6877 13.557C34.7243 13.6259 34.7649 13.6928 34.8084 13.7578C34.8519 13.8233 34.8983 13.8859 34.9476 13.9465C34.9975 14.0066 35.0498 14.0647 35.105 14.12C35.1602 14.1752 35.2184 14.2275 35.279 14.2773C35.3391 14.3272 35.4021 14.3736 35.4671 14.4171C35.5321 14.4606 35.5991 14.5007 35.668 14.5373C35.7369 14.5745 35.8073 14.6077 35.8796 14.638C35.9519 14.6678 36.0252 14.6942 36.1 14.7167C36.1752 14.7396 36.251 14.7587 36.3272 14.7738C36.404 14.7895 36.4812 14.8007 36.5594 14.8085C36.6371 14.8164 36.7148 14.8203 36.793 14.8203C36.8712 14.8203 36.9493 14.8164 37.027 14.8085C37.1047 14.8007 37.182 14.7895 37.2587 14.7738C37.3354 14.7587 37.4112 14.7396 37.4859 14.7172C37.5607 14.6942 37.6345 14.6678 37.7068 14.638C37.7791 14.6082 37.8495 14.5745 37.9184 14.5378C37.9873 14.5007 38.0543 14.4606 38.1193 14.4171C38.1843 14.3736 38.2473 14.3272 38.3074 14.2773C38.368 14.228 38.4262 14.1752 38.4814 14.12C38.5366 14.0647 38.5889 14.0071 38.6388 13.9465C38.6881 13.8859 38.735 13.8233 38.778 13.7583C38.8215 13.6933 38.8621 13.6264 38.8988 13.557C38.9359 13.4881 38.9691 13.4177 38.9989 13.3454C39.0292 13.2731 39.0556 13.1993 39.0781 13.1245C39.1011 13.0497 39.1201 12.974 39.1353 12.8972C39.1504 12.8205 39.1622 12.7433 39.17 12.6656C39.1778 12.5874 39.1817 12.5097 39.1817 12.431Z" fill="#000080"/>
<path d="M36.7934 5.8269C33.1546 5.8269 30.1941 8.78987 30.1941 12.4311C30.1941 13.5087 30.4443 14.5345 30.9389 15.4816C31.8996 17.3245 35.5561 22.5941 36.7964 24.3666C38.0567 22.5823 41.8006 17.2331 42.7331 15.3125C42.952 14.8639 43.1167 14.3962 43.2281 13.9095C43.3395 13.4227 43.3948 12.9301 43.3933 12.4307C43.3933 8.78987 40.4323 5.8269 36.7934 5.8269ZM36.7934 15.8388C36.682 15.8388 36.5711 15.833 36.4602 15.8222C36.3492 15.811 36.2388 15.7944 36.1293 15.7729C36.0203 15.7509 35.9123 15.7235 35.8053 15.6912C35.6988 15.659 35.5942 15.6214 35.4911 15.5783C35.388 15.5358 35.2873 15.4879 35.1891 15.4357C35.0908 15.3829 34.995 15.3257 34.9027 15.2636C34.8098 15.2016 34.7204 15.1351 34.6339 15.0642C34.5479 14.9934 34.4653 14.9186 34.3866 14.8399C34.3079 14.7608 34.2327 14.6782 34.1623 14.5922C34.0914 14.5057 34.025 14.4162 33.9629 14.3234C33.9009 14.231 33.8437 14.1352 33.7914 14.037C33.7386 13.9388 33.6907 13.8376 33.6482 13.735C33.6052 13.6319 33.5676 13.5268 33.5353 13.4203C33.5031 13.3132 33.4757 13.2052 33.4537 13.0958C33.4322 12.9863 33.4156 12.8763 33.4043 12.7654C33.3936 12.654 33.3877 12.5431 33.3877 12.4311C33.3877 12.3197 33.3936 12.2083 33.4043 12.0974C33.4156 11.9864 33.4322 11.876 33.4537 11.7665C33.4757 11.6575 33.5026 11.549 33.5353 11.4425C33.5676 11.3355 33.6052 11.2309 33.6482 11.1278C33.6907 11.0247 33.7386 10.924 33.7909 10.8258C33.8437 10.7271 33.9009 10.6318 33.9629 10.5389C34.025 10.4461 34.0914 10.3566 34.1618 10.2701C34.2327 10.1841 34.3074 10.1015 34.3866 10.0229C34.4653 9.94368 34.5479 9.86891 34.6339 9.79805C34.7199 9.72719 34.8098 9.66073 34.9022 9.59866C34.995 9.5366 35.0903 9.47942 35.1891 9.42664C35.2873 9.37435 35.388 9.32646 35.4911 9.28394C35.5937 9.24094 35.6988 9.20331 35.8053 9.17105C35.9118 9.13831 36.0203 9.11143 36.1293 9.08944C36.2388 9.06745 36.3487 9.05132 36.4602 9.04008C36.5711 9.02933 36.682 9.02347 36.7934 9.02347C36.9054 9.02347 37.0163 9.02933 37.1272 9.04008C37.2382 9.05132 37.3486 9.06745 37.4581 9.08944C37.5671 9.11143 37.6751 9.13831 37.7821 9.17105C37.8886 9.20331 37.9937 9.24094 38.0963 9.28394C38.1994 9.32646 38.3001 9.37435 38.3983 9.42664C38.4966 9.47942 38.5923 9.5366 38.6852 9.59866C38.7776 9.66073 38.867 9.72719 38.9535 9.79805C39.0395 9.86891 39.1221 9.94368 39.2008 10.0229C39.2799 10.1015 39.3547 10.1841 39.4256 10.2701C39.4959 10.3566 39.5624 10.4461 39.6245 10.5389C39.6865 10.6318 39.7437 10.7271 39.7965 10.8258C39.8488 10.924 39.8967 11.0247 39.9392 11.1278C39.9822 11.2309 40.0198 11.3355 40.0521 11.4425C40.0843 11.549 40.1117 11.6575 40.1337 11.7665C40.1552 11.876 40.1718 11.9864 40.1826 12.0974C40.1938 12.2083 40.1992 12.3197 40.1997 12.4311C40.1992 12.5431 40.1938 12.654 40.1826 12.7654C40.1718 12.8763 40.1552 12.9863 40.1332 13.0958C40.1117 13.2052 40.0843 13.3132 40.0521 13.4203C40.0193 13.5268 39.9817 13.6319 39.9392 13.735C39.8967 13.8376 39.8488 13.9388 39.796 14.037C39.7437 14.1352 39.686 14.231 39.6245 14.3234C39.5624 14.4162 39.4959 14.5057 39.4251 14.5922C39.3542 14.6782 39.2794 14.7608 39.2008 14.8399C39.1221 14.9186 39.0395 14.9934 38.953 15.0642C38.867 15.1351 38.7776 15.2016 38.6847 15.2636C38.5923 15.3257 38.4966 15.3829 38.3983 15.4352C38.3001 15.4879 38.1994 15.5358 38.0963 15.5783C37.9932 15.6214 37.8886 15.659 37.7816 15.6912C37.6751 15.7235 37.5671 15.7509 37.4576 15.7729C37.3486 15.7944 37.2382 15.811 37.1272 15.8222C37.0163 15.833 36.9054 15.8388 36.7934 15.8388Z" fill="#1893F8"/>
<path d="M9.49923 34.6545L7.86943 36.2848L6.23914 34.6545L5.51929 35.3739L7.14958 37.0052L5.51929 38.6355L6.23914 39.3558L7.86943 37.7245L9.49923 39.3558L10.2186 38.6355L8.5883 37.0052L10.2186 35.3739L9.49923 34.6545Z" fill="#1893F8"/>
<path d="M68.3064 45.7817C67.7111 45.7817 67.1746 45.6531 66.6961 45.3966C66.2182 45.1395 65.8443 44.7857 65.5736 44.3346C65.3033 43.8836 65.168 43.3768 65.168 42.8138C65.168 42.2508 65.3033 41.7436 65.5736 41.293C65.8443 40.8419 66.2182 40.4881 66.6961 40.2311C67.1746 39.974 67.7111 39.846 68.3064 39.846C68.9021 39.846 69.4372 39.974 69.9122 40.2311C70.3877 40.4881 70.7621 40.8419 71.0353 41.293C71.3079 41.7436 71.4448 42.2508 71.4448 42.8138C71.4448 43.3768 71.3079 43.8836 71.0353 44.3346C70.7621 44.7857 70.3877 45.1395 69.9122 45.3966C69.4372 45.6531 68.9021 45.7817 68.3064 45.7817ZM68.3064 44.6503C68.645 44.6503 68.951 44.5726 69.2241 44.4167C69.4973 44.2608 69.7119 44.0434 69.8673 43.7648C70.0232 43.4863 70.1009 43.1691 70.1009 42.8138C70.1009 42.4585 70.0232 42.1414 69.8673 41.8628C69.7119 41.5838 69.4973 41.3668 69.2241 41.2109C68.951 41.055 68.645 40.9773 68.3064 40.9773C67.9677 40.9773 67.6618 41.055 67.3886 41.2109C67.1154 41.3668 66.9014 41.5838 66.7455 41.8628C66.5896 42.1414 66.5119 42.4585 66.5119 42.8138C66.5119 43.1691 66.5896 43.4863 66.7455 43.7648C66.9014 44.0434 67.1154 44.2608 67.3886 44.4167C67.6618 44.5726 67.9677 44.6503 68.3064 44.6503ZM74.5749 41.1821V41.3707H75.7057V42.3544H74.6076V45.6834H73.3292V42.3544H72.6494V41.3707H73.3292V41.1738C73.3292 40.6709 73.4782 40.2721 73.7759 39.9769C74.0735 39.6818 74.4928 39.5342 75.0338 39.5342C75.2248 39.5342 75.4066 39.5547 75.5787 39.5958C75.7507 39.6368 75.8939 39.6954 76.0087 39.7722L75.673 40.6983C75.5254 40.5947 75.3534 40.5428 75.1564 40.5428C74.7689 40.5428 74.5749 40.7559 74.5749 41.1821ZM78.5651 41.1821V41.3707H79.6959V42.3544H78.5978V45.6834H77.3199V42.3544H76.6396V41.3707H77.3199V41.1738C77.3199 40.6709 77.4685 40.2721 77.7666 39.9769C78.0642 39.6818 78.4835 39.5342 79.024 39.5342C79.2155 39.5342 79.3968 39.5547 79.5689 39.5958C79.7409 39.6368 79.8846 39.6954 79.9994 39.7722L79.6632 40.6983C79.5156 40.5947 79.3436 40.5428 79.1471 40.5428C78.7591 40.5428 78.5651 40.7559 78.5651 41.1821ZM87.4393 41.2725H88.6684L86.6774 45.9542C86.4751 46.4624 86.2254 46.8202 85.9273 47.0278C85.6297 47.2355 85.2705 47.3396 84.8502 47.3396C84.6205 47.3396 84.3938 47.304 84.1699 47.2331C83.9461 47.1618 83.7629 47.0635 83.6211 46.9379L84.0878 46.028C84.1866 46.115 84.2994 46.1834 84.428 46.2327C84.5565 46.2821 84.6836 46.3065 84.8092 46.3065C84.9836 46.3065 85.1258 46.264 85.2353 46.1795C85.3443 46.0949 85.4425 45.9542 85.53 45.7572L85.5466 45.7162L83.6373 41.2725H84.9567L86.1936 44.2648L87.4393 41.2725ZM91.9871 45.7489C91.5229 45.7489 91.106 45.6522 90.7375 45.4582C90.3686 45.2637 90.0807 44.9949 89.873 44.6503C89.6653 44.3058 89.5617 43.9153 89.5617 43.478C89.5617 43.0406 89.6653 42.6496 89.873 42.3056C90.0807 41.961 90.3686 41.6918 90.7375 41.4978C91.106 41.3037 91.5229 41.207 91.9871 41.207C92.4514 41.207 92.8663 41.3037 93.2323 41.4978C93.5984 41.6918 93.8852 41.961 94.0929 42.3056C94.3006 42.6496 94.4042 43.0406 94.4042 43.478C94.4042 43.9153 94.3006 44.3058 94.0929 44.6503C93.8852 44.9949 93.5984 45.2637 93.2323 45.4582C92.8663 45.6522 92.4514 45.7489 91.9871 45.7489ZM91.9871 44.6997C92.3146 44.6997 92.5838 44.5888 92.794 44.3674C93.0046 44.146 93.1097 43.8494 93.1097 43.478C93.1097 43.1061 93.0046 42.8094 92.794 42.588C92.5838 42.3672 92.3146 42.2562 91.9871 42.2562C91.6592 42.2562 91.389 42.3672 91.1759 42.588C90.9628 42.8094 90.8563 43.1061 90.8563 43.478C90.8563 43.8494 90.9628 44.146 91.1759 44.3674C91.389 44.5888 91.6592 44.6997 91.9871 44.6997ZM99.2384 41.2725H100.517V45.6834H99.3044V45.1586C99.1348 45.3502 98.9325 45.4963 98.6979 45.5974C98.4628 45.6986 98.2087 45.7489 97.9355 45.7489C97.3569 45.7489 96.898 45.5823 96.5594 45.249C96.2207 44.9152 96.0511 44.4207 96.0511 43.7648V41.2725H97.3296V43.5762C97.3296 44.2868 97.6272 44.642 98.2224 44.642C98.5283 44.642 98.7741 44.5423 98.9598 44.343C99.1456 44.1436 99.2384 43.8469 99.2384 43.453V41.2725ZM108.998 41.2725H110.21V44.9455C110.21 45.7543 110 46.3559 109.579 46.7493C109.159 47.1427 108.544 47.3396 107.736 47.3396C107.31 47.3396 106.906 47.2878 106.523 47.1837C106.141 47.0801 105.824 46.9296 105.572 46.7327L106.081 45.8144C106.266 45.9679 106.501 46.0891 106.785 46.1795C107.069 46.2694 107.353 46.3148 107.638 46.3148C108.08 46.3148 108.406 46.2151 108.616 46.0153C108.827 45.8159 108.932 45.5139 108.932 45.1092V44.9211C108.599 45.2871 108.135 45.4704 107.539 45.4704C107.135 45.4704 106.765 45.3814 106.429 45.2035C106.093 45.0261 105.827 44.7759 105.63 44.4534C105.433 44.1309 105.335 43.7594 105.335 43.3387C105.335 42.9174 105.433 42.546 105.63 42.2235C105.827 41.9009 106.093 41.6507 106.429 41.4733C106.765 41.2954 107.135 41.207 107.539 41.207C108.178 41.207 108.664 41.4171 108.998 41.8379V41.2725ZM107.793 44.4207C108.132 44.4207 108.409 44.321 108.625 44.1216C108.841 43.9222 108.948 43.6612 108.948 43.3387C108.948 43.0161 108.841 42.7552 108.625 42.5553C108.409 42.3559 108.132 42.2562 107.793 42.2562C107.454 42.2562 107.176 42.3559 106.957 42.5553C106.739 42.7552 106.629 43.0161 106.629 43.3387C106.629 43.6612 106.739 43.9222 106.957 44.1216C107.176 44.321 107.454 44.4207 107.793 44.4207ZM114.316 45.7489C113.851 45.7489 113.435 45.6522 113.066 45.4582C112.697 45.2637 112.409 44.9949 112.202 44.6503C111.994 44.3058 111.89 43.9153 111.89 43.478C111.89 43.0406 111.994 42.6496 112.202 42.3056C112.409 41.961 112.697 41.6918 113.066 41.4978C113.435 41.3037 113.851 41.207 114.316 41.207C114.78 41.207 115.195 41.3037 115.561 41.4978C115.927 41.6918 116.214 41.961 116.421 42.3056C116.629 42.6496 116.733 43.0406 116.733 43.478C116.733 43.9153 116.629 44.3058 116.421 44.6503C116.214 44.9949 115.927 45.2637 115.561 45.4582C115.195 45.6522 114.78 45.7489 114.316 45.7489ZM114.316 44.6997C114.643 44.6997 114.912 44.5888 115.122 44.3674C115.333 44.146 115.438 43.8494 115.438 43.478C115.438 43.1061 115.333 42.8094 115.122 42.588C114.912 42.3672 114.643 42.2562 114.316 42.2562C113.988 42.2562 113.717 42.3672 113.504 42.588C113.291 42.8094 113.185 43.1061 113.185 43.478C113.185 43.8494 113.291 44.146 113.504 44.3674C113.717 44.5888 113.988 44.6997 114.316 44.6997ZM118.494 43.691L118.24 39.9442H119.765L119.51 43.691H118.494ZM119.002 45.7489C118.778 45.7489 118.591 45.6766 118.441 45.5319C118.291 45.3868 118.216 45.2104 118.216 45.0027C118.216 44.795 118.29 44.6215 118.437 44.4822C118.584 44.343 118.773 44.2731 119.002 44.2731C119.232 44.2731 119.42 44.343 119.568 44.4822C119.715 44.6215 119.789 44.795 119.789 45.0027C119.789 45.2104 119.714 45.3868 119.564 45.5319C119.413 45.6766 119.227 45.7489 119.002 45.7489Z" fill="#000080"/>
<path d="M74.9761 35.64C73.0721 35.64 71.2307 35.3814 69.4529 34.8649C67.6745 34.3488 66.2465 33.6774 65.168 32.851L67.0612 28.6497C68.0933 29.4071 69.3209 30.0156 70.743 30.4749C72.1656 30.9338 73.5882 31.1635 75.0108 31.1635C76.5937 31.1635 77.7636 30.928 78.5206 30.4573C79.2781 29.9867 79.6563 29.3612 79.6563 28.5807C79.6563 28.007 79.433 27.5305 78.9854 27.1518C78.5382 26.7731 77.9645 26.4691 77.2647 26.2394C76.5649 26.0097 75.6187 25.7576 74.4253 25.4819C72.5903 25.0455 71.0875 24.6096 69.9171 24.1732C68.7472 23.7373 67.7434 23.037 66.9063 22.0728C66.0686 21.1086 65.6498 19.8233 65.6498 18.2165C65.6498 16.8159 66.0286 15.5477 66.7856 14.4115C67.5425 13.2748 68.6841 12.3741 70.2098 11.708C71.7356 11.0424 73.5994 10.7096 75.802 10.7096C77.3394 10.7096 78.8422 10.8934 80.3102 11.2604C81.7788 11.6279 83.0635 12.1557 84.1646 12.8447L82.4439 17.0798C80.2183 15.8175 77.9933 15.1861 75.7678 15.1861C74.2074 15.1861 73.0545 15.4387 72.3093 15.9436C71.5635 16.4489 71.1907 17.1145 71.1907 17.9409C71.1907 18.7672 71.6207 19.381 72.4813 19.7832C73.3414 20.1849 74.655 20.5808 76.4217 20.9708C78.2567 21.4072 79.7595 21.8431 80.9299 22.2795C82.0998 22.7154 83.1036 23.4045 83.9412 24.3457C84.7784 25.2869 85.1972 26.561 85.1972 28.1678C85.1972 29.5449 84.8131 30.8019 84.0444 31.9381C83.2756 33.0748 82.1228 33.9755 80.5858 34.6411C79.0484 35.3072 77.1787 35.64 74.9761 35.64ZM97.5861 35.5022C95.6133 35.5022 93.8408 35.0946 92.2691 34.2799C90.6975 33.4648 89.4703 32.3344 88.5868 30.8879C87.7037 29.4418 87.2619 27.8003 87.2619 25.9638C87.2619 24.1273 87.7037 22.4862 88.5868 21.0397C89.4703 19.5936 90.6975 18.4628 92.2691 17.6481C93.8408 16.833 95.6133 16.4259 97.5861 16.4259C99.5365 16.4259 101.24 16.833 102.696 17.6481C104.154 18.4628 105.215 19.6278 105.88 21.1433L101.716 23.3815C100.752 21.6828 99.364 20.8334 97.5519 20.8334C96.1523 20.8334 94.9936 21.2923 94.0758 22.2106C93.158 23.1289 92.6992 24.3799 92.6992 25.9638C92.6992 27.5476 93.158 28.7992 94.0758 29.7175C94.9936 30.6357 96.1523 31.0946 97.5519 31.0946C99.387 31.0946 100.775 30.2452 101.716 28.5465L105.88 30.819C105.215 32.2885 104.154 33.4359 102.696 34.2623C101.24 35.0887 99.5365 35.5022 97.5861 35.5022ZM122.261 16.701H127.63V35.2265H122.537V33.023C121.825 33.8264 120.976 34.4402 119.99 34.8649C119.003 35.2901 117.936 35.5022 116.789 35.5022C114.357 35.5022 112.43 34.8019 111.008 33.4017C109.585 32.0011 108.874 29.9237 108.874 27.1689V16.701H114.242V26.3772C114.242 29.3612 115.493 30.8537 117.994 30.8537C119.278 30.8537 120.311 30.4344 121.091 29.5967C121.871 28.7586 122.261 27.5134 122.261 25.8607V16.701ZM143.116 30.5438L144.561 34.3312C144.034 34.7217 143.385 35.0144 142.617 35.2094C141.848 35.4044 141.04 35.5022 140.191 35.5022C137.988 35.5022 136.285 34.9397 135.08 33.8147C133.876 32.6902 133.274 31.0374 133.274 28.8564V21.2464H130.417V17.1145H133.274V12.6033H138.642V17.1145H143.253V21.2464H138.642V28.7875C138.642 29.5679 138.843 30.1705 139.245 30.5952C139.646 31.0198 140.214 31.2324 140.948 31.2324C141.797 31.2324 142.519 31.0027 143.116 30.5438ZM157.673 30.5438L159.118 34.3312C158.591 34.7217 157.943 35.0144 157.174 35.2094C156.406 35.4044 155.597 35.5022 154.748 35.5022C152.545 35.5022 150.842 34.9397 149.637 33.8147C148.433 32.6902 147.83 31.0374 147.83 28.8564V21.2464H144.974V17.1145H147.83V12.6033H153.199V17.1145H157.811V21.2464H153.199V28.7875C153.199 29.5679 153.4 30.1705 153.801 30.5952C154.203 31.0198 154.771 31.2324 155.505 31.2324C156.354 31.2324 157.077 31.0027 157.673 30.5438ZM162.147 35.2265V9.67651H167.516V35.2265H162.147ZM177.633 19.146C178.276 18.2507 179.142 17.5734 180.232 17.1145C181.321 16.6551 182.577 16.4259 184 16.4259V21.3842C183.403 21.3383 183.002 21.3153 182.795 21.3153C181.258 21.3153 180.054 21.7458 179.182 22.6064C178.31 23.4675 177.874 24.7587 177.874 26.4803V35.2265H172.505V16.701H177.633V19.146Z" fill="#000080"/>
<path d="M54.1406 0.914062H56.0871V56.0859H54.1406V0.914062Z" fill="#000080"/>
</svg>
